<?xml version="1.0" encoding="utf-8"?>
<!-- Generator: Adobe Illustrator 21.0.1, SVG Export Plug-In . SVG Version: 6.00 Build 0)  -->
<svg version="1.1" id="Layer_1" xmlns="http://www.w3.org/2000/svg" xmlns:xlink="http://www.w3.org/1999/xlink" x="0px" y="0px"
	 viewBox="0 0 1920 1100" style="enable-background:new 0 0 1920 1100;" xml:space="preserve">
<style type="text/css">
	.st0{opacity:0;}
	.st1{font-family:'WCManoNegraBta-Bold';}
	.st2{font-size:102.3361px;}
	.st3{font-size:68.5707px;}
	.st4{font-size:68.5706px;}
</style>
<g>
	<g>
		<g>
			<path d="M596.4,101.4c11.2-2.2,22.6-1.4,33.9-1.2c11.8,0.2,23.7,0,35.6,0c23.1,0,46.2,0,69.3-0.8c47.1-1.6,94.2-5,141.2-7.2
				c46.7-2.2,93.5-3.2,140.2-4.7c46.4-1.5,92.4-4.8,138.7-8.6c36.5-2.9,73-5.4,109.4-8.9c18.2-1.7,36.4-3.5,54.6-5
				c16.5-1.4,34.3-1.5,50.3-6.3c-2.7-2.1-5.4-4.1-8.1-6.2c5.1,45.5,10.2,90.6,12.4,136.3c2.2,46.7,3.5,93.5,4.2,140.3
				c0.7,46.7,0.5,93.5,0.9,140.2c0.4,46.1,0.2,92.2-2.3,138.2c-4,71.7-6.2,143.4-9.6,215.1c-1.6,33.5-3.4,67-3.6,100.5
				c-0.2,35.8,7.7,71.4,4.7,107.3c-0.7,8.2,12.1,8.2,12.8,0c3-36.4-4.9-72.6-4.7-108.9c0.1-34.3,2.1-68.5,3.8-102.7
				c1.5-30.9,2.6-61.7,3.6-92.6c1.5-44.1,4.3-88.1,6.6-132.2c2.3-44.3,1.9-88.7,1.5-133c-0.4-45.8-0.3-91.6-0.9-137.4
				c-0.7-45.9-2-91.7-4.2-137.5c-2.1-44.8-7.2-89-12.2-133.5c-0.4-4-3.8-7.5-8.1-6.2c-9.8,2.9-20.5,3.6-30.7,4.5
				c-11.7,1-23.3,1.9-35,2.9c-23,1.9-45.9,4.5-68.8,6.4c-45.8,3.8-91.6,8-137.4,11c-46.2,3.1-92.5,3.8-138.8,5.4
				c-47.1,1.6-94.1,3.8-141.1,6.5c-37.5,2.1-75.2,5-112.7,5c-18.3,0-36.6,0-55,0c-17.8,0-36.1-2.2-53.6,1.3
				C585,91.1,588.4,103,596.4,101.4L596.4,101.4z"/>
		</g>
		<g>
			<path d="M588.6,93.6c-9.2,29-4.9,61.6-4.5,91.5c0.6,44.3,5.1,88.7,7.5,133c2.5,45.8,2.9,91.7,2,137.6
				c-0.9,46.6-5.9,92.9-8.2,139.4c-1.8,37.5-5.8,74.8-7.4,112.2c-1.5,37.4-0.9,74.9-0.3,112.3c0.6,37.6,0.7,75.3,0.7,112.9
				c0,17.8,0.5,35.7-0.9,53.5c-1.2,15.9-3,31.5-2.2,47.5c0.2,3.5,2.8,6.4,6.4,6.4c14.8,0,29.5,0.1,44.3-0.4
				c15.9-0.5,31.7-2.3,47.6-2.6c22.9-0.5,45.8,1,68.7,1.9c23,0.8,46.1,1,69.1,0.9c46-0.2,91.9-1.3,137.9-1.2
				c45.9,0,91.5,2.3,137.4,0.7c50.9-1.8,102.1-0.7,153-0.7c45.1,0,89.9-1.4,135.4-1.4c7.1,0,7.1-12.8,0-12.8
				c-41.2,0-81,1.4-121.4,1.4c-46.5,0-93.2-0.3-139.7,0c-22.8,0.2-45.5,1.6-68.3,1.8c-23,0.2-46-1.4-69-1.7
				c-45.8-0.5-91.7,0.3-137.5,0.9c-24.9,0.3-49.9,0.4-74.8-0.1c-25.7-0.5-51.4-2.3-77.1-2.6c-19.3-0.2-38.4,1.7-57.6,2.6
				c-16,0.7-32,0.5-47.9,0.5c2.1,2.1,4.3,4.3,6.4,6.4c-1-19.9,2.1-39.5,3-59.3c1-23.3,0.1-46.8,0.1-70.1c0-46.9-1.2-93.7-1.3-140.6
				c-0.1-23.4,0.4-46.8,1.6-70.2c1.2-23.4,3.9-46.8,5.2-70.2c1.4-23.2,2.2-46.4,3.7-69.6c1.6-23.2,4.1-46.4,5.1-69.6
				c3.1-72.3,0.3-144.4-4.3-216.6c-2-31.6-3.8-63.1-4.7-94.7c-0.7-24.6-3.2-51.7,4.4-75.6C603.4,89.1,591.1,85.7,588.6,93.6
				L588.6,93.6z"/>
		</g>
		<g>
			<path d="M684.3,315.6c0,0-1.1,0-1.4,0c-2.3,0-4.3,2.2-4.3,4.5c0,10.2,0.5,20.5,1.3,30.7c0.6,7.7-0.6,16.6,3.1,23.7
				c0.7,1.3,2.2,2.1,3.7,2.1c9.1,0,18.3,0,27.4-1.2c6.7-0.9,13.1-0.1,19.3-3.2c1.3-0.6,2.1-2.3,2.1-3.7c0-17,0-33.8-1.7-50.7
				c-0.2-1.8-1.2-3.7-3.1-4.1c-8.6-1.8-15.3-1.4-23.9-0.4c-8.3,1-16.4,2.5-24.9,2.6c-5.5,0.1-5.5,8.6,0,8.5
				c15.6-0.2,31.1-5.7,46.5-2.5c-1-1.4-2.1-2.7-3.1-4.1c1.7,16.9,1.7,33.7,1.7,50.7c0.7-1.2,1.4-2.5,2.1-3.7
				c-5.5,2.7-13.3,1.9-19.4,2.5c-7.6,0.8-15.4,0.7-23,0.7c1.2,0.7,2.5,1.4,3.7,2.1c-1.6-3.1-1.3-6.8-1.3-10.2
				c0-4.6-0.6-9.1-0.9-13.7c-0.5-8.7-1-17.6-1-26.3c-1.4,1.4-2.8,2.6-4.3,4c0.3,0,0,0,1.4,0C690,324.1,690,315.6,684.3,315.6
				C684.3,315.6,690,315.6,684.3,315.6z"/>
		</g>
		<g>
			<path d="M783.8,379.5c0,0,42.3,0,63.2,0c20.6,0,41.1-1.3,61.7-1.8c9-0.3,18.1-0.1,27.2-0.1c10,0,19.7-1.4,29.7-1.9
				c20.6-1,41-4.4,61.6-5.6c20.3-1.2,40.7,0.1,61.1-0.4c20.8-0.6,41.6-1.8,62.4-2.3c20.9-0.5,41.8-1,62.7-1.8
				c10.2-0.4,20.3-0.3,30.5,0.4c3.3,0.2,6.6,0.3,9.9,0.1c1.5-0.1,2.9-0.1,4.4-0.1c2,0,2.9,1,1.9-0.9c2.4,4.9,9.8,0.6,7.4-4.3
				c-2-4.1-8.5-3.3-12.2-3.2c-7.7,0.2-15.3-0.5-23.1-0.7c-21.6-0.8-43.4,1.8-65,1.9c-21.8,0.1-43.6,1.2-65.4,2
				c-21.4,0.8-42.7,0.4-64,0.6c-21.6,0.1-42.6,4.8-64.1,5.8c-19.9,0.9-39.5,2-59.4,2c-21.5,0-42.9,1.9-64.4,1.9
				c-21.8,0-43.2,0-65.9,0C778.1,371,778.1,379.5,783.8,379.5C783.8,379.5,778.1,379.5,783.8,379.5z"/>
		</g>
		<g>
			<path d="M728.1,512.8c0.3,0,0.6,0,0.9,0c2.4,0.1,4.2-2,4.3-4.3c0.5-10.2,0.5-20.4,0.2-30.7c-0.3-7.8,1.3-16.4-2-23.7
				c-0.6-1.4-2.3-2-3.7-2.1c-9.1-0.4-18.3-0.9-27.4-0.1c-6.8,0.6-13-0.4-19.4,2.4c-1.4,0.6-2,2.3-2.1,3.7
				c-0.8,16.8-1.7,33.4-0.8,50.2c0.1,1.9,1.2,3.6,3.1,4.1c3.5,1,7.1,2.3,10.7,2.7c4.4,0.4,8.8-0.4,13.1-0.7c8.4-0.6,16.5-1.7,25-1.4
				c5.5,0.2,5.5-8.3,0-8.5c-7.3-0.2-14.8-0.1-22,1c-8.7,1.3-16.1,1-24.5-1.3c1,1.4,2.1,2.7,3.1,4.1c-0.9-16.8,0-33.4,0.8-50.2
				c-0.7,1.2-1.4,2.5-2.1,3.7c5.6-2.4,13.5-1.2,19.5-1.5c7.7-0.4,15.4,0.1,23,0.4c-1.2-0.7-2.5-1.4-3.7-2.1c1.4,3.1,0.9,7,0.7,10.2
				c-0.2,4.6,0.2,9.2,0.2,13.8c0.1,8.7,0.2,17.4-0.3,26.1c1.4-1.4,2.8-2.8,4.3-4.3c-0.3,0-0.6,0-0.9,0
				C722.6,504,722.7,512.5,728.1,512.8L728.1,512.8z"/>
		</g>
		<g>
			<path d="M1263.7,502.4c-20.7-0.1-41.3,1.5-62,2.3c-19.3,0.7-38.6,0.3-57.9,0.2c-38.2-0.2-77-2.1-115,1.6
				c-21.1,2-42.5,0.1-63.7,0.5c-21.7,0.3-43.4,1.5-65.1,2c-21.8,0.5-43.7,0.8-65.5,1.4c-10.2,0.3-20.3,0.2-30.5-0.6
				c-3.3-0.2-6.6-0.3-9.9-0.2c-1.5,0.1-3,0.1-4.4,0.1c-2.1,0-2.8-1.1-1.9,0.9c-2.4-4.9-9.8-0.6-7.4,4.3c2,4.1,8.5,3.4,12.2,3.3
				c7.7-0.2,15.3,0.6,23.1,0.9c22.5,1,45.2-1.5,67.8-1.4c22.7,0.1,45.4-1.1,68.1-1.8c22.2-0.7,44.4,0.5,66.5-0.1
				c10.7-0.3,21.3-1.8,32-2.2c10.5-0.4,21.1-0.2,31.6-0.1c18.7,0.1,37.3,0,56,0.1c19.5,0.1,39.1,0.4,58.7,0
				c22.4-0.5,44.8-2.5,67.3-2.4C1269.2,510.9,1269.2,502.4,1263.7,502.4L1263.7,502.4z"/>
		</g>
		<g>
			<path d="M716.7,606.4c0.3,0,0.6-0.1,0.9-0.1c-1.4-1.4-2.8-2.8-4.3-4.3c0.9,8.8,1.1,17.6,1.8,26.4c0.4,4.4,0.2,8.9,0.5,13.4
				c0.3,3.8,1,7.6-0.4,11.3c1.4-1,2.7-2.1,4.1-3.1c-7.6,0.8-15.3,1.6-23,1.8c-6.5,0.2-14.4,1.6-20.6-0.6c1,1.4,2.1,2.7,3.1,4.1
				c-1.8-16.9-3.6-33.6-3.7-50.6c-1,1.4-2.1,2.7-3.1,4.1c15-4.8,30.9-1.1,46.5-2.5c5.4-0.5,5.5-9,0-8.5c-16.5,1.5-32.8-2.3-48.7,2.8
				c-1.8,0.6-3.1,2.2-3.1,4.1c0.1,17,1.9,33.7,3.7,50.6c0.2,2,1.2,3.4,3.1,4.1c5.9,2.2,12.3,1.1,18.5,0.9c9.2-0.2,18.2-0.8,27.3-1.7
				c2.1-0.2,3.4-1.2,4.1-3.1c2.6-6.7,0.5-14.7,0.3-21.6c-0.2-10.6-0.8-21.2-2-31.7c-0.2-2.1-1.8-4.5-4.3-4.3c-0.3,0-0.6,0.1-0.9,0.1
				C711.3,598.5,711.3,607,716.7,606.4L716.7,606.4z"/>
		</g>
		<g>
			<path d="M1253.7,648c-23.5,0.9-46.9,1.8-70.4,2.7c-22.2,0.8-44.3-0.2-66.5,0.6c-19.6,0.7-39.1-0.2-58.8,0.2
				c-18.4,0.4-36.7,0-55.1-1.5c-19.6-1.5-39-0.4-58.6-0.3c-22.7,0.1-45.4-0.4-68,0.3c-22.7,0.6-45.4-0.1-68.1,0.7
				c-8.1,0.3-16,1.8-24.1,1.7c-3.9,0-11.6-0.9-13.6,3.6c-2.2,5,5.1,9.3,7.4,4.3c-0.8,1.8-0.3,0.8,1.8,0.7c1.5-0.1,3-0.1,4.4,0
				c3.3,0,6.6-0.2,9.9-0.5c10.2-1,20.2-1.5,30.5-1.5c21.9-0.1,43.7-0.3,65.5-0.6c21.7-0.3,43.4,0.2,65.1-0.1
				c18.5-0.2,36.5-0.4,54.9,1c17.4,1.3,34.8,1.3,52.2,0.8c19-0.5,37.9,0.5,57-0.2c21.4-0.8,42.7,0.3,64.1-0.5
				c23.5-0.9,46.9-1.8,70.4-2.7C1259.2,656.3,1259.2,647.7,1253.7,648L1253.7,648z"/>
		</g>
		<g>
			<path d="M718.9,792.8c0.3,0,0.6,0,0.9,0c2.2-0.1,4.4-1.9,4.3-4.3c-0.4-10.2-1.3-20.4-2.6-30.5c-0.9-7.6-0.1-16.7-3.9-23.5
				c-0.7-1.3-2.2-2.2-3.7-2.1c-8.9,0.4-17.8,0.9-26.7,2.2c-6.7,1-13.7,0.7-19.8,4.1c-1.3,0.7-2.2,2.2-2.1,3.7
				c0.7,17.5,1.5,34.7,3.9,52c0.2,1.3,1.7,2.8,3,3c16.6,2.6,32-3.5,48.6-4.5c5.5-0.3,5.5-8.8,0-8.5c-15.4,0.9-31,7.2-46.3,4.8
				c1,1,2,2,3,3c-2.4-16.6-2.9-33-3.6-49.7c-0.7,1.2-1.4,2.5-2.1,3.7c5.3-2.8,12-2.2,17.8-3.2c8-1.4,16.3-1.5,24.4-1.8
				c-1.2-0.7-2.5-1.4-3.7-2.1c1.7,3.1,1.7,6.7,1.8,10.1c0.2,4.6,1,9.1,1.5,13.7c0.9,8.7,1.7,17.3,2.1,26c1.4-1.4,2.8-2.8,4.3-4.3
				c-0.3,0-0.6,0-0.9,0C713.4,784.4,713.4,793,718.9,792.8L718.9,792.8z"/>
		</g>
		<g>
			<path d="M772.8,799.3c20.9,0.2,41.8,0.4,62.8,0.6c20.6,0.2,41.1-0.8,61.7-1.2c9-0.2,18.1,0.1,27.2,0.2c10,0.1,19.7-1.2,29.7-1.6
				c20.7-0.8,41-4,61.6-5c20.3-1,40.7,0.5,61.1,0.2c20.8-0.4,41.6-1.4,62.4-1.7c20.9-0.3,41.8-0.6,62.8-1.2
				c10.2-0.3,20.3-0.1,30.5,0.7c3.3,0.3,6.6,0.3,9.9,0.2c1.5-0.1,3-0.1,4.4-0.1c2.1,0,2.8,1.1,1.9-0.9c2.4,4.9,9.7,0.6,7.4-4.3
				c-2-4.1-8.5-3.4-12.2-3.3c-7.7,0.2-15.3-0.6-23-1c-21.6-1-43.4,1.4-65,1.2c-21.8-0.1-43.6,0.7-65.5,1.4c-21.4,0.6-42.7,0-64,0
				c-21.6-0.1-42.7,4.4-64.2,5.2c-19.9,0.7-39.5,1.6-59.4,1.4c-21.5-0.2-42.9,1.5-64.4,1.3c-21.8-0.2-43.6-0.4-65.5-0.6
				C767.3,790.7,767.3,799.3,772.8,799.3L772.8,799.3z"/>
		</g>
		<g>
			<path d="M677.4,867.3c-0.3,0-0.6,0-0.9,0c-2.4-0.1-4.2,2-4.3,4.3c-0.3,10.2,0,20.4,0.5,30.6c0.4,7.8-0.9,16.5,2.5,23.7
				c0.6,1.3,2.3,2.1,3.7,2.1c9.1,0.2,18.3,0.5,27.4-0.5c6.7-0.7,13.1,0.1,19.4-2.8c1.4-0.6,2.1-2.3,2.1-3.7
				c0.4-17.2,0.9-34.1-0.4-51.3c-0.1-1.8-1.2-3.7-3.1-4.1c-16.2-3.6-32.4,1.7-48.8,1.6c-5.5-0.1-5.5,8.5,0,8.5
				c15.4,0.2,31.4-5.2,46.5-1.9c-1-1.4-2.1-2.7-3.1-4.1c1.3,17.1,0.8,34.1,0.4,51.3c0.7-1.2,1.4-2.5,2.1-3.7
				c-5.5,2.5-13.4,1.5-19.4,2c-7.7,0.6-15.4,0.3-23,0.1c1.2,0.7,2.5,1.4,3.7,2.1c-1.5-3.1-1.1-6.9-1-10.2c0.1-4.6-0.4-9.2-0.5-13.7
				c-0.3-8.7-0.6-17.4-0.3-26.1c-1.4,1.4-2.8,2.8-4.3,4.3c0.3,0,0.6,0,0.9,0C682.9,876,682.9,867.5,677.4,867.3L677.4,867.3z"/>
		</g>
		<g>
			<path d="M776.4,933.3c20.9,0.5,41.8,1.1,62.8,1.6c20.6,0.5,41.1-0.2,61.7-0.3c9,0,18.1,0.4,27.2,0.6c10,0.3,19.8-0.9,29.7-1.1
				c20.7-0.5,41.1-3.4,61.7-4.1c20.3-0.7,40.7,1.2,61.1,1.1c20.8,0,41.6-0.7,62.4-0.7c20.9,0,41.8,0.1,62.8-0.2
				c10.2-0.1,20.3,0.2,30.5,1.2c3.3,0.3,6.6,0.4,9.9,0.4c1.5,0,3,0,4.4,0c2.1,0,2.7,1.1,1.9-0.8c2.3,5,9.7,0.6,7.4-4.3
				c-1.9-4.1-8.6-3.5-12.2-3.5c-7.7,0-15.3-0.9-23-1.3c-21.6-1.3-43.4,0.7-65.1,0.2c-21.8-0.5-43.6,0.1-65.5,0.4
				c-21.4,0.3-42.7-0.6-64-1c-21.5-0.4-42.8,3.8-64.3,4.2c-19.9,0.4-39.5,1-59.4,0.5c-21.5-0.5-42.9,0.8-64.4,0.3
				c-21.8-0.6-43.6-1.1-65.4-1.7C770.9,924.7,771,933.2,776.4,933.3L776.4,933.3z"/>
		</g>
		<g>
			<path d="M774.3,252.3c-7.6,3-13,10.6-18.7,16.1c-7.9,7.5-13.8,17.3-19.8,26.2c-6.2,9.1-13.4,17.4-19.5,26.5
				c-6,9.1-11.6,18.7-17.9,27.6c5.3,0.7,10.6,1.4,15.9,2.1c-2.1-9.5-7.3-17.9-11.2-26.8c-3-6.7-8.7-16.6-17.1-15.9
				c-6.4,0.5-10.7,6.9-7.4,12.8c1.3,2.4,3.5,3.8,5.1,6c1.7,2.4,3,5.2,4.3,7.8c3.2,6.9,7.1,13.5,9.6,20.7c2.3,6.6,12.3,9.3,15.9,2.1
				c4.2-8.3,8.2-16.9,11.8-25.5c3.9-9.1,10.5-16.9,15.7-25.2c5.5-9,10.5-18.4,15.8-27.6c2.6-4.6,5.9-8.7,9-12.9
				c3.1-4.3,4.6-9.2,9.3-12.2C776.1,253.6,775.4,251.8,774.3,252.3L774.3,252.3z"/>
		</g>
		<g>
			<path d="M770,390.2c-7.6,3-13,10.6-18.7,16.1c-7.9,7.5-13.8,17.3-19.8,26.2c-6.2,9.1-13.4,17.4-19.5,26.5
				c-6,9.1-11.6,18.7-17.9,27.6c5.3,0.7,10.6,1.4,15.9,2.1c-2.1-9.5-7.3-17.9-11.2-26.8c-3-6.7-8.7-16.6-17.1-15.9
				c-6.4,0.5-10.7,6.9-7.4,12.8c1.3,2.4,3.5,3.8,5.1,6c1.7,2.4,3,5.2,4.3,7.8c3.2,6.9,7.1,13.5,9.6,20.7c2.3,6.6,12.3,9.3,15.9,2.1
				c4.2-8.3,8.2-16.9,11.8-25.5c3.9-9.1,10.5-16.9,15.7-25.2c5.5-9,10.5-18.4,15.8-27.6c2.6-4.6,5.9-8.7,9-12.9
				c3.1-4.3,4.6-9.2,9.3-12.2C771.8,391.5,771.2,389.7,770,390.2L770,390.2z"/>
		</g>
		<g>
			<path d="M761.5,536.6c-7.6,3-13,10.6-18.7,16.1c-7.9,7.5-13.8,17.3-19.8,26.2c-6.2,9.1-13.4,17.4-19.5,26.5
				c-6,9.1-11.6,18.7-17.9,27.6c5.3,0.7,10.6,1.4,15.9,2.1c-2.1-9.5-7.3-17.9-11.2-26.8c-3-6.7-8.7-16.6-17.1-15.9
				c-6.4,0.5-10.7,6.9-7.4,12.8c1.3,2.4,3.5,3.8,5.1,6c1.7,2.4,3,5.2,4.3,7.8c3.2,6.9,7.1,13.5,9.6,20.7c2.3,6.6,12.3,9.3,15.9,2.1
				c4.2-8.3,8.2-16.9,11.8-25.5c3.9-9.1,10.5-16.9,15.7-25.2c5.5-9,10.5-18.4,15.8-27.6c2.6-4.6,5.9-8.7,9-12.9
				c3.1-4.3,4.6-9.2,9.3-12.2C763.3,537.9,762.6,536.1,761.5,536.6L761.5,536.6z"/>
		</g>
		<g class="st0">
			<path d="M768.6,808c-7.6,3-13,10.6-18.7,16.1c-7.9,7.5-13.8,17.3-19.8,26.2c-6.2,9.1-13.4,17.4-19.5,26.5
				c-6,9.1-11.6,18.7-17.9,27.6c5.3,0.7,10.6,1.4,15.9,2.1c-2.1-9.5-7.3-17.9-11.2-26.8c-3-6.7-8.7-16.6-17.1-15.9
				c-6.4,0.5-10.7,6.9-7.4,12.8c1.3,2.4,3.5,3.8,5.1,6c1.7,2.4,3,5.2,4.3,7.8c3.2,6.9,7.1,13.5,9.6,20.7c2.3,6.6,12.3,9.3,15.9,2.1
				c4.2-8.3,8.2-16.9,11.8-25.5c3.9-9.1,10.5-16.9,15.7-25.2c5.5-9,10.5-18.4,15.8-27.6c2.6-4.6,5.9-8.7,9-12.9
				c3.1-4.3,4.6-9.2,9.3-12.2C770.4,809.3,769.7,807.6,768.6,808L768.6,808z"/>
		</g>
		<g>
			<path d="M762.9,675.8c-7.6,3-13,10.6-18.7,16.1c-7.9,7.5-13.8,17.3-19.8,26.2c-6.2,9.1-13.4,17.4-19.5,26.5
				c-6,9.1-11.6,18.7-17.9,27.6c5.3,0.7,10.6,1.4,15.9,2.1c-2.1-9.5-7.3-17.9-11.2-26.8c-3-6.7-8.7-16.6-17.1-15.9
				c-6.4,0.5-10.7,6.9-7.4,12.8c1.3,2.4,3.5,3.8,5.1,6c1.7,2.4,3,5.2,4.3,7.8c3.2,6.9,7.1,13.5,9.6,20.7c2.3,6.6,12.3,9.3,15.9,2.1
				c4.2-8.3,8.2-16.9,11.8-25.5c3.9-9.1,10.5-16.9,15.7-25.2c5.5-9,10.5-18.4,15.8-27.6c2.6-4.6,5.9-8.7,9-12.9
				c3.1-4.3,4.6-9.2,9.3-12.2C764.7,677.2,764.1,675.4,762.9,675.8L762.9,675.8z"/>
		</g>
	</g>
</g>
<text transform="matrix(0.9995 -3.109000e-02 3.109000e-02 0.9995 867.1466 210.4628)" class="st1 st2">Today</text>
<text transform="matrix(0.9995 -3.283000e-02 3.283000e-02 0.9995 787.7487 356.9485)" class="st1 st3">Auditing web apps</text>
<text transform="matrix(0.9998 -1.881000e-02 1.881000e-02 0.9998 778.9905 643.4203)" class="st1 st4">Color Contrast</text>
<text transform="matrix(1 -8.450001e-03 8.450001e-03 1 788.7988 498.7886)" class="st1 st3">Focus Management</text>
<text transform="matrix(0.9998 -1.881000e-02 1.881000e-02 0.9998 781.8336 778.446)" class="st1 st4">Automated testing</text>
</svg>
