<?xml version="1.0" standalone="no"?>
<!DOCTYPE svg PUBLIC "-//W3C//DTD SVG 1.1//EN" "http://www.w3.org/Graphics/SVG/1.1/DTD/svg11.dtd" >
<svg xmlns="http://www.w3.org/2000/svg">
<metadata></metadata>
<defs>
<font id="wc_mano_negra_btaregular" horiz-adv-x="919" >
<font-face units-per-em="2048" ascent="1638" descent="-410" />
<missing-glyph horiz-adv-x="612" />
<glyph horiz-adv-x="0" />
<glyph unicode="&#xd;" horiz-adv-x="409" />
<glyph unicode=" "  horiz-adv-x="612" />
<glyph unicode="&#x09;" horiz-adv-x="612" />
<glyph unicode="&#xa0;" horiz-adv-x="612" />
<glyph unicode="!" horiz-adv-x="681" d="M96 104l6 13v10l9 10l-5 15l9 8h10l-8 14l12 6l-8 27l8 2l14 -2l2 2v8l17 19l14 10l19 12l61 -27h10l4 5v10l21 4l8 -19h8l15 -22l10 8l6 -4l16 -29l11 -20h4l6 10l8 -4l6 -10l19 -23l4 -4l-4 -14l8 -15h-8v-6h4l6 -26l-2 -33l-4 -25l-27 -14l-31 -8l-18 -25l-37 4h-8 l-49 17l-52 32l-14 19l-18 4l4 6l-12 12v15l-33 18zM254 418l2 94l31 178l37 168l53 180l123 291l14 49l35 33l41 14l37 -6l51 -39l8 -10v-37l-31 -127l-24 -76l-60 -151l-16 -4l-74 -180l-37 -119l-12 -12l-4 -2l8 -9l-12 -16l8 -10l-8 -23l-6 -10l-12 -23l-3 -12l-30 -51 l-15 -64l-4 -45l-8 -41h-10l-8 -34l-23 -15l-10 4l-16 -8l-15 27z" />
<glyph unicode="&#x22;" horiz-adv-x="481" d="M137 768l17 96l26 80l29 72l33 55l12 16l14 7l4 -2l11 4l16 -2l20 -13l5 -12l8 -4l4 -12l-19 -43l-2 -17l-14 -45l-16 -55l-21 -64l-2 -2l-4 -16l-8 -27l-8 -10l-6 -24l-7 -33l-8 -19l-4 -2l2 -18l4 -4l8 2v-6l-6 -6v-11l-4 -2l-2 -6l-24 -2l-2 -4l-5 2l-16 -8h-6l-14 26 l-11 46zM319 723l3 61l6 35l28 103l9 22l8 29l39 94l10 6l18 8l23 -2l6 -2l8 -6l8 2l15 -16l10 -21l-2 -12l-6 -16l-8 -29l-5 -6l-6 -25l-2 -10l-20 -55l-10 -21h-7l-6 -16l-22 -68l-2 -12l-8 -2l-13 -37l-10 -14l-6 -2l2 -11l-2 -4l6 -8l-6 -10l2 -6l-4 -15l-2 -6l2 -16 l-6 -14l-19 -3l-22 19l-6 31z" />
<glyph unicode="#" horiz-adv-x="1818" d="M358 696v13q0 111 140 129q176 25 180 26q92 25 137 111q35 92 56.5 142t27.5 63q59 115 143 155q0 -57 -34 -186q-35 -129 -35 -188q0 -27 2 -35q135 41 192 204q82 227 125 275q92 -43 92 -121q0 -57 -45 -141q-59 -115 -69 -148q100 -29 139 -26l66 4q8 0 20 1t31 3 l43 6q41 0 61 -33q4 -8 11.5 -25.5t15.5 -43.5q-494 0 -522 -250q31 -8 88 -8h30.5t36.5 2l119 6q150 8 203 -90q-35 -8 -137.5 -25.5t-272.5 -44.5q-145 -23 -145 -121q0 -43 20 -104q16 -47 23.5 -76t9.5 -39q-14 -2 -27.5 -3t-25.5 -1q-100 0 -142 66q-18 31 -55 188 l-78 -12q-70 -27 -69 -99q0 -6 6 -18t12 -27.5t12.5 -29t6.5 -23.5q0 -14 -2 -18q-20 -76 -60 -76q-43 0 -102 86q-49 70 -66 125q-27 -6 -55 -6q-102 0 -103 77q0 47 46 78q35 27 88 33q100 12 139 61q29 35 65 144q-39 12 -112 12q-37 0 -115 -6q-74 -6 -113 -6 q-2 8 -2 20zM809 651q0 -104 86 -104q69 -1 106 67q18 35 19 72q0 92 -82 92q-57 0 -93 -34.5t-36 -92.5z" />
<glyph unicode="$" horiz-adv-x="884" d="M115 2q4 6 9 16.5t13 26.5l-2 2q0 2 -2 2q0 4 7 13.5t21.5 19.5t35 18.5t47.5 8.5q29 0 51 -10.5t33 -10.5h12q12 -4 37.5 -13t81.5 -22q2 55 4 124t6 142q-23 14 -50.5 32t-62.5 44l-28 35q-25 18 -40.5 34.5t-26.5 38t-20.5 52.5t-19.5 76q6 29 8 35q-2 4 -2 8t-2 8 q4 25 13 53q14 53 41 133q0 10 7 20.5t16 20t16.5 18.5t7.5 15q8 10 10 17.5t8 16.5t24.5 23.5t61.5 40.5q47 35 74 50q2 53 3 88.5t1 58.5t-2 38t-2 32q0 57 41 57q61 0 67 -61q2 -45 2 -87v-83q4 2 8.5 2t8.5 4q33 12 69.5 16t83.5 14q6 0 11 -2q4 2 16 2q10 0 16 -2 q4 2 11 2q6 0 8 -2l24 -10q25 -6 41 -21t39 -44q2 -8 5 -25.5t6.5 -34t5.5 -30t0 -13.5v2q0 -2 -2 -6t-2 -8t-5 -10q-4 -12 -13 -16.5t-18 -4.5t-15.5 2t-6.5 -2q0 -2 2 -4q-10 -2 -22.5 -2h-22.5q4 0 -4 1t-19.5 3t-21.5 5t-10 5q0 10 -23.5 13.5t-31.5 7.5q-6 -4 -25 -4 h-13t-18 4q-14 -4 -32.5 -6t-45.5 -8l-4 -5q-2 -137 -12 -233l-10 -115q-4 -35 -6 -74.5t-6 -82.5q29 -20 65.5 -48t89.5 -71q10 -12 26.5 -29.5t33 -43.5t29 -57.5t12.5 -72.5q0 -37 -5.5 -69.5t-23.5 -65.5l-70 -72q-23 -12 -71 -21.5t-101 -11.5v-39q0 -43 -3 -67.5 t-3 -30.5q0 -10 2 -31.5t2 -25.5q0 -16 -12 -33.5t-37 -17.5q-23 0 -43 17t-20 40q0 18 3 33.5t3 19.5q-2 39 -2 73v67q-8 2 -16.5 3t-16.5 3q-10 2 -35 3t-49 11q-2 0 -17.5 3t-34 8t-33.5 11.5t-17 14.5l-15 -6q-4 2 -7 4t-7 4l-23 20h-8q-6 0 -10 2h-12q0 4 -2 5h-11 q-4 2 -7 5t-7 5l-12 4v8zM375 668q0 -20 15.5 -46.5t23.5 -46.5q37 -35 63 -57q4 104 8 200.5t9 168.5q-10 -10 -19.5 -20.5t-23.5 -24.5l-11 -15q-20 -29 -42.5 -61.5t-22.5 -97.5zM563 29h21q18 0 42.5 22.5t24.5 42.5h8l21 12l4 17v14l-10 17l-12 12l-25 22l-14 7l-21 14 l-37 20q-2 -45 -2 -92v-96v-12z" />
<glyph unicode="%" horiz-adv-x="1107" d="M109 811l8 68l16 49l19 33l41 45l53 43l63 41l56 22l28 -6l37 -21l19 -8l34 -26l6 -17l13 -12l4 -8l6 -27l6 -20l-4 -4l6 -11l-6 -4l14 -20h7v-49l8 -43l-11 -29l3 -8l-11 -17l-6 -8l-4 -16l2 -25l-10 -18l-21 -23l-24 -14l-23 -21l-12 5l-2 -7l-21 -4l-26 -6l-2 -4 l-43 -12h-29v-6h-20l-4 4l4 6l-4 4l-17 -6l-24 10l-23 4l-22 21l-21 14l-10 12l-31 35v2l-12 25l-6 26zM221 -201l8 72l25 119l37 121l51 129l57 122l117 222l76 118l39 52l125 157l73 78l39 35l43 41l50 33h8l8 -15l-8 -20l6 -4l-14 -33l-5 -2v-2l-12 -18l-35 -41l-14 -13 l-8 -10l-35 -55l-16 -21l-19 -26l-31 -37l-24 -41l-29 -41l-2 -4l-24 -29l-9 -16l-14 -17l-12 -22l-35 -51v-5l-14 -12l-11 -14v-6l-12 -13l-4 -8l-12 -6l-11 -20l-22 -37l-21 -29l-10 -12l-18 -33l-31 -49l-18 -25l-11 -20l-16 -29l-6 -16l-25 -43l-53 -117l-16 -47 l-21 -62l-16 -67v-12l-13 -25l-8 -23l2 -10l-6 -12l-10 2l-2 -8l-8 -6v-2l-17 -19zM285 768l12 -6l47 12l27 14l18 46l8 63l4 51h-6l-33 -53l-12 -14l-41 -66zM512 127l8 43l29 80l20 37l-20 8h-6l14 27l74 71l49 37l74 45l32 17h17l22 12l13 6l4 -2l4 -8l8 8l8 -4v-4l10 -4 l2 -9l13 -2l4 -14l49 -41l16 -12l-4 -17l11 2l6 -12l-4 -8l12 -18l4 -13v-39h-6l-2 -4l-8 -4l8 -41l12 -24l-10 -17l-4 -10l4 -8v-10l-10 -23l-9 -41l-18 -20l-20 -19l-9 -10v-6h4v-8l-10 -9l-18 -16h-6l-11 -16l-28 -25l-43 -22l-23 -7l-8 -4v-2l-25 -6l-61 -20l-57 4 l-33 18l-12 17l-17 2v8l-14 18l-4 2l-19 29l-6 35zM645 66l4 -3l56 17l53 43l43 49l30 66l5 57v12l-7 21v16l-6 4v-10l-20 -23l-15 -20v-6l-12 -6l-8 -19l-4 -2l-19 -26l-8 -7l-8 -20l-10 -6v-6l-6 -4l10 -9l-33 -14l6 -4v-4l-6 -4l-4 -21l-14 -8l-13 -37l-8 -8v-10z" />
<glyph unicode="&#x26;" horiz-adv-x="1081" d="M43 289q0 72 172 203l33 28l223 129l4 13l-12 2l-10 -2l-23 -5l-8 -2l-23 2l-2 -6l-6 -2l-35 2l-26 2l-6 9l-2 24l-9 4l9 29v19.5t-5 21.5q-23 41 -22 168q0 47 37 71l71 33q41 16 82 33.5t88 36.5q4 4 9.5 11t11.5 13q49 61 121 127q27 31 69 58q14 12 30.5 25.5 t35.5 25.5q2 0 20.5 8t20.5 8q6 0 8 -2l6 6q4 0 10 -2q10 -4 27 -6q6 -4 12.5 -8t14.5 -10q12 -14 22 -33q4 -10 8.5 -18.5t8.5 -18.5q2 -8 9 -16t5 -49q-2 -25 -2 -37.5t0 -9.5q2 -2 3 -4.5t3 -4.5q0 -29 -35 -94q10 -2 17.5 -8t13.5 -12q4 -6 6 -11.5t4 -9.5t4 -6h4 q-4 -2 9 -25q2 -8 2 -18v-17.5t-2 -17.5q-12 -4 -25 -10l-18 -18q-10 4 -21 0q-8 -2 -16 -4.5t-19 -8.5q-16 -4 -32.5 -11t-38.5 -17q4 -2 -0.5 -5.5t-12.5 -7.5t-18 -7t-17 -5q-2 -2 -61 -55q-10 -14 -21.5 -29.5t-23.5 -32.5q-4 -4 -4 -11v-11q-2 -14 -4 -27.5t-6 -28.5 q27 -8 67 -28q14 -4 19 -17l-4 -4v-2q-6 -2 -9 -14v-6q-2 -2 -3 -4t-3 -4l6 -15q-10 -6 -18 -14t-16 -17h-2q-6 -6 -11 -16q2 -4 2 -8t2 -10q-2 -2 -3 -4t-3 -5v-6q6 -6 17 -8v-12q-10 -4 -11 -6q0 -8 2 -23.5t13 -40.5q4 -16 10 -20q16 0 61 10q18 12 50 12t47 8 q-2 -2 -4 -2q-2 -2 20 -2q14 0 59 -14q47 -10 48 -18q6 -2 12 -2h10q23 2 43.5 2h42.5l-12 -7q-6 -4 -43 -22.5t-90 -44.5q-8 -4 -20.5 -11.5t-28.5 -15.5q-12 -4 -25.5 -11t-30.5 -15q-16 -10 -40.5 -19.5t-53.5 -21.5q-4 -14 -8 -37q-2 -4 -2 -15q2 -4 4 -7t4 -7 q-2 -2 -2 -6q2 -10 6 -20.5t8 -22.5q4 -18 12.5 -37.5t18.5 -42.5q6 -6 10 -13t6 -22q18 -14 19 -57q-2 -2 -2 -8v-19q-6 -8 -13.5 -15t-15.5 -11h-12q-12 -8 -26.5 -13.5t-35.5 -11.5l-12 -8q-12 12 -37 31q-4 8 -12 17t-16 20q-8 16 -17.5 36.5t-21.5 42.5q-8 6 -31 74 q-10 35 -19.5 53.5t-13.5 24.5q-8 -2 -18.5 -6t-22.5 -8l-2 -2q-14 -4 -29 -13q-2 -2 -6 -10q-6 -2 -12 -2t-14 -2l-9 -8q-23 -4 -46 -8.5t-52 -14.5l-35 -6h-18q-4 0 -8 -2q-8 0 -23.5 3l-31 6t-27.5 6t-15 3q-18 16 -45 31q-2 0 -11 17.5t-13 17.5q-6 0 -9 21.5t-10 21.5 q-102 10 -102 119zM170 236q0 -20 17.5 -36t35.5 -16q2 0 19.5 -6t21.5 -6q20 -4 37 -8q20 4 43 5t51 5q31 12 72 31.5t94 44.5q-6 10 -22 84q-10 80 -21 88q-4 4 -8 18.5t-8 36.5q-11 52 -15 58q-10 -8 -18 -15.5t-18 -17.5q-12 -2 -31 -15q-16 -14 -29.5 -25t-23.5 -20 q-16 -12 -33 -26.5t-39 -30.5q-14 -10 -33.5 -24.5t-42.5 -34.5q0 -6 -8 -16.5t-29 -37.5q-2 -2 -2 -4t-2 -6v-12q-2 -4 -4 -7t-4 -7zM424 868q0 -31 45 -71q55 -49 63 -62q18 16 41 36t52 42q8 10 17 21.5t24 25.5q41 41 59 84q4 6 4 10t2 9l2 4q0 12 -26 12 q-111 0 -220 -61q-63 -33 -63 -50z" />
<glyph unicode="'" horiz-adv-x="307" d="M137 735l8 66l15 63l20 60l41 84l25 39l28 24l23 -2l18 -14l19 -27l2 -31l-4 -39l-23 -96l-20 -63l-8 -21l-15 -26l-20 -43l-8 2l-2 -2l-5 -17l-2 -2l-8 2l-4 -12v-6l-12 -25l-4 -2l-11 -2l-28 -16l-2 -2l-13 18l-8 41z" />
<glyph unicode="(" horiz-adv-x="819" d="M229 375l4 102l13 113l39 145l49 162l51 119l90 170l70 102l55 74l64 61l49 39l22 6l27 -4l6 -2l23 -6l20 -12l8 -23l-6 -28l-6 -25l-25 -45l-34 -55l-48 -86l-36 -88l-56 -117l-22 -55l-47 -99l-23 -63l-14 -45l-17 -43l-24 -45l-10 -39l-17 -86l-6 -41l-8 -64v-141 l6 -29l-6 -6l2 -22l12 -45l2 -37l19 -58l57 -112l33 -49v-9l80 -98v-24l6 -13l-15 -24h-34l-7 -11l-16 7h-6l-12 4l-74 55l-35 37l-63 84l-39 61l-43 84l-23 80l-24 107z" />
<glyph unicode=")" horiz-adv-x="770" d="M49 -186l2 18l29 90l74 135l122 168l54 97l41 90l32 98l23 76l16 90l2 86l-4 72l-16 108l-47 164l-47 141l-27 62l-10 47l-4 37l8 22l14 17h6l15 16h43l41 -21l28 -24l25 -35l86 -154l49 -124l37 -134v-28l6 -31l21 -133v-51l4 -37l-6 -27l-11 -47v-41l-4 -12l-6 -49 l-6 -31l-12 -23l4 -14l-6 -10l-15 -19l-14 -34l8 -9v-6l-20 -43l-13 -22l-24 -35l-15 -21l-18 -34l-16 -31l-39 -57l-4 -17l-25 -6h-6l-10 -25l-35 -43l-43 -51l-70 -47l-20 -18l-64 -51l-26 -29l-33 -12l-17 -23l-18 -12l-35 -21z" />
<glyph unicode="*" horiz-adv-x="796" d="M23 1178q-12 61 100 61h115l-56 55q-31 41 -12 68q31 45 84 45q23 0 41 -8l20 -25q35 -4 121 -37q47 61 49 74q20 49 43 64q16 10 95 34h30q-6 -45 -45 -118q-20 -39 -31.5 -67t-15.5 -48q18 6 94 70q66 53 99 53q43 0 43 -41q0 -18 -70 -94q14 -4 33.5 -9.5t46.5 -13.5 q55 -14 55 -37q0 -68 -176 -67q-20 0 -62 2t-63 2q0 -47 70 -105q43 -37 43 -73q0 -23 -21 -56q-70 2 -118 49q-61 57 -103 74q-18 -29 -49 -72t-76 -100q-76 49 -74 74q0 10 17 43q4 8 9 18.5t13 24.5q-145 -78 -192 -78q-41 0 -19 53q16 47 95 72q86 27 123 63 q-18 8 -144 17q-109 10 -112 33z" />
<glyph unicode="+" horiz-adv-x="972" d="M51 606q-2 98 103 125l223 37q23 6 26 74q-2 23 -2 58.5v86.5v31.5t2 32.5q14 123 158 194q14 -12 34.5 -27t45.5 -38q14 -10 10 -43q-10 -20 -23.5 -51t-31.5 -74q-23 -47 -25 -116t9 -165l239 39q86 0 80 -70q0 -4 -2 -11t-6 -17q-27 -70 -80 -70h-36.5t-29.5 4 q-39 4 -73 0q-141 -29 -160 -155q-2 -18 -2 -40v-44q4 -66 0 -80q-18 -139 -104 -140q-18 0 -48 13q-82 33 -69 141q6 20 13 60t17 100q10 45 -13 63.5t-70 14.5q-18 0 -53.5 -7.5t-57.5 -7.5q-68 0 -74 82z" />
<glyph unicode="," horiz-adv-x="450" d="M-135 -354l94 116l74 107l39 43l34 45l15 39l-17 2l-28 -2l-56 12l-14 33v45l8 37l37 57l29 15l26 12l46 -6l104 -33l33 -16l30 -41l21 -56l-4 -57l-17 -43l-20 -41l-35 -29l-45 -55l-51 -33l-25 -24l-12 -11l-37 -36l-24 -13l-11 -12l-65 -33l-68 -43l-28 -8l-9 12z" />
<glyph unicode="-" horiz-adv-x="849" d="M82 373l20 37l9 12l39 12l63 6l127 17l74 8l71 4l72 2h160l37 -4l14 -8v-10l-29 -9l-2 -10l-10 -2l-29 -16l-4 -15l-22 -10l-27 -22l-53 -17l-31 -10l-6 -8l-31 10l-4 -8l-51 -27l-74 -18l-47 -11l-57 3l-51 -5l-70 9l-39 -9l-22 15v10l-17 18l-8 7l2 34z" />
<glyph unicode="." horiz-adv-x="450" d="M0 104l4 13h4v10l6 10l-4 15l8 8h11l-6 14l10 6l-8 27l8 2l14 -2l4 2v8l15 19l14 10l18 12l62 -27h10l4 5v10l23 4l-9 -19l9 -10l2 -4l4 4v10h8l14 -22l11 8l8 -4l24 -49l13 10l6 -4l8 -10l18 -23l2 -4l-2 -14l6 -15h-6v-6h2l9 -26l-5 -33l5 -14l-11 4v-4l2 -11l-24 -14 l-33 -8l-18 -25l-37 4h-6l-52 17l-51 32l-14 19l-19 4l5 6l-11 12v15l-32 18z" />
<glyph unicode="/" horiz-adv-x="837" d="M41 -160l10 60l21 125l49 178l51 151l88 199l105 211l135 242l106 159l109 148l51 57l45 31l29 16h28l35 -31l2 -24l-2 -25v-24l-33 -66l-55 -100l-65 -111l-45 -69l-56 -88l-243 -445l-11 -41l-20 -20l-56 -115l-20 -53l-12 -17l-27 -65l-18 -8l-13 -27l-57 -139 l-20 -39l-21 -60l-14 -22h-6l-29 -35l-16 2l-21 10z" />
<glyph unicode="0" horiz-adv-x="1150" d="M74 344q2 -12 4 9.5t2 78.5q0 12 4 30.5t8 39t8 39t4 30.5q18 66 50 154q4 14 20 47t45 86q20 37 45 72q4 18 15 37q-2 2 -3 6q0 8 5 24q16 16 36.5 34t47.5 38q53 33 82.5 47t33.5 14q33 0 97 31q23 10 40 17.5t29 11.5q14 6 25 10h47q10 -6 23.5 -13t29.5 -13 q23 -18 49 -35q8 -10 17.5 -20.5t19.5 -24.5q16 -39 47 -76q4 -14 23 -33l4 -12h-2q4 -20 43 -80l9 -22.5t11 -26.5q10 -25 21.5 -64t27.5 -92q6 -20 8.5 -58t2.5 -93q0 -18 -4.5 -52t-8.5 -84q-8 -25 -15 -57.5t-32 -77.5q-4 -12 -10 -24v-9l-14 -18q-8 -10 -17.5 -23.5 t-15.5 -29.5q-10 -12 -20.5 -26.5t-22.5 -31.5l-45 -45q-20 -16 -54 -41.5t-81 -56.5q-51 -29 -142 -51q-35 -4 -49 -6t-4 -2q-41 0 -65 6q-6 0 -60 12q-12 4 -27.5 11.5t-33.5 17.5q-31 10 -58.5 27.5t-64.5 46.5q-10 16 -23.5 31.5t-29.5 37.5q-8 12 -19.5 32.5 t-27.5 49.5q-8 14 -35 170zM254 317l2 -47q2 -10 5 -22t7 -29q8 -6 16.5 -12t18.5 -17q10 -4 19.5 -7t19.5 -11q4 -4 13.5 -4h19.5h19t9 -2q4 -6 13 -6q10 0 39 10q23 4 34 2q10 -2 52 27q39 33 57 32q57 0 117 84q16 23 41.5 57t60.5 81q20 29 39 131q10 43 13 77.5t3 61.5 q0 2 -2 4l-4 12q-4 4 -11 14.5t-24 30.5q-10 20 -120 60q-16 6 -58 4q-39 -2 -55 0q-8 -10 -15.5 -17.5t-11.5 -17.5q-10 -12 -17 -16t-14.5 -7.5t-15.5 -8.5t-24 -17q-29 -20 -37 -21q-12 0 -47 -45q-33 -51 -45 -57q-37 -23 -86 -127q-18 -41 -25.5 -90t-5.5 -107z" />
<glyph unicode="1" horiz-adv-x="704" d="M57 809l25 53l111 117l192 166l176 131l98 59l13 2h30l27 -10l33 -43l8 -6l25 -41l4 -37l-4 -20l6 -6v-25l-6 -25l-7 -28l-34 -74l-25 -43l-12 -6l6 -15l-12 -12l-47 -84l-21 -12l-6 -14l-37 -56l-14 -20l-21 -47l-10 -13l-10 -26l-37 -60l-12 -36l-13 -7l6 -28l-38 -43 v-47l-13 -4l-12 -29l-20 -49v-27l-3 -18l-12 -7l2 -22h-8l6 -12l-20 -99l-4 -36l-13 -19l6 -12l-6 -21l-8 -12v-6l8 -8l-22 -109v-22l-13 -58l-12 -12l-16 -45l-10 -45l-11 -21l-8 -6l-6 8l-12 -14l-15 -6l-20 -27l-12 4v5l2 387l12 149l20 96l19 107l131 381l-90 -68 l-62 -28l-41 -3l-36 7l-46 20l-30 21z" />
<glyph unicode="2" horiz-adv-x="1484" d="M145 156q0 12 6.5 32.5t30.5 65.5q8 4 17 14q8 10 17 22.5t24 28.5q18 18 47.5 49t76 78.5t112 113l153.5 153.5q33 37 92 105.5t121 152.5q41 72 41 71q0 53 -23 54q-4 0 -5 7t-5 7h-47.5t-42.5 -2q-16 0 -64 -12q-2 -2 -5 -3t-7 -3q-20 -6 -43 -13.5t-51 -17.5 q-31 -18 -69 -36.5t-85 -39.5q-53 -4 -61 14q-10 6 -20.5 14.5t-20.5 18.5q-6 29 -8 31q4 16 39.5 46t74.5 52q115 70 238 117q8 0 23.5 4t34 10t35.5 10.5t28 4.5h116q20 -4 42 -9.5t51 -13.5q74 -45 73 -55q0 -10 11 -33q12 -20 8 -29v-20.5t-4 -38.5q0 -23 -2 -33 q2 -18 0 -39q2 -29 -11 -86q0 -23 -14 -65q-4 -14 -9 -26.5t-9 -25.5q-25 -35 -46.5 -63.5t-37.5 -50.5q-10 -10 -24.5 -21.5t-31.5 -27.5q-4 -4 -7 -10.5t-7 -14.5q-6 -2 -74 -76q-16 -10 -43.5 -37.5t-68.5 -70.5l-38 -28.5t-46 -39.5q-4 -6 -10.5 -13t-12.5 -18l-20 -20 l-41 -41t-45 -51q-6 -4 -12.5 -9.5t-16.5 -9.5q-2 -4 -2 -10q29 4 53.5 8t44.5 6h22.5t24.5 3q4 2 8.5 4t8.5 4q47 2 119 12q2 2 10 4h24.5t36.5 2q29 4 48.5 5t35.5 3h17.5t27.5 2l10 -4h62l14 4h60q12 -2 30 -6q12 4 39 6q53 6 84 8.5t39 2.5q41 0 72 -21q10 -4 28 -18 l11 -6l22.5 -22.5t26.5 -29.5v-6q-33 -33 -23 -33h-9t-13 -2h-19q-6 0 -55 -6l-43 -4q-10 -2 -35.5 -6t-70.5 -8q-14 0 -23 -2l-4 -6h-37q-8 -2 -16 -4.5t-19 -6.5q6 0 -7 -3t-46 -11q-12 -2 -24.5 -3t-28.5 -3q-76 -14 -155 -28.5t-167 -37.5q-31 -4 -68.5 -11t-84.5 -17 q-23 -6 -55.5 -12.5t-80.5 -16.5q-49 -12 -59 -12t-28.5 3t-47.5 11q-55 14 -55 25q0 10 -4 14l-8 4q0 8 2 12q-6 6 -6 19l-6 41v12q-2 10 -2.5 19.5t-0.5 23.5q-2 6 -2 25z" />
<glyph unicode="3" horiz-adv-x="972" d="M-59 -115l10 17l-2 20l37 47l51 21l33 20l145 86l33 17l301 163l22 25l-84 2l-98 14l-39 23l-31 35l-18 18l-18 25l-7 47l21 45l12 4l17 25l30 34l136 111l79 72l58 67l28 45v25l-82 -2l-49 -12l-61 -11l-113 -30l-84 8l-59 22l-23 19l-6 28l6 29l41 45l52 27l163 59 l150 29l84 2l63 -12l45 -23l35 -31l37 -55l18 -31l5 -47l4 -51v-20l-15 -31l-26 -19l-47 -51l-33 -12l-39 -33l-33 -39l-20 -10l-6 -14l-39 -29l-13 -12l-37 -39l84 -23l91 -35l75 -59l33 -35l29 -51l-6 -51v-47l-13 -19l-26 -20l-4 -12l-37 -5l-2 -12l-19 -12l-16 -8 l-16 -21l-39 -16l-56 -29l-18 -12l-8 4l-17 -10l-35 -13l-20 -18l-45 -6l-37 -14l-59 -27l-52 -21l-22 -16l-12 4l-21 -6l-43 -6l-145 -60h-21l-39 -16l-12 4l-39 17l-20 -13l-19 -10z" />
<glyph unicode="4" horiz-adv-x="1208" d="M43 459v47l29 90l67 182l84 221l58 187l10 4l49 43l18 6l17 -8l16 -29l-6 -43l-45 -78l-25 -86l-86 -204l-22 -142v-67l6 -56l23 -18l81 10l95 23l73 297l78 258l49 125l11 36l63 39h12l23 -20l20 -66l-10 -90l17 -14l-13 -64l-33 -133l-81 -288l20 4l43 18l45 8l47 23 l88 24l15 7l26 6l131 30l47 13l125 26l113 21h14l8 -10l-2 -15l-16 -35l-37 -22v-31l-205 -76l-34 -18l-117 -47l-6 -12l-135 -52l-209 -88l-7 -14h-14l-22 -27l16 -24l-23 -68l-34 -16l4 -23l-15 -63l-28 -105l-33 -123l-39 -104l-12 -49l-25 -55l-16 -29l-12 -45l-17 -29 l-8 -4l-4 68l-14 -13v92l8 62l22 209l43 241v31l-59 -12l-39 12l-66 4l-63 27l-23 12l-26 25l-29 35z" />
<glyph unicode="5" horiz-adv-x="1050" d="M139 43q0 10 11 12v2l14 9q-2 0 20 14q16 10 29.5 19.5t26.5 15.5q16 14 32.5 21t38.5 22q90 51 172 133q12 14 35 34.5t51 49.5q0 2 2 6t2 6q0 10 9.5 36t9.5 36q0 20 -19 41q-63 35 -100 35q-10 0 -31.5 1t-60.5 3q-72 6 -90 0q-10 0 -31.5 5t-30.5 5q-2 0 -39 26 q-47 70 -47 91q0 20 13.5 51t36.5 76q14 20 34.5 58t48.5 91q-4 16 -4 33l4 14q-2 10 -2 20.5v24.5q0 12 25 51q47 74 47 97q-18 18 -18 37q18 18 57 18l12 -2q6 2 14.5 2h18.5q10 -2 23.5 -4t29.5 -6l9 -4h26q2 -2 3 -2t3 -2h13q4 2 6 2t6 2q14 -2 31.5 -2t40.5 -2q6 0 8 2 q10 -2 22 -2q2 2 8 2q8 0 11 -2l14 4h13.5t17.5 -2l59 6q74 4 104.5 6t20.5 2h14q20 0 46 7t32 7q4 0 15.5 -4t24.5 -9t25.5 -10t14.5 -7q4 -4 8 -7.5t8 -9.5q2 -6 4.5 -13t4.5 -13l-25 -39q-10 -8 -22.5 -15.5t-28.5 -17.5q-6 -4 -16.5 -11.5t-24.5 -13.5l-8 -4v-4l-10 -6 q-6 -2 -8.5 -9t-4.5 -7q0 -10 -20 -31q-12 -2 -27.5 -2h-32.5q-20 -2 -92 -6q-29 -4 -54.5 -2t-49.5 4q-12 2 -33 5t-49 9q-23 -14 -49 -41q-12 -6 -24.5 -15t-29.5 -22q-6 -8 -36 -28q-29 -74 -74 -144q-6 -14 -13.5 -23.5t-13.5 -17.5q-4 -10 17.5 -30.5t38.5 -20.5 q6 0 20 -2t29.5 -5t30 -5t22.5 -2q10 -4 33.5 -11.5t64.5 -21.5q59 -18 148 -90q6 -10 12 -19.5t16 -19.5q4 -2 10.5 -16.5t20.5 -38.5q0 -4 1 -10.5t3 -16.5q20 -47 21 -80q0 -4 -4.5 -13t-4.5 -11q-4 -12 -10 -26.5t-12 -31.5q-8 -16 -27 -47q-6 -6 -26 -37l-52 -37 l-67 -49q-10 -10 -21.5 -19t-27.5 -20q-4 -2 -12.5 -6t-18.5 -8q-33 -20 -65.5 -35.5t-67.5 -25.5q-51 -14 -41 -15q-18 0 -29 6q-39 2 -125 37q2 0 -47 27q-29 18 -28 24q0 6 8 13q-10 4 -13 16q0 -4 3 -4q0 2 -3 4q-2 2 -2 4t-2 4q-4 -8 -2 -24q-2 -2 2 -25z" />
<glyph unicode="6" horiz-adv-x="888" d="M66 221l14 109l33 104l47 94v9l80 149l59 100l12 13l15 28l32 43l23 33l49 66l27 30l12 13l35 51l164 166l143 114l53 25l27 -10l20 -10l4 -33l7 -17l-25 -26v-12l-14 -25l-35 -39l-21 -45l2 -10l-20 -23l6 -8l-27 -10l3 -13l-7 -8l-20 -26v-17l-8 -8l-13 4l-6 -8 l-22 -10l-4 -19l-35 -39l-45 -55l-39 -57l-33 -35l-14 -31l-53 -80l22 -10l37 6l45 -14l12 -21h25l29 -12l38 -39l15 -51h2l8 -22h16l2 -31l7 -2l-9 -13l15 -18l6 -53l10 -6v-33l-6 -6v-31l-2 -23l2 -28l-2 -15h-12l4 -30l-8 -15l4 -14l-15 -8v-41l-37 -27l-18 -45l-27 -16 l-16 -23l-37 -34l-27 -23l-47 -31l-12 -20l-37 -17l-33 -8l-18 -18l-84 -29l-63 -2l-80 21l-31 14l-20 20l-41 56l-5 14l-18 41l-18 82zM264 201l8 -4v-29l-2 -74l17 -51l43 -12l49 24l65 56l60 57l26 53l21 84l-4 121l-19 53l-24 25l-12 10l-15 -2l-24 14l-21 -4h-26 l-19 -12l-14 4l-13 -25v-6l-14 -20l4 -8l-16 -13v-6l-12 -43l-9 -2l-14 -49l6 -10l-8 -13l-12 -43l-11 -26l7 -25z" />
<glyph unicode="7" horiz-adv-x="976" d="M51 1149q0 16 62 63q20 10 45.5 21.5t54.5 28.5q31 10 66.5 20t78.5 23q23 10 105 31.5t225 54.5q27 8 70 8q20 0 71 -21q49 -18 62 -32q35 -35 35 -33q0 -76 2 -74q6 -25 8 -47.5t2 -42.5v-28.5t-2 -30.5q2 -8 2 -25q0 -8 -2 -12q2 -2 2 -15l-12 -46t-17 -56v-12 q-8 -20 -20 -62l-35 -94q-20 -27 -29 -66q-18 -29 -34 -65q6 -10 10 -17.5t10 -15.5q0 -29 45 -31h33l10 -20q2 -8 4 -19.5t6 -31.5q2 -2 2 -17q0 -8 -6 -21t-15 -25.5t-18.5 -21.5t-17.5 -14q-4 0 -16.5 -11t-18.5 -11q-4 0 -21.5 -8t-21.5 -8q-8 0 -12 2q-4 -2 -8 -2 t-11 -3q-10 -6 -20 -10l-25 -10q-4 -4 -17 -9t-36 -14q-12 -8 -29.5 -14t-39.5 -14q-6 -14 -12.5 -28.5t-16.5 -31.5q-2 -6 -6 -22q-10 -23 -26.5 -65t-41.5 -99q-2 -4 -4 -10t-8 -17q-6 -6 -11.5 -16t-7.5 -27l-5 -5t-5 -7l-12 -49l-5 -5t-5 -9q-23 -59 -52 -60 q-6 0 -17 -8t-15 -8t-4 2q-2 -2 -9 -2q-6 12 -2 29v14q2 14 7.5 36.5t13.5 55.5q4 18 21.5 73.5t50.5 149.5q-27 -2 -60 58q-35 63 -59 57q-6 0 -11.5 10t-11.5 10q-12 0 -12 123q0 29 20 25q10 0 125 45q61 23 101.5 34t60.5 15q16 39 44 102.5t67 151.5q66 160 71 266 l4 74q6 12 7 23q0 23 -25 22l-92 -18q-59 0 -246 -52q-16 -2 -37.5 -7t-44.5 -9q-16 -4 -35.5 -6t-42.5 -6q-20 0 -41.5 -2t-48.5 -4q-23 -14 -51 -15q-4 0 -10 9.5t-12.5 21.5t-10.5 23.5t-4 15.5z" />
<glyph unicode="8" horiz-adv-x="1015" d="M59 -20l7 32v29l12 61l55 144l21 39l24 63l90 160l-24 22l-45 50l-41 61l-17 51v33l21 51l24 39l93 100l135 111l180 111l78 41l37 12l49 12l45 -10l28 -23l35 -63l-12 -25l-8 -12l6 -14l35 -6l4 10l35 10l6 -2l31 6l77 8l39 6l8 -2l13 9h39v-13l-13 -2l7 -10h24v-8 l-24 -6l-9 -13l-32 -20h-17v-4l4 -8l-4 -21h4l54 -6v-8l-86 -25l-82 -30l-13 -5l-10 -12l-41 -16l-94 -53l-43 -31l-45 -27l-33 -33l-39 -30l-26 -27l-46 -29l-6 -26l-12 -4v-13l-22 -45l-5 -22l27 -25l88 -65l107 -101l57 -82l18 -30l19 -41l8 -33l4 -47l-4 -27l-12 -8 l-51 -51l-39 -25l-80 -55l-31 -16l-25 -9l-47 -24l-98 -27l-129 -14l-125 -10l-31 10h-32l-25 20l-33 15l-6 12zM279 96l12 -20l6 -27l51 -12h43l8 6h52l26 6l84 12l86 29l33 23l-8 22l-19 49l-59 66l-98 84l-82 65l-2 -2l-25 -37l-33 -59l-6 -31l-8 -8l-6 -24l-23 -43 l-2 -17l-24 -65zM338 715l10 -23l31 -22l98 104l53 60l123 102l66 41h20v12l62 29v8h-31l-27 4l-16 -4l-18 -6l-19 -2l-31 -12l-26 -19l-29 -18l-41 -25l-41 -37l-78 -67l-65 -62v-4l-19 -26l-8 -9z" />
<glyph unicode="9" horiz-adv-x="1015" d="M88 813v37l16 68q16 23 35 54.5t35 53.5q66 78 129.5 130t122.5 81q133 66 172 68q66 18 117 18q86 0 102 -14q16 -4 36.5 -17.5t49.5 -34.5q27 -12 70 -47l12 -12q20 -23 21 -74q0 -25 -15 -88q-10 -61 -22 -82q0 -8 -15 -45q-10 -27 -14 -41t-8 -18q-10 -23 -12 -23 q-4 -18 -13 -26q-25 -51 -37 -68l-18 -43v-6l-6 -4q-10 -37 -76 -195q-23 -53 -46.5 -98t-43.5 -80v-6q-20 -35 -36.5 -61.5t-31.5 -42.5q-29 -51 -51 -88t-43 -66q-23 -16 -30 -25.5t-3 -9.5q-2 0 -7 -13t-13 -18l4 -8q-23 -23 -37 -38t-22 -21q-18 0 -23 16q-4 25 25 58 q12 12 34 61q14 33 25.5 54.5t15.5 35.5q10 23 19.5 42.5t15.5 35.5q29 82 46.5 123t23.5 51q4 10 9 24.5t15 30.5q10 25 17.5 41.5t9.5 22.5q4 14 10 32.5t9 30.5l-5 9q-10 -6 -20 -11.5t-25 -9.5q-33 -27 -49 -29q-16 -6 -28.5 -8t-22.5 -4q-6 0 -10 2q-39 -12 -82 -12 h-94q-6 2 -13.5 4t-19.5 8q-2 -2 -12 -2q-10 4 -19.5 9t-19.5 10q-4 4 -9.5 6t-7.5 4q-25 10 -59 61q-20 29 -49 76q-16 37 -22.5 69.5t-6.5 61.5zM260 776q-6 -6 1 -25.5t25.5 -39t44 -32.5t56.5 -9q-2 0 37 -6q35 -8 57 -5q29 6 50.5 10.5t37.5 8.5q20 10 37 15t29 9 q16 16 28.5 29.5t20.5 24.5q16 25 29.5 46t27.5 42q25 74 31 127q10 16 10 104q0 33 -26.5 53.5t-59.5 20.5q-6 0 -141 -43q-12 -8 -23 -12q-10 -6 -21 -11.5t-22 -7.5q-18 -10 -48.5 -36.5t-73.5 -67.5q-27 -29 -76 -148q-16 -43 -23.5 -54t-7.5 7z" />
<glyph unicode=":" horiz-adv-x="460" d="M137 80v4q2 82 76 111q25 8 57 -13q58 -37 58 -98q0 -35 -26 -72t-58 -49q-14 -8 -27 -8q-25 0 -49 37q-31 43 -31 88zM197 571q0 109 79 148q33 16 60 -4q57 -39 57 -113q0 -37 -24.5 -76t-57.5 -55q-16 -14 -35 -14q-27 0 -47 32q-31 43 -32 82z" />
<glyph unicode=";" horiz-adv-x="407" d="M-135 -252q0 4 10 35l10 27l113 155q12 23 41 66q-6 4 -14 12q-20 14 -21 49q4 16 6 37q2 6 4 13.5t4 15.5q6 10 12.5 23.5t12.5 27.5q4 4 11 12t18 19q4 2 32 2q4 0 15.5 -3t25 -8.5t24.5 -9.5t13 -8q46 -33 60 -84q0 -33 -29 -119q-8 -10 -21.5 -28.5t-33.5 -47.5 q-14 -10 -26.5 -24t-27.5 -31q-14 -16 -36 -43q-18 -10 -27 -22q-49 -33 -96 -78q-6 -4 -14.5 -8t-18.5 -11l-12 15l-17 14q-2 -2 -16 -2q-2 0 -2 4zM47 592q0 33 53 121q25 40 84 30q51 -8 89 -42.5t36 -84.5q-4 -53 -102 -147q-27 -14 -47 -12q-43 8 -78 49t-35 86z" />
<glyph unicode="&#x3c;" horiz-adv-x="907" d="M215 649q0 76 102 99q16 2 44 7t69 13q23 4 56.5 17.5t74.5 33.5q47 23 81 37t50 21q4 2 23.5 12t54.5 33q61 35 76 32q37 -2 47 -77q8 -82 -35 -111q-25 -16 -166 -57q-70 -18 -119 -38t-81 -40q8 -10 44.5 -46t106.5 -102q100 -94 100 -164q0 -43 -36 -90 q-29 23 -170 183q-99 114 -199 141q-123 37 -123 96z" />
<glyph unicode="=" horiz-adv-x="1134" d="M113 616l34 33q57 70 293 70h328q18 0 53 2t49 2q88 2 88 -74q0 -51 -26 -86q-31 -45 -78 -35q-6 0 -16.5 8.5t-20.5 17.5t-18 17.5t-13 10.5q-43 18 -135 18h-71h-17.5t-23.5 -2h-29q-47 0 -102 -14q-133 -33 -168 -33q-80 0 -127 65zM147 270q0 43 60 68q47 18 96 18 l19 -16q55 0 131 -6q90 -8 145 -11.5t78 -3.5q-6 0 3 0t36 3h37q141 31 200 30q111 0 111 -84q0 -74 -125 -73q-20 0 -58 3t-59 3q-47 0 -118.5 2t-170.5 6q-98 4 -169.5 7t-118.5 3q-14 -2 -25.5 -3t-19.5 -1q-51 0 -52 55z" />
<glyph unicode="&#x3e;" horiz-adv-x="862" d="M213 893q0 37 47 61q23 -2 62 0q37 12 59 13q39 0 55 -41q25 -63 41 -80q53 -57 191 -109q152 -55 194 -92q-6 -8 -12 -15t-12 -18q-12 -23 -22.5 -41t-16.5 -30q-8 -14 -13 -23q-26 -45 -73 -80q-104 -84 -113 -86q-74 -70 -92 -123q-29 -78 -82 -77q-31 0 -51.5 34.5 t-20.5 67.5q0 78 154 207q98 84 98 110q0 29 -37 60q-113 94 -278 168q-78 35 -78 94z" />
<glyph unicode="?" horiz-adv-x="907" d="M135 80q0 16 25 61q0 12 2 21q4 2 8 3t8 5v6q4 4 9.5 10.5t13.5 14.5q4 4 10 8l12 8q2 2 35 -2q2 0 33 -10l6 6q2 -2 4 -2q4 -4 7 -8t7 -8q2 2 9 2q20 -20 26 -43q2 2 6 2q0 -2 2 -4l17 -33q0 -8 -2 -13q0 -43 -15 -84q-10 -8 -25.5 -20t-33.5 -31q-4 -4 -27 -4h-6 q-29 6 -37 15q-8 6 -17 13t-19 15q-6 6 -19 23q-6 6 -8 10v10q-8 6 -15.5 13.5zM213 1182q0 16 27 49q14 25 65 63q6 6 125 76l31.5 13.5t38.5 17.5q27 10 82 24q25 8 88 9q10 0 75 -17q4 -2 15.5 -7t30.5 -15q33 -16 83 -68q8 -12 29 -61q19 -39 19 -82q0 -6 -7 -35 q-4 -8 -6 -15.5t-4 -17.5q-12 -14 -27.5 -33.5t-31.5 -42.5q-6 -8 -17.5 -18t-27.5 -23q-4 -4 -9.5 -10t-11.5 -14q-35 -33 -61.5 -59.5t-46.5 -49.5q-4 -4 -9.5 -8t-11.5 -8q-12 -14 -39.5 -42t-68.5 -71q-2 -2 -14.5 -16t-34.5 -43q-4 -4 -9.5 -12.5t-13.5 -18.5 q-10 -16 -29.5 -42.5t-48.5 -65.5l-16 -43q-14 -39 -19 -39q-25 0 -20 -4q-2 -2 -8 -2v10q4 0 14 10q-2 2 -2 6q0 -4 4 4v6l2 2q-2 6 0 19q2 12 17 37q4 18 12 43q2 10 5 27.5t11 39.5q16 74 62 162q20 37 38.5 74t38.5 76q63 121 64 135q0 88 -37 88q-4 4 -8 12t-16 6 q4 10 -3 11l-8 -5q0 2 -4 3q-88 -27 -168 -62q-70 -49 -76 -49q-12 0 -38 14q-4 4 -17 23q-2 2 -6 26q0 8 -2 13z" />
<glyph unicode="@" horiz-adv-x="1454" d="M68 389q23 139 79 260t142 230q96 123 210.5 185t243.5 73q141 6 255 -25t202 -102q92 -78 141 -179.5t39 -234.5q-8 -84 -25.5 -163t-47.5 -152q-16 -29 -53 -71t-105 -99q-154 -131 -184 -172q-45 -59 -64.5 -91t-23.5 -36q-33 -35 -62 -52.5t-63 -19.5q-35 -4 -73 0 t-85 14q-66 14 -104.5 20.5t-45.5 10.5q-117 12 -198.5 64.5t-124.5 138.5q-86 168 -53 401zM219 257q2 -73 29 -134q29 -72 76 -118t122 -66q47 -12 99.5 -19.5t101.5 -7.5q219 0 354 145q-25 20 -59.5 41.5t-85.5 44.5q-59 10 -86 -22q-66 -55 -88 -64q-57 -31 -119 -30 q-61 0 -110.5 27.5t-79.5 86.5q-33 47 -43.5 104.5t0.5 123.5q16 162 151 266q57 57 129 85t150 28q258 0 215 -285q-12 -96 -8 -133q2 -55 92 -49q117 12 149 159q0 31 2 75t-8 101q-2 78 -31.5 140.5t-79 107.5t-117 68.5t-147.5 23.5q-119 0 -220 -39.5t-179 -111.5 t-130 -171t-71 -218q-10 -86 -8 -159zM473 389q-20 -162 145 -221q4 14 25.5 75.5t52.5 172.5q16 27 20.5 52.5t10.5 49.5q4 43 -2 63.5t-33 20.5t-84 -29q-61 -39 -93 -84t-42 -100z" />
<glyph unicode="A" horiz-adv-x="841" d="M23 -59q0 33 14 74.5t43 129.5l35 109q4 10 12 28.5t12 39.5q-2 16 -6 36q2 8 3 13.5t3 11.5t6.5 16.5t10.5 28.5v2q16 12 26.5 23.5t26.5 46.5q2 8 16.5 46t50.5 116q41 86 83 169.5t69 161.5l8 19q4 6 15.5 30.5t31.5 69.5q4 10 13 18l16 32t22.5 38.5t27 32.5t26.5 14 q25 0 42 -7t52 -15q37 -23 54.5 -43.5t24.5 -41t9 -41t10 -44.5v-74q-2 -14 -2 -26.5t-1 -39t-5 -73.5t-14 -131q0 -16 -4 -28.5t-8.5 -30t-8.5 -45t-5 -77.5l-1 -2q-4 -6 -6 -26q2 -2 2 -6l-4 -13l-4 -12q0 -6 11 -17.5t11 -17.5q-2 -6 -2 -12q2 0 2 -2q-2 -10 -8.5 -19.5 t-11.5 -15.5q2 -10 2 -22q-2 -2 -2 -4.5t-2 -6.5q0 -10 2 -16q-2 -6 -1 -20.5t-7 -22.5q2 -10 2 -19.5t4 -19.5q-2 -6 -2 -20q2 -4 2 -8.5t2 -8.5q-2 -2 -2 -6q0 -8 2 -14q-2 -6 -2 -23q2 -23 7 -53.5t5 -63.5v-10q2 -8 1.5 -16t2.5 -19q0 -8 -3 -14v-12q0 -8 -1.5 -26.5 t-1.5 -27.5q2 -4 2 -16q4 4 -1 -5t-13 -23.5t-15.5 -28t-7.5 -19.5l-4 -2q-4 0 -10 6l-2 -10l4 -20q-4 -4 -6 -4t-6 12t-8.5 29.5t-9.5 37t-9 35.5v6q-12 53 -24.5 116t-22.5 132l-18 13q-16 27 -40 51t-63 59q4 2 -5 0t-24 -6l-36 -8h-2q-25 -2 -53.5 -6t-63.5 -9 q-23 -47 -37 -94t-31 -98l-6 -19l-4 -12l-8 -26q-2 -4 -4 -11.5t-6 -17.5l-15 -35q-10 -23 -18 -63q-25 -25 -39 -34t-31 -9q-25 0 -47 30.5t-22 55.5zM362 471h46q23 0 61.5 3t93.5 7q6 6 9 56.5t4.5 110t2.5 112.5t1 61v21.5t-2 46.5q0 4 -1.5 16.5t-5.5 26.5q-4 16 -8 33 v2q-10 0 -35.5 -59.5t-83.5 -209.5q-2 -2 -11 -21.5t-22.5 -50t-26.5 -71.5t-22 -84z" />
<glyph unicode="B" horiz-adv-x="946" d="M80 -23v89l49 315v35l14 47v41l11 39l-2 6l8 24l2 21l31 188l-9 19l-20 26l-2 29l-8 16l-2 19l16 18l8 19l-6 6l33 39l16 10l31 37l69 53l13 2l51 31l16 4l33 20l82 25l33 4l12 6l29 6h24l17 5l82 -2l45 -11l43 -8l63 -31l53 -37l19 -24l20 -64l2 -24l-8 -14l6 -5v-43 l-6 -18l-24 -37l-11 -6l-2 -16l-10 -19l-20 -6l-37 -57l-35 -27l-8 -14l-19 -8l-20 -27l-51 -49l-25 -15l-16 -16l-2 -12l-25 -21l86 -16l72 -25l22 -10l27 -22l16 -37l15 -54l-2 -14l-7 -10l-20 -53l-25 -37l-12 -8l-2 -7l-45 -55l-8 -4l-2 -12l-15 -6l-8 -11l-30 -22 l-11 -15l-24 -8l-21 -22v-4h-16l-10 -9l-2 -20l-23 -12l-29 -6l-6 -13l-33 -10l-30 -2l-19 -18l-10 -3l-14 -10l-21 -10l-20 -2l-15 -16l-12 -7l-6 2l-8 -4l-19 13l-30 -27l-17 2l-2 6l-16 2l-15 -10v-6h-6l-10 8l-10 -2l-6 -22l-17 2l-20 -13l-27 -12l-6 6l4 12l10 -6l7 23 l10 2l2 4l20 4v14l9 15l18 4l6 8l35 25l47 41l16 6l43 34l64 35l41 47l14 9l35 24l39 35l24 12l3 11h8v6l22 20l19 6l16 15l57 53l9 12l-9 15l-73 12l-15 -2h-37h-63l-74 -10l-32 -13l-21 2l-59 -8l-19 -12l-26 -39h-9l-22 -27l-6 -14l-19 -33v-16l-16 -41l-8 -8l-17 -47 l-8 -56l-6 -6l-10 -63l-17 -27l-4 -25l-26 -26l-4 -10l-23 10l-23 4zM410 629l41 4l28 10l162 88l37 29l65 47l50 53l16 25l-2 12l-12 10l-31 11h-45l-80 -17l-55 -18l-41 -21l-72 -47l-31 -10l-14 -43l4 -14v-37l-6 -15z" />
<glyph unicode="C" horiz-adv-x="811" d="M72 203l10 71l10 23v22l6 9l6 41l15 24l22 53l74 121l18 19l11 22l137 170l16 13l2 10l154 160l33 20l63 63h10l7 9l34 20l17 19l12 2v-4h41l37 -23l29 2l10 -4l12 -33l29 -53v-39l-13 -29l-14 -20l-18 -17l-66 -24l-35 -37l-51 -74l-22 -22l-95 -113l-34 -57l-17 -15 l-2 -8l-41 -59l-6 -2l-47 -64l-43 -71l-25 -49l-26 -86l-6 -60l2 -33l22 -39l37 -24l41 -10l55 -4l129 12l4 -10h9l-7 -11l15 -6l-6 -6l2 -8h-8l-7 -8l9 -2l2 -15h-9l-18 -10l-63 -22l-5 2l-65 -21h-55h-97l-71 25l-58 34l-49 43l-31 46l-26 77z" />
<glyph unicode="D" horiz-adv-x="1015" d="M43 2q2 2 3 5t3 7l4 17q8 16 17.5 36.5t19.5 43.5l6 108v6q0 2 4 23l4 35q6 35 11.5 61.5t12.5 65.5t16.5 97t23.5 155l6 6l14 61q-6 -12 -2 9.5t12.5 52t16.5 58.5l8 28l6 18q0 16 8.5 41t10.5 53q2 47 10 69.5t18.5 32t19.5 10.5t15 5q0 2 10.5 12t27 21.5t34.5 20.5 t33 9h11t13 -4q14 4 26.5 5t39.5 12q6 0 10 -2q2 0 3 2t5 4q8 -2 21 -10q20 -12 78 -31q14 -4 21 -4t21.5 -8.5t45 -30t90.5 -66.5q8 -8 18 -15t22.5 -18.5t27 -31t30.5 -53.5q4 -16 4 -14.5t4 -1.5t14.5 -22.5t30.5 -74.5q4 -19 16 -57q9 -29 10 -70q0 -13 -1 -27 q-2 -23 -6 -45t-17 -49l4 -4q0 -10 -5 -31.5t-18 -51.5t-34.5 -64.5t-56.5 -71.5q-23 -37 -52.5 -69t-62.5 -59.5t-67.5 -55t-67.5 -58.5q-14 -2 -34.5 -20.5t-86.5 -53.5l-8 -6q-25 -8 -47.5 -19t-63.5 -34q-18 0 -32 -2q-12 -2 -22.5 -5t-10.5 -7l-21 -4q-10 -4 -21 -6.5 t-26 -6.5q0 4 -6 9q-10 6 -27 12q-2 -2 -6 -2l-10 2q-2 -2 -10 -2q-2 2 -3 2t-3 2q-4 -4 -9 -4q-4 0 -14 12v-4h-2q-4 0 -4 -2q-10 8 -14 20l-2 -2l2 -2h-7l-5 5t-5 3q-2 2 -10 -2l-4 -4h-23l-2 4h-8q-6 4 -6 27zM264 156q0 -10 1 -23.5t1 -30.5q37 14 56.5 20.5t31 10.5 t20.5 8t26.5 14.5t50 31t92.5 57.5q61 45 106 85t78 82t51.5 86t26.5 97q2 10 3 18.5t1 16.5v29.5t-4 23.5q-2 10 -11.5 46t-52.5 116l-36 43q-20 18 -42 30.5t-47.5 22.5t-56.5 19.5t-72 23.5q4 0 -8 -6t-28.5 -14.5t-29.5 -18.5t-13 -20q-4 -10 0 -29q-6 -20 -10.5 -45 t-10.5 -51l-2 -23q-6 -12 -12 -51t-19 -107l-4 -10l-6 -43q-2 -12 -6 -36.5t-14 -59.5q-2 -23 -8.5 -42t-12.5 -44t-13 -62.5t-14 -97.5l-4 -12l-2 -29q0 -4 -3 -13t-3 -13z" />
<glyph unicode="E" horiz-adv-x="999" d="M139 358q4 35 9.5 83t15.5 114q0 20 3 34.5t12 42t24.5 77t38.5 139.5l-6 12q-10 20 -21 62q6 4 16 14v6l11 10q-2 2 -2 9q4 18 34 57h5l14 14q10 10 27.5 23.5t27.5 29.5q-6 4 -6 31q44 28 61 28h1q18 -1 32 -1q4 -2 9.5 -2t9.5 -2h6q6 0 9 -1t7 -1h4q16 0 46 3t71 3h72 q10 -2 19 -2t20 -2h139q10 -2 33 -2h-2q0 4 33.5 2t77.5 -7.5t85 -14.5t55 -23v-13q-18 -18 -54 -23t-54 -7q-10 -4 -25.5 -2t-33.5 -9q-2 2 -9 2l-20 -12q-10 -10 -14.5 -9t-16.5 -3q-6 0 -10 2l-39 -12l-29 -9l-18 -4q-2 2 -8 2q-6 -6 -27.5 -6t-38.5 -2h-8q-4 0 -13.5 -4 t-11.5 -4q-25 -6 -35 -5t-15 3t-9 1t-16.5 -9t-37 -26.5t-71.5 -53.5q-2 -2 -24.5 -17.5t-42.5 -39.5q-2 -8 -13.5 -29t-24 -46.5t-22.5 -54t-10 -55.5q0 -6 4 -10l66 4q16 2 36.5 2t46.5 2q10 0 20.5 -1t22.5 -1q10 0 22.5 1t25.5 1q14 -4 27.5 -4h41.5l8 -4l56 12h-2 q27 0 34 -8v-4q2 -2 3 -39l-23 -14l-16 -6l-7 -7l-28 -6q-6 -6 -29 -14l-29 -12q-6 -6 -39.5 -13.5t-113.5 -21.5q-8 -10 -23.5 -26.5t-33 -32t-34 -30t-26.5 -22.5q-10 -23 -29 -45q-6 -2 -16 -3t-21.5 -3t-19.5 -7t-8 -15q0 -72 24.5 -100.5t79.5 -33.5l2 -24l11 -8h43 l63 8l80 14l37 10l76 19l2 -6q2 -2 2 -6q-2 -6 -2 -13l2 -2v-4q0 -6 2 -10q-8 -8 -10 -12l-2 4q0 -8 2 -13q-8 0 -6.5 -11t-14.5 -28v-4q-4 -8 -5 -15t-19 -30v-8q-31 -14 -50.5 -23.5t-39 -14.5t-43 -9t-62.5 -6h-27q0 -2 -2 -2h-4q-8 0 -39 6q-23 4 -33 3t-20 2 t-27.5 11.5t-54.5 30.5l-10 12q-14 14 -26.5 25.5t-25 35t-25.5 64.5t-32 113q2 6 2 20q0 6 -1 18.5t-3 22.5z" />
<glyph unicode="F" horiz-adv-x="886" d="M51 25q0 41 3 71.5t11.5 74.5t23.5 115.5t40 192.5q-6 12 -6 23q0 12 5 21t9 18q0 -10 6.5 14.5t15.5 68.5t20 98t23.5 106.5t25 93.5t22.5 57q0 8 -1 14t-1 15q0 53 15.5 82.5t53.5 29.5q37 0 54.5 -3t27 -7t15.5 -7t18 -3q35 0 101.5 15t135 32.5t124 33t67.5 15.5 q14 0 33.5 -9t37 -22.5t30 -31t12.5 -33.5q0 -33 -36 -54.5t-85 -21.5h-16q-2 2 -4.5 9t-7.5 14.5t-15 13.5t-29 6q-29 0 -59.5 -5t-58.5 -15q-12 -4 -37 -11.5t-55.5 -17.5t-65.5 -23.5t-68 -31.5q-8 -43 -22.5 -106.5t-34.5 -149.5q-4 -51 -21 -89q0 -27 10.5 -44 t24.5 -17q10 0 117 33q10 4 32.5 12t52.5 17.5t66.5 16.5t73.5 7q25 0 39 -9t14 -40q0 -6 -22.5 -18.5t-54.5 -26.5q-33 -12 -47.5 -18.5t-36 -12.5t-61.5 -17.5t-126 -33.5q-10 -2 -23.5 -4t-29.5 -10.5t-34.5 -24.5t-39.5 -47q-20 -86 -33.5 -163t-28.5 -135t-35.5 -92 t-57.5 -34q-10 0 -17 2q-2 0 -16 7t-30.5 17.5t-30 21.5t-13.5 20z" />
<glyph unicode="G" horiz-adv-x="1142" d="M49 358q0 35 3 72t14 72l14 45l55 119l27 41q41 78 73.5 127t64.5 84.5t65.5 63.5t72.5 62l70 62l37 12l33 25l38 6q29 10 56.5 17.5t56.5 11.5l4 4l8 -2l37 10l66 8l20 -6h23l37 -16l-2 -64l10 -14l-8 -23l-35 -35l-33 -12h-6l-14 -6h-35l-15 10q-8 0 -14 -1t-14 -1 l-35 -14h-37l-43 -27l-18 -16l-7 -17l-14 -10l-94 -110l-59 -50q-8 -18 -8.5 -27t-1.5 -18.5t-6 -19.5t-21 -33l-66 -70q0 -4 -2 -18t-6 -31.5t-8 -34t-10 -22.5l-27 -35l-4 2q-6 -12 -6 -23.5t1 -20.5t1 -16t-6 -13q-4 -25 3 -37.5t5 -28.5q6 -23 10 -29t16 -28 q8 -16 9.5 -24.5t2.5 -12.5t5 -7t16 -10l19 -22l32 -25l56 -12q8 2 14 2t14 2l60 4l100 43l59 21l15 18l63 113l6 33l39 94l31 84l12 10l2 22l21 13l31 30h12l20 -8l13 2l20 -24l27 -13l14 -14l25 -78v-55l-13 -47l-10 -23l-33 -96l-61 -135l-14 -45l-35 -68l-25 -69l-8 -54 l-8 -2l-8 -45l-43 -82l-23 -94l-18 -63l-2 -27l-19 -18l-2 -21l-4 -6h-2l-4 -31l-31 -51v160v299l15 78q-23 8 -56 8q-25 0 -68.5 -10.5t-93 -22.5t-93.5 -22.5t-66 -10.5q-59 0 -110.5 33t-88.5 86t-58.5 124t-21.5 144z" />
<glyph unicode="H" horiz-adv-x="1036" d="M106 4v96l13 146l-2 18l8 27l16 129l52 272l30 99l25 55l2 22l31 95l20 38l27 62l26 57l8 8l9 19h8l6 6h10l6 4l27 2l37 -14v-4l12 -4l23 -84l-11 -78l5 -6l-9 -13l-4 -57l-8 -61l-31 -105l-12 -47l-10 -8l-2 -29l-10 -18h100l84 18h31l43 6l24 103l43 129l4 20l8 8l-2 5 l29 90l53 123l21 57h6l4 12l12 2l25 6l20 -8l29 8l35 -24l4 -17l8 -65l-28 -223l-9 -39l-24 -107l-19 -73l-10 -21l2 -2l76 -18l33 -13l26 -8l-4 -16l-16 -2l-8 -9l-31 -12l-16 -16h-27l-51 -6l-25 -23v-20l-16 -17l-13 -47l-24 -49l-10 -49l-11 -66l-12 -32l-4 -29v-39 l-12 -25l4 -18l-6 -47h2v-25l-6 -14v-35l-9 -4l-4 -16l4 -7l-2 -10h-6l-18 -16l-8 4l-5 -14l-10 6l-6 -2v-6l-10 -5l-2 -8l-8 -10l-25 -4l-14 14l-13 23l-10 47l-14 106v93l16 157l25 154l-45 -6h-51l-97 -25l-53 -6l-18 -6l-15 -62l-8 -14l-4 -25l-6 -14l-21 -41l-4 -26 l-12 -29l-8 -35l-29 -72l-29 -61l-24 -53l-4 -43l-8 -11l-2 -14l-11 -16l-6 -25l-6 -8l-2 -4l-43 -37l-4 25l-4 51l-8 33z" />
<glyph unicode="I" horiz-adv-x="485" d="M102 231l2 74l13 57l14 80l14 45l27 125l12 25l23 76l37 108l2 29l18 29l19 43l26 45l2 14l43 74l11 6l18 35l41 37l43 16h14l29 -12l16 -23l6 -49l-6 -102l-26 -60l-29 -61l-74 -211l-67 -185l-17 -61l-16 -33l-6 -35l-15 -30l-8 -35l-20 -123l-15 -61l-12 -68l-28 -74 l-27 -28l-33 -19l-22 12l-7 95l5 12l-5 16v60l5 47l-5 10z" />
<glyph unicode="J" horiz-adv-x="1224" d="M98 43l13 16l-7 7l-2 10l9 51l14 23l18 57l19 33l4 16l27 45h6l-4 -33l-7 -6l-4 -16l9 -6l2 -19l-11 -24l4 -21l-4 -33l17 -14l10 4v-49l-10 -25h10l6 7l6 -5l29 -43l31 -10l10 -10l29 -14l4 -7h18l47 -24l25 -8l12 -8l64 6l18 12l39 14l20 21l21 88l16 33l25 129v57 l20 195l8 16l25 145l8 15l8 69l33 131l-45 -6h-29l-174 -18l-63 -17h-62l-8 4l-10 21l-4 20h8l2 11l29 28l29 11l151 75l6 -2l31 13l8 -11l8 4l11 17l-9 8l31 8l8 -6l29 8l37 21v6h67l7 6l-3 23l9 2l16 59l6 4l21 -8l-4 20h4l8 -10l8 4l6 33l17 -12l26 -41h25l24 8l39 -4 l4 -4l31 4l2 -4l31 4l10 6l29 4v-6l-15 -10l13 -6l47 12l49 4l10 8h25l35 17l-4 4l4 10l32 14h29l47 10l10 7l25 -2l29 4h28l99 -15l79 -24l15 -10l-29 -21v6l-10 -8l-21 -4l-14 -12l-35 -9l-92 -57l-63 -29l-15 2l-18 -14h-14l-35 -22l-11 2l-20 -11l-4 4l-33 -14l-8 -14 l-18 -10l-80 -25l-17 -10l-63 -21l-62 -12l-47 -14l-16 -72l-4 -39l-17 -49l-39 -168l-8 -10l-16 -41v-10l-19 -23v-12l-6 -4v-9l-32 -82v-26l-11 -33l2 -8l-12 -27l-6 -24l-10 -15v-34l-19 -89l-8 -10l-2 -16l-8 -12l-2 -21l-15 -53l-32 -64l-2 -26l-33 -45h-4l-23 -25 l-4 -12l-39 -21l-43 -16h-37l-26 -6l-4 -4l-17 6h-22l-17 -6l-22 6l-86 20l-10 13l-35 10l-19 10l-47 37l-18 33l-17 10v16l-16 39l-12 15l-6 34l-7 5l2 12z" />
<glyph unicode="K" horiz-adv-x="1171" d="M80 29v41l12 34l33 168l31 129l8 21l4 33l57 161l8 39l35 80l15 21l6 37l26 51l4 39l17 32l2 29l37 70l22 28l29 27l20 4l60 14h43l24 -24l2 -25l-10 -104l-6 -21l-14 -51l-13 -22v-15l-8 -28l-35 -76l127 76l39 14l123 68l8 8l207 133l66 43l24 6l13 10h8l29 13l8 -5 l16 3l92 30l21 -12l2 -21l-41 -43l-29 -20l-35 -35l-32 -51l-33 -39l-58 -45l-63 -47l-66 -51l-137 -90l-65 -25l-17 -10l-39 -19l-12 2l-18 -12l-25 -16l-29 -17l-30 -10l-39 -29l-25 -10l-12 -24l18 -17l56 -35l4 -6l20 -8l131 -80l49 -33l185 -145l22 -37l21 -8l51 -51 l33 -53l-2 -29l16 -19l6 -12h6l2 -8l7 -4l4 -10l-13 -7l-4 -10l-6 2l-8 -12l-16 6h-25l-12 17l-13 -7l-10 7l2 26l-14 -24h-8l-56 30l-36 17l-146 84l-31 12l-290 158l-11 10l-14 6l-59 49l-27 -78l-18 -24l-15 -31l-37 -86l-43 -82l-30 -37h-31v19l-4 4l-17 8l-4 18z" />
<glyph unicode="L" d="M88 227v23q2 10 2 15v7v9q8 41 14.5 90t28.5 147q10 47 16.5 76t12.5 52.5t13 48t19.5 66.5t30 107.5t43.5 167.5l8 16q7 15 14 35.5t14 43t7 36.5l1 13q1 14 5.5 33.5t10.5 39t18 31.5v21l4 2q-4 -4 9.5 10t15.5 14h10q4 -2 12 -2q4 -2 19.5 -15.5t33 -35t32 -52 t14.5 -71.5q0 -33 -3.5 -54.5t-9.5 -46t-15 -62.5t-22 -103q-2 -2 -7 -8.5t-12 -24.5t-18.5 -52t-27.5 -93v-13q-6 -16 -8 -22t-6.5 -20.5t-16.5 -46t-39 -99.5l-2 -2q-2 -2 -6 -12v-11q-2 -8 -11 -35.5t-17.5 -63.5t-15.5 -76t-7 -77q0 -16 8 -16l-6 -16v-19l6 -14l12 -6 h11l53 -2q29 4 47 9t59 15q2 -2 3 -2t4 -2q20 0 73 17l6 4q4 2 25.5 3t42.5 15q2 0 10 3t29.5 7t59.5 7.5t96 3.5q4 0 23.5 -4.5t41 -11.5t38.5 -15t17 -14q-4 -4 -9 -10.5t-11 -12.5q4 0 -4 -4t-29.5 -15.5t-58.5 -32t-94 -50.5q-10 -4 -38 -17.5t-53 -13.5l-18 -12h-16 q-12 -8 -19 -11q-6 -2 -28.5 -10t-56.5 -17t-78 -16.5t-93 -7.5q-53 0 -105.5 34t-82.5 85v8q-14 23 -23 90l-4 8q0 10 2 17q0 4 -2 10t-2 10z" />
<glyph unicode="M" horiz-adv-x="1351" d="M98 57q0 4 1 14.5t3 28.5q10 33 11.5 40t1.5 16.5t1 32t12 84t35.5 174t72.5 303.5q14 33 29.5 87t45.5 119v7q4 6 10.5 13t10.5 13l8 8q2 6 4 13.5t4 13.5l6 12q6 13 18.5 27t33 25.5t49.5 11.5q10 0 41 -8q6 -2 14 -2t19.5 -7.5t28.5 -24t42 -48.5q6 -12 10 -20.5 t8.5 -22t8.5 -38t6 -69.5v-102q-2 -16 -2 -27.5v-21.5v-121q0 -14 6 -82q10 20 22 43q10 18 26.5 39.5t39.5 44.5l37 67l8 9l18 34q8 14 16.5 29.5t20 36t27.5 50.5t43 73l31 49q6 10 16 27.5t25 40.5q6 12 34.5 45.5t59.5 87.5q2 8 7 13l13.5 13.5t21.5 22.5t32 41l12 8 q12 14 39 14q16 0 35.5 -8t48.5 -31q12 -8 16 -14t7 -17.5t6.5 -30.5t11.5 -54v-74q-2 -23 -7.5 -60.5t-5.5 -84.5l-4 -9q-8 -41 -18 -103.5t-25 -145.5q-12 -47 -12 -87t-20 -81v-19q-2 -4 -2 -9t-3 -11v-23q-6 -6 -4 -34v-6q0 -27 -14 -75q2 -2 2 -12l-2 -8q2 8 0 -3 t-6 -30.5t-8 -45t-4 -48.5q0 -8 4 -16q-2 -2 -2 -4.5t-2 -6.5q0 -16 2 -24q0 -8 -2 -15l-2 -14q0 -33 -14.5 -51.5t-16.5 -18.5l-2 -2q-2 -4 -6 -11t-11 -17l-6 -4l8 -2l-6 -13l-2 -16l-12 -16l-4 -31l-10 -6l4 -2l-6 -2l-5 -7v-9t-2 -9l-6 -6l-2 -12q-2 -2 -4 -2t-6 -3 q0 8 -2 15v2q-2 4 -3 11t-5 18l-2 16q0 4 -1 16.5t-3 32.5v6q0 6 -2 13v20l-5 6q2 2 3 14l-3 89l3 534q0 23 -2.5 36t-6.5 30q0 37 6 79v13q4 20 5.5 33.5t1.5 23.5l2 8q-4 -2 -8.5 -6t-10.5 -8q-14 0 -61 -47l-37 -64q-2 -4 -2 -7t-2 -7l-17 -27q-12 -23 -18 -37t-14 -24 l-11 -8q-4 -10 -7 -25.5t-17 -30.5v-6l-19 -34q-4 -8 -9 -17.5t-13 -25.5l-6 -11l-5 -8t-11.5 -17.5t-12.5 -17.5t-10 -8l-7 -9q-7 -9 -17.5 -20.5t-18.5 -20.5t-10 -9q-4 -4 -8.5 -6.5t-8.5 -4.5q-35 10 -68.5 39t-50.5 33q-47 18 -79.5 64.5t-44.5 132.5v73q2 10 2 22.5 v25.5q-2 -2 -3.5 -6.5t-5.5 -8.5l-8 -14l-8 -19q-4 0 -8 -24.5t-33 -77.5q-6 0 -15.5 -21.5t-29.5 -74.5q-6 -16 -14 -39q-6 -20 -15.5 -52t-19.5 -79l-19 -64q-2 -6 -2 -18q-4 -18 -4 -19.5t0 -0.5t-1 -1t-5 -20t-12 -59t-23 -119q-4 -10 -4 -16.5t-2 -16.5t-12 -29.5 t-37 -58.5l-4 4q-2 -2 -2 -5t-4 -3t-6 2l-13 6q-4 2 -7 4t-7 4l2 2l-8 4v7q-10 35 -16.5 63.5t-6.5 56.5z" />
<glyph unicode="N" horiz-adv-x="1253" d="M68 -41q8 1 2 31q-2 8 -2 19q0 29 12 75q10 29 16 50.5t9.5 40t6.5 37.5t9 46l14 64q16 78 38 192.5t56 267.5q2 12 9.5 57.5t20.5 94.5t30.5 89t42.5 40h12q6 2 12 2q16 -2 26.5 -5t17 -7t12.5 -11.5t16 -17.5l43 -53q6 -18 11 -29.5t15.5 -35t33 -66.5t63.5 -127 q4 -14 6 -19.5t5 -10.5t8 -16.5t16.5 -36t30 -67.5t47.5 -114q10 -14 27.5 -44t43.5 -112l17 -25q4 -8 8 -15t8 -15q10 10 17.5 12t48.5 20l16 15q4 14 5 23t2 21.5t7 33t19 59.5q6 16 17 72.5t24.5 127t27 140t19.5 108.5q4 10 22.5 109.5t77.5 296.5q0 27 10.5 44 t26.5 28.5t35.5 16.5t36.5 9q14 0 18 -9.5t6 -23.5q0 -8 -2 -18l-4 -16q-2 -8 -6 -24.5t-10 -39.5v-6q-2 -2 -2 -4t-2 -6q4 -8 6 -15v-20t-4 -33q-6 -37 -5 -63v-15q0 -21 -2 -50q-2 -40 -11 -108.5t-34 -189.5q2 -4 7 -16q-2 -37 -11.5 -89.5t-9.5 -80.5v-29 q-4 -25 -7 -49.5t-8 -54t-12.5 -65.5t-19.5 -83q0 -14 -5 -43.5t-14.5 -59.5t-21.5 -51.5t-27 -21.5l-12 -8q-4 -4 -28.5 -13.5t-53.5 -13.5l-2 -2q-29 -29 -52.5 -48t-57.5 -19q-6 2 -13.5 4t-15.5 7t-19.5 17.5t-29.5 36.5q-31 39 -59.5 74t-56.5 74t-54.5 86t-52.5 108 l-13 19l-61 135q-2 4 -8.5 20.5t-14.5 35t-20 33.5t-27 17q-12 -39 -31 -123q-6 -16 -20 -62t-33 -126v-12q-4 -8 -10 -25.5t-13.5 -47.5t-18.5 -76t-23 -111q-8 -8 -11.5 -26.5t-11.5 -42.5t-23.5 -48.5t-50.5 -46.5l-2 2q-4 0 -11 -11.5t-28 -11.5q-2 0 -6 4l-8 9 q-23 10 -22 61z" />
<glyph unicode="O" horiz-adv-x="1155" d="M84 328q0 -2 2 -2q-4 0 2 33.5t6 99.5l19 73q6 14 11 27.5t12 32t18.5 42t31.5 58.5q18 31 62.5 101.5t118.5 144.5l16 20q8 4 23 19q47 45 104 45l22 14q10 0 13.5 2t13.5 6.5t31.5 12.5t66.5 20l5 4h18q2 2 4 2t6 2q8 0 33 -6h20q10 -8 26.5 -18t35.5 -27 q10 -4 29.5 -33.5t60.5 -58.5q6 -8 14.5 -18.5t20.5 -16.5l31 -30q4 -8 10 -17.5t16 -23.5l14 -15l7.5 -15l7.5 -15v-9q8 -8 14 -22.5t23 -36.5l6 -21q4 -14 13 -51t20 -135v-27q0 -2 6 -6l6 -4q0 -10 -2 -18l-6 -43q2 0 4 -2q0 -12 -9.5 -35t-19.5 -55q-16 -49 -27.5 -75 t-21.5 -44.5t-23.5 -33.5t-35.5 -42v-8q-10 -10 -17.5 -18.5t-20 -18.5t-34 -26.5t-62.5 -45.5q-18 -6 -26 -13t-26.5 -17.5t-58.5 -22.5t-120 -31h-18q-4 0 -13.5 -3t-13.5 -3q-70 0 -143.5 20.5t-159.5 80.5q-14 10 -26.5 19t-25 22.5t-27.5 34t-36 53.5q-4 12 -18.5 48 t-32.5 126zM256 291q-1 -6 -1 -12q0 -9 2 -18q3 -15 14.5 -37.5t37.5 -59.5q4 -4 14.5 -15.5t34 -23.5t64.5 -22.5t104 -10.5q-6 0 5.5 1t27.5 3t33.5 3t23.5 3q6 0 22.5 5.5t41.5 15.5t53.5 29.5t57.5 48.5l49 73q4 4 20.5 35t44.5 103v12q15 45 15 86q0 86 -21.5 152.5 t-87.5 132.5l-49 49q-12 8 -30.5 18t-41.5 25q-23 -16 -51 -17h-61q-14 0 -41 -26.5t-60 -57.5q-23 -12 -49.5 -53t-79.5 -133q-4 -14 -19.5 -42t-30.5 -64.5t-27.5 -79.5t-12.5 -88q0 -20 -2 -35z" />
<glyph unicode="P" horiz-adv-x="858" d="M56 40q3 46 5 101q8 45 22.5 121t33 163t38 177t38.5 164q2 4 7 19.5t12 39t13 49t8 46.5q-2 4 -1 11t-1 11l-2 29q-2 12 -3 20t1 15l2 6q-6 6 -10 24q4 10 15.5 23.5t33.5 27.5q6 6 31 20.5t55 30.5q31 16 66 26q24 7 44 6q10 0 19 -1q12 -4 42 -4h46q10 -2 20.5 -3 t26 -4t39 -10t60.5 -22q39 -23 70.5 -38t56 -37.5t44 -57.5t34.5 -96q-2 -2 -2 -8l6 -15q0 -4 1 -8t1 -10q0 -12 -4 -33q0 -4 2 -8q-4 -4 -5 -17.5t-9.5 -34t-30 -50t-64.5 -66.5l-8 -10q-14 -12 -50 -40t-102 -69l-26 -12q-12 -8 -25.5 -16t-33 -16.5t-48 -18.5t-71.5 -27 l-15 2q0 -2 -16 -22.5t-38 -43t-43.5 -42t-33.5 -17.5q-4 -20 -7 -40.5t-11 -41.5q-6 -18 -7 -25t-4.5 -20.5t-11.5 -42t-28 -90.5l-7 -14q-10 -23 -20 -48.5t-21 -53.5q-2 0 -8 -12.5t-8 -14.5h-4q-6 -20 -28 -41q-17 -17 -31 -17q-3 0 -7 1q-25 16 -35 42.5t-13 61.5 q-2 18 -2 38t2 43zM375 510q10 0 55 12q47 16 78 28.5t55.5 26t51 32t65.5 48.5l47 43l15.5 15.5t23.5 27t22.5 33t12.5 33.5v13q0 30 -8 48q-4 8 -23.5 28t-75.5 54q-27 14 -58.5 19.5t-33.5 5.5q-6 1 -11 1t-9 -1h-45q-7 0 -21 1h-4q-14 0 -26 -5q-16 -6 -29 -24.5 t-17 -57.5q0 -8 -1 -16.5t-1 -20.5q-4 -16 -5 -37.5t-5 -48.5q-4 -18 -9 -34.5t-11.5 -43t-13.5 -68.5t-19 -112z" />
<glyph unicode="Q" horiz-adv-x="1181" d="M90 276l8 170l15 62l24 67l27 68l141 248l45 59l6 19l60 69l92 101l24 12l13 16l55 45l6 9h27l4 10l14 -6l17 -4h37l14 -13l16 -2l10 -14l-20 -25l4 -20l10 -8v-15l-4 -8l-4 -39l-12 -35l-25 -10l-51 -10l-29 -33l-67 -88l-15 -35l-32 -51l-90 -192l-45 -121l-21 -47 l-22 -70l-25 -141l-8 -58l16 -39l2 -57l68 -29l69 -6l84 43l25 23l49 26l60 62l96 96l-15 25l-63 90l-29 53l-30 88l-21 78l-16 82v92l-4 12l41 29h49l6 -16h33l6 -7l16 -59l19 -29l43 -92l18 -28v-11l8 -6l41 -65l12 26l19 78l27 133l4 49l4 11l8 125l-8 79l6 5l16 -46 l15 -20l4 -4v-49l10 8l4 -8l-4 -41h12l4 -15l-6 -41v-65l12 -14v-17l-4 -22l13 -13v-28l-11 -41l-10 -15v-12l6 -16l-14 -29l-2 -20l14 -35l-10 -55l-31 -56l86 -166l54 -94l40 -80l39 -78v-6l2 -37l7 -4l-2 -8l-13 2l-6 -22l-29 -19l-28 17l-10 -9l-17 11l-37 14l-2 12 l-10 -4l-59 51l-70 76l-68 88l-6 -4l-4 8l-6 -10h-8l-8 -27l-50 -61l-22 -16l-10 -21l-41 -26l-29 -19l-55 -31l-58 -16l-16 -12l-25 6l-4 -8l-20 2l-25 -13h-18h-68l-75 31l-48 23l-12 12l-49 61l-33 62l-26 84z" />
<glyph unicode="R" horiz-adv-x="1089" d="M80 51v84q2 6 2 21q0 16 -2 24q6 18 9 50t7 65v4q0 18 17 78q10 39 14 56.5t5 29.5t3 23.5t8 37.5q10 41 18.5 74t16.5 66.5t19.5 74.5t27.5 97v12l4 8t7 10v15q0 23 24 77q4 6 5 14.5t10.5 16.5t30 17.5t59.5 19.5q4 -2 9 -2t11 -2h25q10 4 28 6q12 6 46 24.5t74 38 t77 35t53 15.5l14 3q15 3 35.5 7t41 7t28.5 3q43 0 98 -20q-4 4 15.5 -6.5t45 -35t47 -63.5t21.5 -94q0 -43 -8 -59v-6q-12 -33 -20.5 -48.5t-30 -33t-66.5 -47t-133 -91.5q2 2 -18.5 -9t-45 -26.5t-46 -31t-21.5 -23.5q0 -6 4 -6l-18 -16q-14 -2 -15 -35v-10q-6 0 -6 -21 l-2 -2q0 -4 27 -18.5t86 -45t155.5 -81.5t233.5 -129q16 -10 21.5 -30.5t9.5 -20.5v2l-4 -4q-6 -6 -22.5 -9.5t-27.5 -13.5q-16 0 -18 2l-4 -6q-6 -2 -16 -2q-2 2 -7 2h-10q-12 14 -54 27.5t-93 37.5l-37 13q-23 8 -70 30.5t-116 57.5l-13 6q-33 14 -70.5 31.5l-82.5 38.5 l-43 14l-19 -6q-33 -20 -60.5 -38t-70.5 -26l-6 -26v-17q0 -25 -12.5 -54.5t-22.5 -59.5v-7q0 -4 -4 -18t-8 -31q-6 -20 -12 -43v-2q-14 -23 -20.5 -36t-27.5 -46l-16 -16q-2 -2 -22 -2q-2 0 -20.5 12t-41.5 45l-4 4v29q-4 4 -6 10zM406 618q29 8 63.5 18.5t87.5 33.5 q12 8 23.5 10t36 17.5t66.5 50t114 106.5q18 18 31.5 39.5t22.5 41t11 26.5l6 20q-4 0 -18 4t-31 8q2 2 -1 2t-11 -2q-16 -4 -41 -11t-49.5 -13t-36.5 -6q-6 -6 -16.5 -10.5t-29 -13.5t-47 -26.5t-73.5 -48.5q-12 -8 -31.5 -44t-54.5 -111q-8 -41 -16 -68q-4 -12 -6 -23z " />
<glyph unicode="S" horiz-adv-x="980" d="M109 0q4 6 9 16.5t13 26.5l-2 2q0 2 -2 2q0 4 7 13.5t21.5 19.5t35 18t47.5 8q29 0 51 -10t33 -10h12q12 -4 42 -15.5t97 -23.5q33 -20 105 -20q18 0 42.5 22.5t24.5 42.5h8l21 12l4 17v14l-10 17l-13 12l-24 22l-15 7l-20 14l-41 22l-16 13q0 6 -11.5 12t-11.5 12 q0 10 -13.5 21.5t-36 26t-52 34t-64.5 45.5l-28 35q-25 18 -40.5 34.5t-26.5 38t-20.5 52.5t-19.5 76q6 29 8 35q-2 4 -2 8t-2 8q4 25 12 53q14 53 41 133q0 10 7.5 20.5t16.5 19.5t16 18.5t7 15.5q8 10 10.5 17.5t8.5 16.5t24.5 23.5t61.5 40.5q51 35 77.5 51.5t44 23.5 t34 10t45.5 14q33 12 69.5 16t83.5 14q6 0 10 -2q4 2 17 2q10 0 16 -2q4 2 10 2t9 -2l24 -10q25 -6 41 -21t39 -44q2 -8 5 -25.5t6 -34t5 -30.5q1 -8 2 -10q0 -3 -1 -3v2q0 -2 -3 -6q-2 -4 -2 -8t-4 -10q-4 -12 -13 -16.5t-18.5 -4.5t-15.5 2t-6 -2q0 -2 2 -4 q-10 -2 -22.5 -2h-22.5q4 0 -4 1t-19.5 3t-21.5 5t-10 5q0 10 -23.5 13.5t-32.5 7.5q-6 -4 -24 -4h-13.5t-17.5 4q-4 -2 -8 -2t-8 -2q-10 -4 -25.5 -8.5t-34.5 -10.5l-14 -10q-8 -4 -14 -10l-23 -12q-2 -2 -3 -5.5t-5 -5.5q-33 -25 -46 -44t-32 -48l-8 -14q-17 -31 -33 -67 q-11 -24 -11 -62q0 -18 3 -39q2 -18 19.5 -43t27.5 -45q35 -31 62.5 -48.5t60.5 -36t79 -45t118 -75.5q23 -23 63.5 -69t50.5 -124q4 -35 4 -68.5t-14 -68.5l-53 -80q-20 -14 -69.5 -30.5t-100.5 -20.5q-30 -4 -58 -5h-19q-19 0 -38 1h-32.5t-45.5 4q-2 0 -13 2t-25.5 4 t-29 6.5t-22.5 8.5q-12 0 -18 2l-2 -2l-8 4q-8 2 -16.5 3t-16.5 5q-2 0 -17.5 3t-34 8t-34 11.5t-17.5 14.5l-14 -6q-4 2 -7 4t-7 4l-23 20h-8q-6 0 -10 2h-13q0 4 -2 4h-10q-4 2 -7 5.5t-7 5.5l-12 4v8z" />
<glyph unicode="T" horiz-adv-x="989" d="M84 1087q0 10 18.5 22.5t30.5 12.5q6 0 19 -6q12 4 35.5 8t58.5 4h35q8 2 16 3.5t18 3.5h7q10 0 16 2q12 -8 24 -11q6 2 14.5 2t18.5 2l92 -6q74 6 144 6q33 0 60.5 -2t84.5 -6h-2q8 0 23 2q27 4 69 6q0 -2 58 -2h57h22.5t49.5 -2q6 0 19 -2t27.5 -5t29 -5t22.5 -2 q2 0 11 -7t19.5 -15.5t18.5 -15.5t8 -9l-16 -18q-23 -12 -53.5 -19.5t-91.5 -34.5h-43q-2 -2 -7.5 -5t-7.5 -5h-4q-2 2 -4 2t-6 2q-12 0 -23 -2l-6 -6q-4 2 -9 4t-11 4q-6 -2 -27 -6l-12 -6h-20.5t-24.5 -2l-11 -2h-49q-16 0 -26 -2h-13q-8 -8 -14 -28.5t-15 -68t-26.5 -127 t-48.5 -208.5q-6 -23 -17.5 -73t-23.5 -108.5t-25.5 -113t-21.5 -84.5q-4 -10 -14.5 -42t-10.5 -55v-43v-6q0 -14 -10 -55v-12q-8 -23 -14 -29l-10 -6q-11 -6 -21 -13.5t-21 -12.5l-10 -5h-2q-10 -8 -22 -10h-6q-2 -2 -4 -2h-5q-2 4 -5 23.5t-5 42t-3 42t-1 23.5q2 4 2 7 t2 7q0 4 -2 10.5t-2 10.5v57q0 12 3 30.5t5 41.5q-2 2 -2 10q2 41 6 76t9 74v12q2 6 4 13t4 18q0 6 -2 10q4 14 6 29.5t4 35.5l4 9q2 20 5 35.5t7 36t11.5 52t15.5 86.5q4 12 5 21.5t5 33t14.5 67.5t32.5 126q-6 0 -11 19.5t-9 19.5q-8 23 -17.5 23t-33.5 4q-2 -2 -13 -2 h-51q-31 0 -78 2t-93 12t-84 34.5t-50 67.5z" />
<glyph unicode="U" horiz-adv-x="1128" d="M128 432v13q0 24 3 49q0 4 5 32.5t13.5 71.5t20.5 94t31 96q49 124 96 186q44 58 67 58h3q8 -16 8 -18l6 12q0 -6 2 -6h2v6q-2 0 -3 -3t-3 -5q2 0 5 -5t1 -9q0 -6 -2 -11.5t-4 -15.5q0 -8 8 -31q0 -8 -1 -7t3 -4t18.5 -23.5t45.5 -67.5q6 -20 8 -43t4 -49l-4 -39l-12 -49 l-3 -25q-4 -8 -6 -29.5t-6 -52.5q-2 -16 -3 -35.5t-1 -34.5q2 -4 3 -22.5t1 -38.5v-37.5t2 -17.5q4 -2 8.5 -17.5t8.5 -34t10 -34t14 -15.5q2 0 5 -10t6.5 -21.5t6.5 -21.5t7 -10h4q8 -2 12 -22.5t8 -20.5q4 6 6 6q4 0 8.5 -9t8.5 -9l2 -2q4 -2 14 -8.5t21 -6.5q2 0 4 -1 t4 -1q2 -2 8 -2q14 -2 30.5 0t37 17.5t45 48t55.5 94.5q-2 -10 13.5 27.5t35 94t37.5 120t21 104.5q2 16 1 26.5t-4.5 20.5t-8.5 23.5t-13 37.5l-2 29l2 6q0 10 8 11l58 114q-2 0 14 22.5t36.5 50.5t37 51.5t14.5 23.5q4 0 20.5 9t30.5 7q2 -2 10 -2q6 -2 13.5 -1t11.5 -1 q6 0 8 -3t4 -3q8 -2 26 10q16 10 22 10h1q8 0 10.5 -12t6.5 -14q2 0 4 2l2 2q4 0 4 -4q0 2 -2 2v-2q10 -1 14 -15q3 -9 3 -16q0 -3 -1 -6q0 -6 -6 -41l-6 -33q-4 -29 -17.5 -67.5t-29.5 -98.5l2 4q-2 0 -8 -34.5t-49 -122.5q-4 -18 -11.5 -34t-20.5 -41.5t-32.5 -66.5 t-48.5 -110q-10 -8 -22.5 -30t-26.5 -49.5t-30.5 -57t-35.5 -56.5q-10 -10 -32.5 -44t-79.5 -75l-23 -24q-2 -2 -10 -8.5t-17.5 -13.5t-17.5 -13t-10 -6q-6 -6 -20.5 -17.5t-31 -21.5t-35 -18.5t-34.5 -6.5q-4 2 -7 3t-7 6q-16 -13 -47 -15q-8 0 -17 -1l-45 3 q-25 2 -59.5 18.5t-69.5 49.5t-69.5 82t-59.5 117q0 4 -4 17t-9 26.5t-8 25.5t-3 14q0 4 -2.5 17.5t-5.5 29t-6 30t-3 20.5q-4 29 -5 59z" />
<glyph unicode="V" horiz-adv-x="960" d="M135 1051q0 29 13.5 32.5t25.5 3.5q-4 2 20.5 -9t57.5 -42.5t64.5 -91t41.5 -153.5l17 -72q10 -41 13 -78t9 -72q-2 -2 -2 -4q6 -41 10.5 -71.5t8.5 -53.5q0 -10 1 -33.5t9 -58.5q16 -66 16 -65q12 0 26.5 23.5t35 71.5t50.5 124t75 180l10 20q4 12 19.5 49t35 86.5 t42 104.5t42 103.5t33.5 83t18 45.5q4 6 16.5 31.5t28.5 72.5q4 6 11.5 22.5t15.5 32t15.5 27.5t13.5 12l12 6q16 8 27 13l41 16h6q6 0 26 6q1 0 9 -12q-2 -2 -7.5 -16.5t-12.5 -33t-13 -37t-10 -26.5l-45 -135q-8 -12 -12.5 -19.5t-13.5 -30t-26.5 -71.5t-50.5 -145 l-12 -56q-6 -33 -9 -46t-9.5 -37.5t-23 -77t-50.5 -162.5q-12 -31 -14.5 -39t-1.5 -11t-1 -12.5t-17 -43t-46 -102.5t-90 -191q-18 -57 -50 -76t-55 -19q-12 0 -19 1t-14.5 2t-18.5 4.5t-32 7.5l-10 4q6 -2 -7 4t-32.5 21.5t-40 42t-29.5 67.5q-10 45 -15 68.5t-8 42t-6 38 t-14 56.5q-2 20 -4 31.5t-4 28t-6 46t-12 90t-20.5 157.5t-32.5 249q0 4 -3.5 14t-6.5 22.5t-6 22.5t-3 17z" />
<glyph unicode="W" horiz-adv-x="1247" d="M70 479v68v84l8 82l12 61l21 150l6 16l10 39l27 86l18 18l37 4l31 -8v-6l26 -8v-25l10 -118v-48l11 -47l28 -229v-164l21 92l29 70l57 106l20 31l31 70l43 63l45 80l35 33l2 6l43 43l35 12h65l47 -12l25 -67l6 -39v-31l-14 -197v-88l-4 -63l-19 -181l6 -10l-10 -12l8 -16 l-12 -125l8 -9l-4 -22v-59l21 30l73 154l89 211l26 51l27 35l14 49l31 49l4 21l18 32l31 70l10 8l135 221v33l72 101h6l8 24l15 19v6l55 61l12 -2v-6l9 16l4 -8l-4 -8h-7l3 -10l-13 -13v-12l-16 -18l-4 -19l-17 -41l-22 -90l-10 -12l-37 -94l-25 -33l-14 -55l-72 -185 l-18 -24l-15 -37l-20 -68l-27 -49l2 -8l-26 -78l-25 -27l-20 -32l-13 -35l-28 -51l-64 -144l-37 -57l-22 -51l-13 -4l-2 -15l-10 -10l-12 -27l-23 -18l9 -10l-17 -19h-14v-6l-31 -10h-18l-6 8l-29 8l-12 23l-9 51l-32 129l-21 197l10 112v207l31 279l-8 33l-25 -37h-10 l-14 -29l-29 -35l-41 -78l-29 -73l-20 -56l-37 -63l-6 -47l-10 -8l-4 -48l-13 -16l-30 -141l-17 -45l-6 -39l6 -10l-12 -19l4 -31v-71l-10 -45l-12 -25v-12v-33l-15 -27h-22l-27 -14l-22 -25l-41 -4l-11 7l-61 36l-2 37l-39 115l-49 246l-2 37l6 34z" />
<glyph unicode="X" horiz-adv-x="950" d="M57 -102l6 8l19 80l70 178l61 121l94 170l8 8l13 26l88 136v10l-35 67l-35 76l-47 154v80v71l18 25l17 4l20 -12l4 6l-2 10h4l35 -26l35 -56l47 -86l37 -84l31 -59l98 121l98 100l60 45l4 8l22 11l33 4l33 -2l10 -9l31 -49l10 -30l-4 -43l-6 -7l-16 -45l-27 -55l-25 -33 l-2 -8l-16 -18l-84 -119l-12 -8l-62 -88l-4 -29l49 -98l70 -148l102 -188l35 -58l-2 -24l-16 -6h-13l-20 -21l-23 25l-293 334l-32 12h-11l-110 -137l-90 -103l-37 -51l-31 -29l-41 -61l-6 -4l-49 -70l-25 -6h-16l-25 -12l-6 -8h-39z" />
<glyph unicode="Y" horiz-adv-x="841" d="M94 963l17 30l39 37l18 -10l8 -10l12 14l45 -16l27 -27l68 -84l34 -51l66 -111l23 -51l26 31l33 61l41 58l6 4l14 24l113 137l131 150l55 53l60 53l35 17l22 18l19 15l28 14l2 -19l-28 -49l-13 -28l-41 -62l-14 -28l-293 -435l-10 -24l-35 -58l-14 -16l-19 -35v-6l-8 -6 l-12 -21l-23 -38v-11l-24 -157l-8 -17l-17 -135l2 -18l-16 -101l-6 -12l-2 -25l-9 -28l-12 -31l2 -14l-8 -17l-22 -16l-74 -8l-49 16l-25 53l-12 62v141l8 100l14 66l29 150l6 55l-96 125l-47 84l-39 59l-19 55z" />
<glyph unicode="Z" horiz-adv-x="1427" d="M61 70q0 10 9.5 29.5t38.5 62.5q25 23 30.5 29t8 9t7.5 8l27.5 27.5t69.5 68.5t133 128l129 123q16 12 37.5 34.5t69.5 72.5q27 25 42 36t32.5 26t43 43t72.5 81q14 10 26.5 22.5t22.5 30.5h-2q-12 0 -20.5 3t-16.5 6t-19 5.5t-32 2.5q-29 0 -71 -14.5t-119 -35.5 q-20 -8 -26.5 -11t-23 -8t-55.5 -11.5l-123 -20.5h-26q-12 4 -33 11.5t-57 43.5h2l-9 9q2 6 2 22l-6 43q-4 20 -4 21v-4l41 20q0 2 7 8t16.5 12.5t17.5 11.5t12 5q8 2 67.5 19.5t209.5 64.5q6 0 8 -2q18 10 170 41l160 16q76 0 110 -8q4 -4 22.5 -9t57.5 -34q4 -8 8.5 -10 t7.5 -9.5t5 -23.5t2 -51l-7 -16q-8 -17 -21 -42.5t-31.5 -56.5t-41.5 -59l-18 -25q-8 -8 -21.5 -24.5t-35.5 -40.5l-27 -31q-33 -37 -124 -124t-259 -241q2 -2 3 -2t3 -2q6 2 23 6q2 -2 3 -2t3 -2q-2 -2 -2 -4q2 -2 8 -2h25q4 -2 23.5 -6t27.5 -12q49 16 137 37q37 6 49 10 t29.5 8t53.5 12t120 21l65 10q10 -2 35 1t66 3h35q12 -2 43.5 -1t54.5 -21q-2 -2 -2 -3.5t-2 -3.5l-4 -4q20 2 42.5 6.5t49.5 8.5q2 0 7 -5.5t9 -5.5l-63 -30q-4 -2 -9.5 -4t-13.5 -7q2 0 2 -2q0 -6 -45 -24q0 6 -2 6q-8 0 -14 -13.5t-15.5 -30.5t-22.5 -30.5t-36 -13.5 q-12 -6 -17 -7t-13.5 -3t-25 -7.5t-50.5 -15.5l-11 -10q-14 -4 -29.5 -9t-60.5 -16l-202 -73q-18 -12 -56.5 -27.5t-126.5 -38.5q-23 -14 -92.5 -37.5t-198.5 -54.5l-26 -8q-49 -6 -62 -6q-12 0 -57 10l-49 12q-31 14 -52.5 34.5t-37.5 43.5z" />
<glyph unicode="[" horiz-adv-x="739" d="M131 79.5v39.5q0 14 5 45t5 43q2 35 18.5 108.5t45.5 186.5q27 98 48 170.5t40 120.5q27 68 55.5 138t61.5 146q-2 4 0 13l-9 16q0 31 29 78q4 14 19 35l16 16q14 10 32.5 24.5t41.5 34.5q10 14 24.5 29.5t34.5 34.5q6 4 18 6h13q8 0 14 2q23 18 59 18q39 0 48 -8 q10 -4 19 -10t19 -12l50 -49q2 -3 2 -15q-8 -10 -22.5 -16t-8.5 -14v-3l-6 -6q-14 -49 -64 -88q-10 -8 -22 -16t-25 -19q-12 -4 -33 -18q-16 -6 -33.5 -15.5t-37.5 -19.5q-25 -49 -49 -86q-47 -111 -84 -197.5t-60 -154.5l-8 -8q-2 -6 -2 -13.5t-2 -17.5q-4 -10 -10 -21.5 t-13 -25.5q-29 -84 -49 -155.5t-35 -133.5q-6 -27 -10 -61.5t-6 -81.5q0 -12 8 -28.5t27 -24.5q6 -4 18.5 -11.5t32.5 -17.5q29 -12 29 -17q12 -6 37.5 -25.5t52.5 -43.5l6 -12q-2 -4 -2 -13v-6q-6 -6 -6 -20v-11q-6 -12 -6 -28l-11 -56l-6 -6q-80 -8 -153 33 q-23 14 -53.5 40t-65.5 65q-29 49 -35 112q-2 14 -2 30.5z" />
<glyph unicode="\" horiz-adv-x="837" d="M184 1313l4 24v25l9 24l41 31h26l25 -16l41 -31l41 -57l82 -148l79 -159l95 -242l67 -211l51 -199l25 -151l18 -178l-2 -125l2 -60l-10 -35l-22 -10l-19 -2l-22 35h-6l-11 22l-10 60l-16 43l-29 135l-8 27l-19 14l-14 59l-8 17l-12 53l-9 27l-26 88l-17 20l-4 41l-8 33 l-8 6l-21 66h-6l-26 88l-95 252l-73 157l-47 111l-39 100z" />
<glyph unicode="]" horiz-adv-x="735" d="M10 -104l19 53q4 8 6 14t4 14l4 9q8 12 6 20l2 6q4 4 7 9.5t10 9.5q33 8 69 12q14 2 24.5 3t18.5 1q16 2 32.5 1t33.5 -3q4 4 26 0q20 -2 35 7t21 22q23 41 36 74.5t21 58.5q39 125 72 291q2 16 3 29.5t1 23.5q8 14 12 29l-2 10q14 70 26.5 164t24.5 213v100 q-10 20 -22.5 35.5t-22.5 30.5q-4 10 -9 17t-9 15q-6 14 -12.5 26.5t-10.5 27.5q-18 47 -18 63l6 43l-2 10q4 8 4 11q2 2 -7 15t-7 17q4 6 10 13l65 16h45q20 4 51 -18.5t38 -42.5q4 -4 6 -5.5t4 -3.5l12 -6q8 -8 12 -16q8 -25 13.5 -46.5t7.5 -37.5q10 -29 18 -50.5 t15 -37.5l6 -23q2 -14 1 -23.5t-3 -15.5q4 -53 -13 -82l-16 -10q-2 -6 -6 -10q-8 -82 -18.5 -158t-22.5 -147q-8 -51 -25.5 -124t-44.5 -171q-57 -223 -92 -289q-12 -27 -21.5 -46t-13.5 -34q-10 -20 -19 -34.5t-18 -24.5q-39 -59 -86 -80q-104 -33 -165 -33q-72 0 -140 49z " />
<glyph unicode="^" horiz-adv-x="1566" d="M55 446l2 39l25 39l27 15l24 12l21 20l24 2l201 60l147 24l60 5l100 -5l47 -10l29 -14l18 -31l21 -49l-2 -23l-6 -30l-15 -23l-6 -6l-67 -98l-152 -166l-18 -17l-19 -12l-39 -37l-6 -20l182 67l133 37l170 27l156 8l154 -10l84 -10l159 -31l105 -29l106 -26l19 -25l2 -16 l-41 -13l-8 -4l-27 -6l-59 14l-50 5l-69 -3l-29 9l-8 -13l-139 13l-17 -9l-104 7l-37 -11l-47 -2l-21 -6h-24l-66 -12l-51 -4l-70 -19l-32 -10l-70 -22l-24 -7l-86 -34l-156 -56l-135 -55l-90 -35l-76 -18l-43 2l-27 -6l-22 10l-2 22l-9 7l-6 20l6 29l19 47l51 49l473 508 l-135 -18l-156 -33l-188 -58l-49 -6l-17 19l-18 -4l-21 20z" />
<glyph unicode="_" horiz-adv-x="1024" d="M0 -274h1024v-191h-1024v191z" />
<glyph unicode="`" horiz-adv-x="690" d="M129 1450l2 2q2 33 21 33q55 0 43 4q10 0 18 -2l12 -4q8 -4 15 -6q2 -2 3 -2t3 -2l10 -5q6 -4 10 -10q27 -23 67 -57.5t93 -81.5q23 -20 43 -38.5t41 -39.5q78 -72 78 -74q-2 -14 -4 -16l-4 -4h-7l-6 -6h-4q-8 -6 -26 -6q-25 0 -56 14q-4 2 -16 6t-33 14 q-23 10 -48.5 24.5t-51.5 35.5q-82 61 -92 67q-10 8 -20.5 17.5t-24.5 19.5q-6 8 -14.5 17.5t-18.5 19.5q-2 2 -19 35q-14 23 -14 45z" />
<glyph unicode="a" d="M-20 39q0 35 20 108q23 8 57 43q4 18 8.5 32t16.5 34t35.5 57t66.5 105q18 12 26.5 25.5t19 29.5t24.5 35.5t45 46.5q86 115 152.5 183.5t119.5 68.5q33 0 84 -51q18 0 26.5 -4t20 -12.5t30 -18.5t56.5 -21l14 -6q13 -6 30.5 -17t32 -28t14.5 -37q0 -4 -8.5 -20.5 t-8.5 -24.5q-2 -10 -3 -26.5t-5 -38.5q-12 -12 -24.5 -43t-24.5 -71l-25.5 -85t-29.5 -84q-20 -45 -39 -166l-27 -170q-2 -10 -2 -33v-22t4 -27q-8 14 -43 49q-33 33 -41 60t-8 78q0 45 4 74.5t10 46.5q-8 12 -18 12q-8 0 -18.5 -8.5t-30 -26.5t-51 -47t-80.5 -72 q-6 -16 -16.5 -29.5t-32 -28.5t-55.5 -33.5t-87 -45.5q-41 -47 -84 -47q-2 0 -12 5t-23.5 15.5t-26 24.5t-18.5 35q-8 29 -21.5 49t-25.5 38.5t-20 39t-8 49.5zM131 14q0 -16 14 -16q12 0 28.5 13.5t39.5 35t50.5 47t60.5 51.5q6 10 14 18.5t23.5 24t41 40t66.5 65.5 q0 8 11.5 29.5t27.5 46t34.5 47t30.5 33.5q37 92 41 92q0 25 -20 24q-16 0 -64 -41q-18 -10 -38.5 -29.5t-51 -52t-72.5 -81t-104 -119.5q-6 -8 -27.5 -41t-45 -70t-42 -70.5t-18.5 -46.5zM629 573q6 -6 12 -8q2 3 6 15q-2 0 -9 -3.5t-9 -3.5z" />
<glyph unicode="b" horiz-adv-x="845" d="M-59 47v55q0 16 17 47t36.5 63t37 59.5t17.5 37.5q0 74 6 88l13 13q2 25 38 84q27 43 48.5 117.5t38 150.5t27.5 138.5t18 80.5q0 4 9 12t9 19q0 8 -6 14q2 6 11 23.5t9 27.5q0 8 -6 17q2 4 18.5 22.5t16.5 28.5q0 4 -4 12q29 20 56.5 62.5t66.5 119.5v33q2 18 13 54 t34 90l-4 -488q0 -4 -7.5 -12t-7.5 -15v-20q0 -25 -5 -70t-12 -96t-16.5 -100t-17.5 -78q-2 -6 -13 -29.5t-11 -29.5q0 -16 18 -29q167 149 309 149h2q43 0 65.5 -5t40 -22.5t34 -51t43.5 -89.5l2 -20q4 -4 9 -5t5 -26q0 -23 -4 -30t-33 -15q10 -10 10 -24q0 2 -6 8v-23 q0 -8 -6 -8q-4 2 -12 2l6 6l-2 -2q-2 -2 -6 -4l-23 -16q12 4 29 4q-12 -4 -18.5 -21.5t-10.5 -17.5q-2 0 -3 2t-3 2v-2q0 -2 -1 -3t-1 -3h16q0 -2 -2 -2q8 -2 9 -13q0 -4 -4 -8q0 2 -7 8l-14 -24l-6 10l8 8l-14 -4q0 -4 4 -10t4 -10q0 -2 -4 -6q2 0 2 -4q0 -8 -12.5 -20.5 t-12.5 -20.5q-2 0 -17 -15.5t-39 -40t-53.5 -54.5t-60.5 -60q-49 -29 -98 -72q2 -6 2 -29q-8 -4 -37.5 -24.5t-83.5 -57.5q-16 -8 -47 -27.5t-74 -25.5q-4 -4 -17 -12t-24 -8q-6 0 -15 1t-23 3l-48 6l-7 8t-16 18.5t-19.5 19.5t-18.5 9q-10 25 -31 53q8 0 28.5 -10t31.5 -10 q10 0 21 9t24 9q98 0 205 82q25 18 72.5 60.5t101.5 111.5q29 27 65.5 63t70.5 76.5t60.5 86t34.5 88.5q14 14 14 16q0 4 -4 16l-8 19q-4 4 -12 4l4 8q4 8 4 10v4q-2 0 -3 -3t-3 -3q2 0 -1 3t-7 3q-6 0 -11 -2l11 -6q-2 0 -2 -2q0 -6 2 -8q-4 0 -14.5 -3t-16.5 -3t-20.5 6 t-20.5 6q-37 0 -77 -10t-97 -33q-66 -47 -101.5 -63.5t-59 -31.5t-43 -47t-50.5 -110l2 -4q0 -4 -1 -7l-3 -9q-49 -72 -93 -125t-79 -119q2 -4 2 -22q-20 -31 -37 -31q-23 0 -84 49q4 10 6 10q-27 20 -26 39zM696 575q5 1 21 11q-4 2 -10 2q-10 0 -11 -13zM838 350 q0 14 18 15q6 -7 6 -11q-4 0 -12 -2t-12 -2z" />
<glyph unicode="c" horiz-adv-x="677" d="M-14 305q4 35 9 63.5t13 51.5q0 2 25.5 24.5t38.5 67.5q27 23 46 59.5t23 87.5q12 10 16.5 9.5t14.5 8.5t33.5 43t77.5 116q55 4 68.5 8t23.5 20q37 -16 91 -53t120 -113l-4 -34q-6 0 -21.5 -4.5t-23.5 -4.5q-10 0 -33 9.5t-33 9.5q-82 0 -199 -234q-100 -197 -106 -264 q-5 -49 -5 -84v-11q1 -38 13 -60.5t40 -31.5t73 -9q41 0 89 14t97 35.5t96 47t82 50.5q6 6 19.5 14.5t29 23.5t32 40.5t30.5 62.5l20 -94l-37 -61l-28 -11q-10 -8 -41 -29.5t-80 -58.5q-27 -20 -77 -50t-103.5 -57.5t-100.5 -47t-69 -19.5q-18 0 -33.5 1t-29 10.5t-30 31 t-38.5 60.5q-18 20 -44 53t-47.5 78t-33.5 102q-7 33 -8 71q0 28 4 58z" />
<glyph unicode="d" horiz-adv-x="1038" d="M29 41q0 86 47 127q6 51 46 112.5t79 110.5q6 4 11 5t13 7.5t18.5 22.5t26.5 49q20 8 30.5 18.5t23 26t32 39t56.5 57.5q35 18 86 74q-8 0 -9 2q0 4 17.5 9.5t38 10.5t39.5 9l18 4q25 0 80 -14q14 -14 33.5 -21.5t79.5 -21.5q16 41 23 55t16.5 35.5t28 65.5t57.5 145 q4 14 9 37.5t13 46t19.5 39t25.5 16.5q6 0 24.5 -8t24.5 -8q8 0 13 4q12 -23 43.5 -42.5t48.5 -19.5h2q-4 -33 -7 -56.5t-14.5 -58t-35 -89t-68.5 -146.5q-49 -104 -78 -158.5t-49.5 -86t-37.5 -57.5t-44 -75q-8 -55 -24.5 -100t-16.5 -51q0 -104 102 -105q8 0 22.5 2 t22.5 2q23 0 33 -8q18 0 35 14q0 -20 8 -55q-8 4 -14 8q0 -6 -6 -16q-51 -20 -79 -28.5t-43 -10.5t-25.5 0t-28.5 2q-25 0 -40.5 10.5t-29.5 35t-32.5 66.5t-49.5 107q-2 2 -10 2q-10 0 -21 -10q-66 -59 -143.5 -130t-181.5 -128q-6 -2 -8.5 -1t-7.5 -1t-13 -10t-25 -29h-10 h-25.5t-42 5t-44 18.5t-31.5 37.5q-10 14 -30.5 43t-20.5 64zM137 -10q0 -6 5 -12.5t5 -8.5h13q39 16 59.5 22.5t33.5 11.5t24.5 11t31 21.5t53 42t93.5 72.5q10 12 24 30l31 21q6 12 20 26q14 6 24.5 15.5t22 23t28 33.5t40.5 47q12 6 21.5 15.5t17.5 25.5t15.5 43t13.5 70 q2 8 12 34.5t10 28.5v15q-20 10 -22 10q-14 0 -33 -13l-25 -16q-43 -18 -202 -158q-23 -23 -32 -38t-30 -27q-66 -66 -114 -125t-78.5 -105.5t-46 -77t-15.5 -38.5z" />
<glyph unicode="e" horiz-adv-x="866" d="M10 367q10 20 27 90q0 8 4 11t10 9t14.5 19.5t14.5 42.5q14 8 18 17t9.5 20.5t14.5 25.5t34 35l37 31q16 20 40.5 47.5t59.5 62.5l63 35q33 14 39 47h17q6 0 21.5 -14.5t23.5 -16.5q70 -10 105.5 -16t37.5 -6q35 -8 73 -29.5t69.5 -49.5t53 -59.5t21.5 -60.5 q0 -61 -24.5 -106t-61.5 -76t-82 -49.5t-84 -28.5t-68.5 -13t-37.5 -3q-154 0 -201 37q-78 -127 -78 -195q0 -16 29 -57q14 -18 23.5 -29.5t19.5 -16.5t26.5 -7.5t43.5 -6.5q8 -4 27.5 -17t64.5 -13q70 0 192 57q35 16 65.5 34.5t54.5 35t40 28t20 11.5q6 0 15 -5 q-4 -31 -19 -69q-4 -4 -35.5 -41t-86 -79t-130 -77t-165.5 -35q-33 0 -71 20.5t-75 51.5t-68.5 65.5t-54.5 61.5q-25 33 -42 73t-26.5 80t-13.5 73.5t-4 54.5zM260 414q41 -12 43 -13q20 0 103 52q51 33 78.5 59.5t41 49t18.5 41t11 36.5q-25 25 -37 25l-59 -37 q-39 -23 -65.5 -47.5t-48 -50t-41 -55.5t-44.5 -60z" />
<glyph unicode="f" horiz-adv-x="864" d="M-150 158q2 27 46 100q14 -18 32 -18q6 0 23.5 5t25.5 5q6 0 6.5 -2t6.5 -2q10 0 43 13t57 22q10 4 37 8t59.5 11t65.5 19.5t53 30.5v6q0 16 2 27q29 53 41 86t12 51q29 10 36 55.5t22 106.5q8 6 31.5 26.5t23.5 41.5q0 12 -2 21t-2 13q14 10 25 25q10 12 17 27.5t7 33.5 q0 6 -4 13.5t-10 9.5q14 14 26.5 31.5t24.5 42t27.5 58.5t35.5 79q35 12 35 41q0 8 -2 14q31 47 71 118t89 169q8 4 21.5 13t31.5 20q53 -35 66 -35h6q0 2 6 2h-2q0 -4 36 -16.5t114 -30.5l-21 -111q4 -12 16 -12h5q-25 -49 -97 -92q8 8 8 16q0 18 -32 45q-61 -27 -62 -63 l-12 -18q-12 -17 -27.5 -38.5t-29 -41t-13.5 -21.5q0 -4 3 -7t3 -5q-20 -20 -27 -26.5t-28 -27.5q4 -4 4 -10q0 -8 -1 -17t-9 -24q-8 -2 -14 -3t-12.5 -6t-16.5 -16.5t-27 -29.5q14 -8 31 -8q-8 -8 -14 -15.5t-13.5 -18.5t-19.5 -29.5t-35 -51.5l21 -10v-15q-14 -6 -41 -20 q2 -4 2 -18q-2 -2 -5 -4.5t-8 -6.5q4 -4 5 -12q0 -12 -15.5 -31.5t-36.5 -42.5q4 -8 4 -18q0 -2 -11 -16.5t-24.5 -33t-24.5 -35t-11 -22.5q0 -4 18 -16q16 4 25 16q2 -2 6 -4q6 -2 6 -6q0 -6 -8 -12l8 -6q8 4 18.5 8t26.5 10q4 12 14.5 20.5t21.5 13.5t20.5 11t11.5 14 q-2 0 13 10.5t33.5 25t35 32.5t16.5 33q0 4 -6 10q23 -20 34 -31.5t16 -21.5t6 -20.5t1 -26.5q0 -20 -4 -37q2 6 -7 -7.5t-25.5 -38t-37 -55t-42 -58.5t-41 -47t-31.5 -21q0 20 10 20q-16 6 -19 16.5t-3 20.5t-3.5 18t-19.5 8q-14 0 -100 -49q-49 -27 -69.5 -41t-27 -26.5 t-7.5 -26.5t-13 -43q-14 -8 -19.5 -24.5t-10.5 -39t-15 -47t-37 -47.5q2 -2 2 -8q0 -10 -20 -43q8 -2 17 -6t24 -10v-10q-37 -6 -60.5 -43t-41 -90.5t-31 -116t-25.5 -121.5q-61 -37 -92 -133q-8 -4 -15 -4q-27 0 -26 14q0 8 7 42t14 74t14.5 79t7.5 57q0 182 -49 340 q-2 12 -84 49q-8 16 -25.5 26.5t-65.5 43.5zM88 -104q0 -47 21 -68q14 10 24 39t27 72v38q0 23 20 37q-4 8 -4 13q0 8 5 17t13.5 25.5t18.5 41t20 63.5h-18q-35 -6 -67.5 -31.5t-32.5 -56.5q0 -8 2 -10q-8 -12 -13 -13v9l1 -14q1 -13 2.5 -31.5t1.5 -37v-26.5t-3.5 -11 t-7.5 -8t-7 -16.5t-3 -31.5zM285 -113l6 2l6 -14h-6zM514 442q6 0 12 2h13q0 8 -7 15q-4 -4 -8 -8.5t-10 -8.5zM561 514q0 18 8 21q6 -3 6 -17q-12 -4 -14 -4zM655 322q0 -4 2 -7q8 10 20 27t28 37q-49 -39 -50 -57z" />
<glyph unicode="g" horiz-adv-x="985" d="M-182 -1128q0 55 14 112v8q0 27 12 74q219 391 404 580q14 31 36.5 55.5t45 47t41 46t22.5 47.5q2 0 2 1t2 1q-2 16 -1 37t5 43q0 4 5.5 14.5t11.5 22.5t10 21.5t4 13.5q0 12 -14 27q-23 -6 -72 -50q-78 -72 -133 -93t-113 -21h-63.5t-49 14t-44 50t-47.5 106l-15 14 q0 8 17 16q0 2 -12.5 15.5t-12.5 19.5t16.5 14.5t16.5 14.5q0 2 -6 2q-8 0 -10.5 -2t-4.5 -2q4 8 9.5 17t9.5 20q12 -14 20 -15q2 2 2 19q12 -10 10 -4t5 6q2 2 -2.5 -3t14.5 5l-8 10q-8 4 -7 6t3 4t3 2t-7 0v31l6 -4q12 -4 14 -4q16 0 16 -2l4 8q0 4 4.5 8t-4.5 4 q-2 0 4.5 3.5t4.5 3.5q0 6 2 18t2 18q12 0 19 16.5t9 20.5q0 2 3.5 6t1.5 9v16q12 4 13 13t5 20q8 29 34.5 54.5t76.5 68.5q10 16 24 29.5t28.5 24.5t25 22.5t12.5 23.5q18 8 53 39q-2 6 -2 20q31 25 63.5 50.5t64.5 48t63.5 38t58.5 19.5q4 2 22.5 15.5t26.5 13.5h96 q29 0 52.5 -9.5t45.5 -19.5q-4 -2 -25.5 -20.5t-41.5 -18.5q-6 0 -9 2t-8 2q-47 0 -88 -21.5t-81.5 -58.5t-87 -88t-101.5 -110q-20 -27 -82.5 -114t-183.5 -267q-6 -18 -13.5 -47t-17.5 -68q4 -4 4 -6q0 -4 -4 -11.5t-4 -9.5q6 0 10 14.5t6 14.5t23 -29q8 0 8 5q-2 2 -2 4 t-2 4h16q37 0 65 4t62.5 19.5t85 46t131.5 83.5q35 16 49.5 32.5t25.5 42.5t25.5 61.5t47.5 87.5q31 68 50.5 99.5t35.5 49.5t31.5 35.5t36.5 56.5q-2 4 -3 23q4 18 46 47q16 -12 37.5 -25.5t48.5 -29.5q-12 -8 -13 -17q0 -14 10.5 -24.5t10.5 -18.5q0 -10 -15 -47 q-8 -27 -13 -44t-10 -31.5t-14.5 -29t-25.5 -36.5q-37 -49 -47 -73t-14.5 -43t-9.5 -45t-34 -77q-4 -10 -10 -34.5t-28 -84.5h2q-2 0 -2 -2q-8 -20 -18.5 -44.5t-22.5 -55.5l10 4l88 41l29 16l18 7l14 12l17 6l14 8l59 31l27 16l29 21l8 2l39 22l12 4l2 -12l-33 -37l-4 -2 l-4 -8l-22 -20l-19 -17l-2 -6l-39 -33l-28 -22l-25 -17l-35 -24l-20 -12l-56 -33l-12 -4l-35 -21l-51 -29l-10 -8h-4q-20 -57 -26.5 -86.5t-16.5 -44.5q2 -4 -1 -18.5t-8.5 -31.5t-10.5 -32.5t-5 -17.5q0 -10 -9 -27.5t-11 -23.5q2 -12 -2 -27q-2 -6 -4 -10 q-4 -4 -15.5 -21.5t-24 -38t-23.5 -42t-17 -35.5q-4 -2 -13.5 -15.5t-20.5 -30t-20.5 -31t-11.5 -14.5q-31 -61 -60.5 -106t-61 -84t-67.5 -76t-83 -84q-20 -6 -44 -22.5t-46.5 -32.5t-44 -28.5t-35.5 -12.5q-59 0 -86 16q-2 10 -3 23.5t-1 26.5zM-53 -950q10 -66 37 -66 q2 0 21.5 20.5t44 48t46 53.5t27.5 36q12 16 37.5 60t51.5 92.5t46.5 87.5t22.5 45q2 4 21.5 50t41.5 101q27 66 64 146q-10 -2 -46 -39t-76 -82t-72 -86t-36 -54q-18 -2 -33.5 -16t-31 -44t-33 -75t-41.5 -106q-51 -76 -71.5 -119t-20.5 -53zM786 811l2 -2q-2 0 -2 2z" />
<glyph unicode="h" horiz-adv-x="1058" d="M-76 129q2 29 20.5 53.5t52.5 55t81 70.5t106 98q25 16 47.5 35.5t71.5 78.5q0 4 -2 10.5t-2 10.5q0 23 7 39t22 45q-4 8 -9 34l39 152q14 47 29.5 84t32.5 70q2 2 2 12q0 12 -3 31.5t-3 23.5q0 18 37 70q4 12 7 21.5t11 21.5t20.5 28.5t34.5 40.5q-2 8 -2 35 q4 23 37 84.5t92 163.5q29 20 57.5 46t88.5 52q12 0 20 -18h21l32 25l29 -17q29 43 41 43q2 0 16.5 -8t31 -17.5t30.5 -17.5l14 -8q8 0 8 2t7 2q16 0 30.5 -16.5t25.5 -42t18 -55t7 -56.5q-31 -53 -74.5 -125l-101.5 -168q-10 -4 -21 -11t-28 -17q-2 -6 -3 -11.5t-5 -11.5 t-15.5 -12t-33.5 -17q0 -6 11 -13t11 -9q-6 -2 -12 -2q-8 0 -10 2q-27 -16 -27 -45q0 -12 2 -19q-16 0 -42.5 -18.5t-26.5 -36.5q0 -4 2 -6t4 -6h-45q-2 -12 -4 -20.5t-8.5 -19.5t-17.5 -28.5t-34 -46.5q-6 -16 -41 -66.5t-75.5 -109.5t-74.5 -118.5t-40 -96.5l-37 -246 q0 -4 -1 -13t-1 -26q0 -8 -2 -26.5t1 -38t12 -33.5t30 -14q23 0 33 27.5t24.5 75.5t39 111.5t75.5 135.5q29 18 39 39.5t24.5 51.5t40 68.5t80.5 92.5q8 23 36 42t48 19q4 0 22.5 -6t39 -14.5t39 -15.5t20.5 -11q-14 -82 -31.5 -157.5t-33 -138t-25.5 -107.5t-10 -64 q0 -37 14 -55.5t53 -18.5q23 0 54 9q6 10 19 25t30.5 31.5l35 33t31.5 28.5q6 -23 11.5 -47t11.5 -53q-4 -10 -7 -27.5t-14.5 -36t-35 -35t-68.5 -22.5q-16 -6 -28.5 -10t-22.5 -8t-17 -6q-55 0 -97 22.5t-69.5 54t-41 62.5t-13.5 45q0 10 8 22q-2 33 -6 64q-4 27 -7 56.5 t-7 53.5v5q0 2 -8 2q-12 0 -18.5 -9.5t-9.5 -21.5t-4 -22.5t-3 -14.5q-4 4 -8 7t-13 9q-10 -10 -23.5 -36.5t-27.5 -59.5t-29.5 -66.5t-27.5 -58.5q-12 -33 -19.5 -50t-16.5 -32.5t-23.5 -38t-39.5 -69.5h-26q-6 0 -26.5 16.5t-43 38t-40 42t-19.5 28.5v45q-4 4 -8 7t-13 5 q-12 29 -25.5 87t-13.5 106v26q-2 2 -12 2l-76 -47q-4 2 -7 4l-9 6q-8 -2 -10 -12t-27 -39q-2 2 -12 2q-20 0 -45 -18.5t-74 -63.5q-10 6 -17.5 13.5zM463 694q35 41 118 148.5t181 285.5q29 16 48 52.5t33.5 74t24 71.5t13.5 46q-35 -6 -70 -33q-10 -16 -42 -51 t-67.5 -72.5t-66.5 -73.5t-41 -55q4 -6 4 -12q0 -2 -35 -94t-100 -287z" />
<glyph unicode="i" horiz-adv-x="520" d="M-4 145q0 18 6 28.5t14.5 22t17.5 27t15 45.5q10 33 16.5 51.5t17.5 36t29.5 37t55.5 56.5q16 16 18 45q63 41 82 41q4 0 32 -13.5t103 -56.5v-19q0 -31 -5 -51t-17 -40.5t-30.5 -45t-43.5 -65.5q-12 -51 -17 -77t-17.5 -57.5t-39 -85t-81.5 -159.5q-23 0 -43.5 20.5 t-37 50t-27.5 65.5t-15 67q-2 10 -7.5 14t-11.5 11t-10 18.5t-4 33.5zM430 1001q0 14 4 38t10.5 45.5t15.5 38t19 16.5t33 -18.5t47.5 -43t43 -47t20.5 -31.5q2 -10 15 -35.5t13 -35.5q0 -6 -13 -28.5t-15 -31.5q-71 -65 -98 -65h-1q-14 0 -30.5 23.5t-30.5 56t-23.5 65.5 t-9.5 53z" />
<glyph unicode="j" horiz-adv-x="557" d="M-199 -780q0 16 2 18q8 14 13.5 35.5t7.5 43t3 39t1 23.5q6 12 11 21.5t12.5 25t16.5 42t23 71.5q6 23 11.5 43.5t13.5 45t23.5 58t40.5 83.5q0 12 4 23t10 26.5t15 39t18 62.5q8 12 12 22.5t10 30t19.5 53t37.5 93.5q6 6 22.5 6t16.5 16q0 4 -11 16.5t-11 18.5 q0 4 4 14.5t9 22.5t9.5 23.5t4.5 13.5q0 16 -23 16q-10 0 -57 -47l-50 -49q-49 -37 -153 -84q-4 0 -4 10q0 6 8 17.5t8 15.5t-8 11t-8 14q0 16 31 47l36 28l-4 9q2 4 12.5 15t31 33.5t53 58.5t83.5 89q4 0 24 21.5t44.5 53.5t50 72t39.5 78q6 53 41 60.5t82 7.5 q10 -4 64 -35v2l-17 -61q2 -14 2 -26.5v-26.5q-2 -27 -8 -69t-16.5 -91t-23.5 -101.5t-28 -95.5q-12 -35 -32.5 -96t-69.5 -160q-4 -10 -4 -19t-6 -31.5t-23.5 -66t-56.5 -122.5q0 -23 -16.5 -62t-40.5 -98v-36.5t-39 -47.5q2 -10 3 -19.5t1 -17.5q0 -16 -14.5 -34.5 t-28.5 -47.5h2v-22q0 -18 -8 -19l-3 8q-4 9 -8 20t-7 19l-3 8q-2 0 -2 -8v-20q16 4 23 4v-17q-6 -4 -15.5 -16t-19.5 -26.5t-19.5 -26.5t-15.5 -14q16 -29 16 -41q-10 -20 -18 -37q-6 -14 -11 -26.5t-5 -16.5h-19q-41 0 -80 21.5t-39 64.5zM369 1073q16 16 28 17q80 0 99 -7 q12 -4 29.5 -21.5t33.5 -37.5t27.5 -40.5t11.5 -33.5q0 -2 -1 -3t-1 -3q8 -18 8 -24v-21q-37 -14 -61 -14q-4 0 -23.5 15t-44 36.5t-47 43t-33.5 36.5q0 23 -26 57z" />
<glyph unicode="k" horiz-adv-x="858" d="M16 -80l11 27l22 108l8 17l6 32l21 74l12 53l33 95l10 57l23 51l6 27l18 47l35 102l6 6l101 232l86 158l92 139l33 37l28 22h11l26 -26l4 -64l-20 -59l-21 -35l-18 -51l-31 -56l-49 -118l-23 -45l-36 -95l-17 -41l99 52l90 30h39l53 -30l10 -29l-6 -57l-21 -29l-4 -16 l-51 -37l-90 -64l-49 -24l-41 -31l-105 -55l334 -199l109 -76l10 -12l33 -25l108 -78l27 -36l2 -17l-12 -4l10 -12v-15l-27 11l-16 -2l-23 12l-30 6l-94 41l-328 158l-172 108l-6 -16l-47 -139l-2 -27l-7 -8v-43l-10 -47l-8 -4v-19l-45 -14v-19l-27 -14l-12 6l-31 4l-6 21 l-27 26z" />
<glyph unicode="l" horiz-adv-x="663" d="M-207 66q25 14 65 37.5t97 52.5v-2q16 25 74 71q35 31 55 54.5t37.5 55.5t35 79t46.5 125l14 26q12 18 12 31q0 8 -6 16q25 49 68 139.5t98 191.5t120.5 202.5t133.5 171.5q75 26 133 26h4q61 0 86 -18q2 -10 3 -22.5t1 -24.5q0 -55 -14 -113v-10q0 -25 -12 -74 q-219 -391 -404 -579q-14 -31 -36.5 -55.5t-45 -47t-41 -45t-22.5 -47.5q-2 -2 -9 -12t-15.5 -24.5t-15.5 -29t-7 -26.5q-2 -8 4 -21.5t16 -35.5l21 -49q0 -70 143 -70q10 0 33.5 8t50.5 17.5t50.5 16.5t31.5 7q55 0 68 -61q0 -12 -2 -17l-2 -8q-27 20 -66 21 q-16 0 -137 -31q-84 -39 -166 -39q-31 0 -61.5 2t-57.5 12t-50.5 33t-39.5 61q-14 29 -31.5 36t-32 6t-23.5 -5t-9 2q0 2 18 2q-10 0 -29.5 -9t-41 -20.5t-41 -21.5t-27.5 -14h-29q-35 0 -45 29zM281 424q10 4 45.5 41t75.5 82t72 86t36 53q18 2 33.5 16.5t31 43t33 73.5 t41.5 109q51 76 71.5 119t20.5 53q-10 65 -35 65h-1q-2 0 -21.5 -21.5t-44.5 -48t-46.5 -52t-27.5 -35.5q-12 -18 -37.5 -62.5t-51 -91.5t-46 -86t-22.5 -45q0 -2 -10.5 -25.5t-24 -56.5t-29.5 -71t-30.5 -70.5t-23.5 -53.5z" />
<glyph unicode="m" horiz-adv-x="1378" d="M4 25q0 14 64 282q12 12 26 33q37 106 78 210.5t76 180.5q-2 -2 6 14.5t22.5 39t31 41t30.5 18.5q12 0 28.5 -8.5t31 -21.5t24.5 -28.5t10 -27.5q0 -8 -20 -51q-12 -25 -22.5 -57t-24 -76t-34 -104t-55.5 -144v-17v-2h3q2 0 3 -1t5 -1q29 0 51 29q16 31 23.5 46 t15.5 28.5t21.5 31t40 49t73.5 86t121 142.5q29 0 52.5 20.5t43.5 20.5l23 -6q24 -7 51.5 -22t51.5 -39.5t24 -63.5v-11l-113 -393q0 -25 22 -24q8 0 40 29.5t69 68.5t69.5 77t41.5 52l8 24q8 25 20.5 52.5t26.5 51.5t27 24q8 0 8 -3.5t8 -3.5q4 0 14 4.5t22.5 8.5t24 8 t17.5 4l26 -9q25 -9 55.5 -22.5t57.5 -30t27 -28.5q0 -8 -2 -14q-20 -25 -50 -81.5t-58 -119t-46 -118.5t-18 -83q0 -37 55 -53v-23q-2 0 -12.5 -11t-22.5 -24.5t-22.5 -23.5t-12.5 -10q-14 0 -25.5 16t-28.5 43t-43 61.5t-71 71.5q-57 -43 -98 -75.5t-68.5 -54t-46 -33 t-32.5 -11.5q-10 0 -36 30t-59 95q4 -2 -10 13.5t-32.5 40t-35 51t-18.5 47.5q6 47 6 141l-10 10q-18 -20 -37.5 -42.5t-36.5 -49.5l-100 -168q-29 -37 -50.5 -69.5t-50 -67.5t-70.5 -77t-114 -97q-20 2 -26 51t-17.5 73.5t-22 37t-17.5 20.5t-7 23z" />
<glyph unicode="n" horiz-adv-x="854" d="M41 55l10 21l17 82l34 108l39 135l29 125l74 207l35 17l47 -5l24 7l31 -33v-80l80 59l47 15l80 16l108 -41l25 -22l31 -41l8 -64l-4 -67l-21 -62l-35 -117l-10 -55l-12 -29l4 -8l4 -43l-8 -33v-92l12 -45l45 -110l13 -21l-17 -4l-14 -12l-12 14l-21 2v-8l-6 -2l-47 12 l-74 86l-43 137l4 11l-4 26v107l-10 6l16 39l-2 16l6 6v60l11 69l6 58l-11 24l-18 17l-35 4l-45 -10l-24 -68l-17 -25l-18 -57l-13 -20l-10 -37l-31 -68l-47 -108l-2 -17l-20 -45v-14l-10 -17l-23 -59l-20 -31l-19 -6v-10l-20 4h-39l-17 23l-20 12l-23 31l-14 4z" />
<glyph unicode="o" horiz-adv-x="966" d="M10 104q0 18 6.5 56.5t6.5 56.5q8 2 29.5 12.5t21.5 30.5q0 6 -5.5 26.5t-5.5 24.5q20 16 31.5 30.5t24 33t28 45t41.5 69.5q8 12 34 41t59.5 64t71.5 73t72 68.5t59.5 50t31.5 19.5t17.5 -3t17.5 -3q16 0 55 57q4 -2 15.5 -10t27.5 -23l62 -14q25 -12 73 -31 q51 0 81 -27.5t45.5 -71.5t20.5 -98.5t5 -105.5q0 -100 -45 -188q-12 -59 -38 -105.5t-74 -87.5t-122.5 -85t-185.5 -101q-4 -2 -57 -8q-57 -68 -164 -68q-51 0 -66 10l-75 64h-7q-31 0 -48 21.5t-24 47t-10.5 49t-7.5 29.5q10 16 11 25q0 6 -6.5 14t-6.5 12zM180 82 q0 -16 18.5 -35.5t34.5 -19.5q113 0 256 96q33 8 78 33q8 8 23.5 36.5t40.5 75.5q4 6 9 30t12 50.5t15.5 49t14.5 26.5q0 70 25 78v22q-10 2 -23 15q6 10 6 22q0 18 -11 42t-28 24q-29 0 -129 -88q-61 -53 -105 -98.5t-78 -85.5t-60.5 -75.5t-55.5 -70.5q-2 -2 -9 -20.5 t-15.5 -40t-13.5 -41t-5 -25.5z" />
<glyph unicode="p" horiz-adv-x="931" d="M-123 -715q0 10 6 37t11 37q10 31 15 90t19 137q-2 8 -2 39q39 164 96.5 345.5t133.5 385.5q16 25 26.5 52.5t26.5 87.5q8 8 24.5 38.5t16.5 73.5q0 2 -8 2l-37 -26q-72 -53 -123 -75t-53 -22q-27 0 -27 80q0 37 10.5 62.5t25.5 45t34.5 36t38.5 34.5q174 59 184 60 q4 0 8 -2t8 -2q6 0 26.5 14t29.5 14q6 0 10 -5t10 -5t15.5 3t13.5 3q12 0 50 -3t85 -12t96 -28.5t86 -52.5q27 0 49.5 -15.5t39 -38t26.5 -51t12 -53.5q0 -4 6 -13t6 -15q0 -2 -4 -12.5t-9 -21.5t-10 -20.5t-5 -13.5q-2 -18 -10.5 -63t-24.5 -105q-8 -14 -21.5 -40.5 t-32 -57.5t-43 -60.5t-55.5 -50.5v2q0 2 -10 13q-10 -10 -10 -21q-2 2 -7 15.5t-9 13.5q-31 0 -177 -127q-29 -6 -56.5 -25.5t-78.5 -50.5q-29 0 -84 -12q2 0 -23.5 -45t-43.5 -131q-2 -12 -18.5 -64.5t-55.5 -132.5q4 -12 4 -25q0 -4 -1 -6t-1 -6v6q0 18 -14 60 q-8 0 -15 -80q-25 -43 -37 -89t-24 -83t-29.5 -61.5t-50.5 -24.5q-39 0 -39 61zM260 10l10 -12q16 12 34 19.5t54 25.5q43 43 43 53q0 4 -4 13l-6 4q20 16 49 40.5t70 57.5q10 4 18.5 5t16.5 17q-25 12 -25 23q35 16 82 53q-12 6 -12 21q0 4 6 8t14 15.5t19.5 33t19.5 59.5 q6 10 16.5 31t20.5 44.5t17.5 48t7.5 44.5q-27 16 -41.5 24.5t-18.5 10.5q-6 0 -7 -3t-7 -3q-2 0 -18.5 4t-38 10.5t-43 10.5t-37.5 4q-29 0 -49 -21q-20 -86 -42 -181t-57 -218q-18 -39 -40.5 -96.5t-51.5 -145.5zM653 322h2q2 0 9.5 3t11.5 3q-4 0 -13.5 -2t-9.5 -4z" />
<glyph unicode="q" horiz-adv-x="837" d="M-104 92q0 6 14 14.5t14 14.5q0 2 -6 2t-8 -2t-4 -2q4 8 8 17t8 20q8 -14 19 -15q2 2 2 19q23 -23 32 -23q2 2 9.5 7.5t23.5 15.5v12q-27 14 -57 14v31l6 -4q8 -4 12 -4q20 0 27.5 3t15.5 15q0 8 -10 9q-2 0 -4 -1.5t-4 -1.5q0 6 2 18.5t2 18.5q25 0 29 13.5t20 35.5 q0 4 -2 7l-33 16q25 6 31 29q8 29 31.5 54.5t66.5 68.5q8 16 21.5 29.5t26 24.5t21.5 22.5t11 23.5q16 8 47 39q-2 6 -2 20q27 25 55.5 50.5t57.5 48t56.5 38t51.5 19.5q4 2 20.5 15.5t22.5 13.5h86q25 0 46.5 -9.5t42.5 -21.5q0 2 -6.5 -3t-15.5 -13.5t-19.5 -14.5 t-20.5 -6q-4 0 -7 2t-7 2q-41 0 -83 -24.5t-85 -66.5t-89 -97.5t-96 -114.5q-18 -27 -72 -114t-163 -267q-4 -18 -10 -47t-17 -68q4 -4 4 -6q0 -4 -4 -11t-4 -9q6 0 9.5 14t5.5 14q4 -2 20 -28q8 0 8 4q-2 2 -2 4t-2 4h14q33 0 63 4t66.5 19.5t86 46t122.5 84.5 q31 16 44.5 36.5t22.5 50t22.5 69.5t41.5 91q27 68 45.5 100t33 50t27.5 35.5t32 56.5q-2 4 -2 23q4 18 39 47q14 -12 33.5 -25.5t41.5 -30.5q-10 -10 -10 -16q0 -14 9.5 -24.5t9.5 -18.5q0 -6 -13 -47q-8 -27 -12 -44t-9 -31.5t-12.5 -29t-23.5 -36.5q-33 -49 -42 -73 t-12 -43t-8.5 -45t-29.5 -77q-2 -8 -5 -21.5t-10.5 -40t-23 -69.5t-39.5 -111q2 -6 2 -28q-6 -12 -18.5 -52t-26.5 -86.5t-26.5 -86t-18.5 -50.5q6 -12 6 -22t-8 -27.5t-10 -23.5q2 -8 2 -13.5v-9.5t2 -6q-14 -16 -33 -74q-31 -18 -44 -72.5t-36 -148.5q2 -10 2 -43 q-10 -41 -20.5 -78t-24.5 -69l14 579q4 0 13 19q-2 12 -3 30.5t-1 40.5q8 31 15 86.5t25 165.5q0 4 5.5 14.5t9.5 22.5t8 21.5t4 13.5q0 14 -12 26q-20 -6 -64 -49q-35 -35 -63.5 -57.5t-54 -34.5t-50 -17t-49.5 -5h-57.5t-44 14t-38.5 50t-42 106q-2 2 -5 6t-7 8q0 8 14 16 q0 2 -10 15.5t-10 19.5zM-45 250l33 26q0 -4 -3 -13t-3 -13t2 -6q-6 0 -16.5 3t-12.5 3zM-12 -68q8 -18 24 -18v18q-4 4 -10 5q-2 0 -14 -5z" />
<glyph unicode="r" horiz-adv-x="733" d="M8 18l23 54v53l57 242l78 266l57 127l43 53l25 12h37l43 -45v-53l-4 -27l53 27l72 18h98l47 -8l86 -43l31 -28l28 -52l4 -30l-26 -27v-8l-33 -31l-31 4l-8 21l-31 12l-92 18h-26l-58 -8l-61 -30l-49 -43l-60 -80l-41 -86l-47 -174l-18 -111v-35l-21 -88l-10 -14l-39 30 l-22 -63l-25 -6l-20 10l-5 14l-34 58l-9 28l3 13l-7 6z" />
<glyph unicode="s" horiz-adv-x="692" d="M-229 -84q8 33 36 92q12 20 53.5 48t86.5 54.5t83 45t44 20.5q78 59 150.5 116.5t111.5 127.5q0 20 1 51t3 76q0 25 68 180q39 88 41 147q18 14 45.5 37t64.5 54q-2 2 21.5 -15.5t55.5 -40t66.5 -42t53.5 -19.5h12v-27q0 -88 -80 -166q-20 -14 -58 -41.5t-76 -64.5 t-66.5 -84t-28.5 -100q0 -6 30 -166l31 -166q0 -18 -31 -99q-16 -45 -28 -66q-13 -20 -21 -27q-7 -5 -11 -5h-2q-5 2 -11 2q-41 0 -89 2t-114 21q-12 18 -32.5 29.5t-45 26.5t-49.5 42t-41 80q-8 27 -45 27q-8 0 -35.5 -21.5t-62.5 -48.5t-71 -51.5t-60 -28.5zM59 119 q29 -20 52 -21q8 0 24.5 6.5t24.5 6.5q6 0 20.5 -14.5t22.5 -14.5q4 0 9 3t11 3t26.5 -6t44 -13.5t45 -13.5t30.5 -6q6 0 13 3t9 3v86q0 53 -55 191z" />
<glyph unicode="t" horiz-adv-x="712" d="M100 696q16 8 22.5 13.5t29.5 5.5q27 0 66.5 -2t96.5 -6q10 10 17.5 25.5t29.5 62.5q0 14 4.5 26.5t12.5 34t21.5 58t31.5 98.5q23 23 36 76t26 114h16h2q10 0 37 -22q6 0 21.5 4t21.5 4q4 0 19.5 -5t31.5 -11.5t29.5 -13.5t15.5 -11l-14 -21q-2 -16 -17 -51 q-43 -82 -68.5 -158.5t-64.5 -164.5q0 2 2 2t9 -19q43 -6 81 -6q35 0 60.5 2t53.5 7t60.5 13.5t77.5 20.5h15q0 -2 -11.5 -8t-24.5 -13.5t-24.5 -13.5t-15.5 -10q2 -8 16 -8h13q6 2 12 2q-4 -8 -21.5 -17.5t-37 -18.5t-36 -16t-20.5 -10q-6 0 -10 -5t-11 -13t-20.5 -16.5 t-40.5 -14.5q-4 -10 -20.5 -15t-44 -13.5t-66.5 -20.5t-86 -39q-6 -16 -11 -30.5t-14.5 -33t-22.5 -46t-36 -68.5q0 -23 -33 -74l-14 -41q0 -10 -6 -26q-6 -12 -16.5 -36t-20.5 -48.5t-19.5 -44t-13.5 -23.5q-16 -37 -16 -57q2 -10 2 -18.5v-14.5q0 -14 -2 -18 q-4 -4 -10 -22.5t-16.5 -45.5t-25 -54.5t-32.5 -49.5q-4 33 -6 64.5t-2 64.5q2 10 3 25.5t5 35.5q-6 6 -12 21q0 12 5 34.5t5 34.5q-2 4 -6 17q0 4 2 32.5t10 72.5t23.5 98.5t42.5 109.5q2 10 12 43t39 92q0 12 -36 52t-112 128z" />
<glyph unicode="u" horiz-adv-x="788" d="M-16 84q0 43 1 113.5t33 156.5q10 8 19.5 17.5t17.5 25t17.5 40t21.5 63.5q6 4 10.5 13t12.5 26.5t21.5 45t39.5 64.5q0 6 10.5 35t24.5 61.5t30.5 58t26.5 25.5q20 0 37 -32.5t17 -57.5q0 -8 -9.5 -32.5t-9.5 -32.5q0 -4 -1 -19.5t-3 -44.5q12 -18 14 -49 q-23 -47 -61 -151q-4 -2 -8 -3t-8 -6q4 -12 4 -18q0 -8 -14.5 -39t-31 -71t-30.5 -85t-14 -86q0 -2 7 -7t16 -9t17.5 -8t8.5 -6h12q8 10 23.5 18t37.5 21q29 16 47.5 33.5t31 37t21.5 40t19 42.5l146 342q6 0 17 3t17 3q4 0 15.5 -9t27 -19.5t29.5 -19.5t21 -9q12 0 16 4 q4 -2 8 -13t8 -24.5t7.5 -25t3.5 -17.5q0 -18 -19 -121l-20 -116q0 -33 32 -33q0 2 91 33q10 -41 10 -66q0 4 -5 -9t-15.5 -31.5t-26 -34t-37.5 -15.5q-35 0 -109 20q-8 2 -18 15.5t-21.5 29t-20.5 27.5t-13 12q-8 0 -19 -12q-98 -184 -158 -237q-2 0 -23.5 -9.5t-48 -18.5 t-48 -17.5t-23.5 -8.5q-27 0 -98 25q-8 18 -30.5 43t-46.5 49.5t-41 46t-17 33.5z" />
<glyph unicode="v" horiz-adv-x="696" d="M100 264v88v129l11 62l53 205l43 67l20 12l13 -4l10 4l31 -6l12 -10l2 -10l12 -19l8 -129l-36 -338v-51l-7 -16l13 -90l8 -21l12 15l131 237l76 121l117 170l84 108l39 39h10l-17 -26l9 -6l2 -13l-39 -59l-4 -21h10l-29 -47l-16 -34l-4 -25l-6 -10l-43 -111l-19 -37 l6 -10l-22 -49l2 -6l-141 -271l-37 -57l-31 -29l-66 -47h-26l-37 -10h-35l-20 10l-35 58l-29 67l-22 76z" />
<glyph unicode="w" horiz-adv-x="1089" d="M123 131v266v213l18 199l33 47l19 12h36l35 -39l25 -45v-161l-4 -39l6 -60v-71l-6 -27v-84l88 242l51 86l35 37l84 24h47l31 -24l24 -27l21 -41l18 -70l6 -37v-151v-12v-123l10 -66l9 -16h8l149 309l138 309l49 90l45 74l28 66l33 51l29 35v12l41 49l31 41h2l-15 -41v-12 l-6 -6l2 -25l-14 -39l-37 -53l4 -18l-45 -101l-39 -96l-6 -39l-19 -37l7 -12l-7 -27l-34 -86l-19 -71l-24 -45l-9 -31l3 -21l-19 -43l4 -22l-14 -37l-10 -8l-19 -64l-59 -145l-47 -92l-21 -17l-55 -45l-23 -10h-61l-62 31l-45 57l-30 84l-39 113v321h-8l-21 -39l-43 -147 v-35l-26 -96l2 -33l-31 -123l-49 -143l-39 -25h-31l-47 33l-31 31l-30 59z" />
<glyph unicode="x" horiz-adv-x="712" d="M-39 -135l10 37l43 82l31 39l92 133l123 161l-47 136l-43 178v76v69l12 23l29 28l31 11h22l12 10l25 -29l39 -80l29 -69l43 -156l116 139l111 113l80 72l31 14h26l8 -4l11 6h4l14 -35l4 -59l-2 -10l-45 -64h-6l-68 -80l-75 -78l-115 -133l-19 -16l-8 -19l-8 -4l-10 -26 l63 -172l78 -170l25 -37l6 -21l6 -2l8 -37l-2 -6l23 -37l12 -22h-8l-8 12h-9l15 -22l-37 12l-21 4l-6 -6l-18 10l-13 25l-16 -6l-117 141l-125 192l-41 -43l-4 -10l-100 -125l-22 -33l-60 -67l-8 -2l-27 -43h-10l-12 -21l-8 4l-25 -20l-27 -6l-6 10z" />
<glyph unicode="y" horiz-adv-x="966" d="M8 264q0 4 6 9.5t6 9.5q4 20 6.5 39.5t2.5 37.5v17.5t-2 17.5q10 4 36 29q-2 6 -2 22q0 18 30 62.5t69 97.5q2 2 16 21.5t37 43t53.5 43t65.5 19.5q27 0 50.5 -29.5t23.5 -58.5q0 -14 -12.5 -32.5t-29 -37t-31 -35t-20.5 -24.5q0 -35 -34.5 -105.5t-65.5 -156.5 q-2 -10 -12.5 -27.5t-10.5 -33.5q0 -35 21 -35q25 0 63.5 22.5t77.5 50t69 52t36 28.5l4 11q4 14 19.5 26t37.5 31l21 20q8 8 16 9q2 0 3 -1t3 -1q2 12 16.5 33.5t31 44t30.5 40t16 21.5q23 33 29 62.5t14.5 52t27.5 36t69 13.5q6 0 10 -1t8 -1t6 -2q8 -4 27.5 -12.5 t54.5 -24.5v-17q0 -6 -8 -20.5t-8 -24.5q-2 -10 -6.5 -67.5t-30.5 -182.5q-10 -43 -32.5 -128t-86.5 -218q-4 -23 -14 -50.5t-33 -80.5q0 -4 1 -7t1 -7q0 -31 -13.5 -58.5t-43.5 -91.5q-2 -8 -2 -13t-3.5 -12t-10.5 -18.5t-21 -31.5q2 -4 2 -23q-8 -16 -21.5 -48t-31.5 -79 l-4 -4q-2 0 -6.5 10t-6.5 10q-10 0 -26 -16q-8 -8 -15 -16q6 -16 6 -23q0 -6 -10 -11t-12 -15q6 -10 6 -19q0 -8 -10 -12t-23.5 -8t-24 -9.5t-10.5 -13.5t23 -18q0 4 -11.5 -30t-58.5 -81q6 -10 13 -37q-16 -23 -27 -84q-4 -2 -76 -2q-8 0 -21.5 5t-25.5 17.5t-21.5 31 t-9.5 44.5q0 6 7 17l6 14q6 49 24 150q0 2 12.5 31.5t27 63.5t28.5 61.5t18 27.5t12.5 -4t12.5 -4q2 0 5 3t9 17.5t17.5 44t29.5 82.5q10 16 22.5 47t25 63t21.5 57.5t13 33.5l45 147q8 4 21.5 9.5t29.5 15.5v12q-6 2 -28 21q10 10 18 29.5t8 50.5q0 12 -6 20h-14 q-86 -86 -143.5 -130t-96.5 -63.5t-64.5 -22.5t-47.5 -9q-29 25 -63 58.5t-62.5 69.5t-48 72.5t-19.5 69.5z" />
<glyph unicode="z" horiz-adv-x="1032" d="M-276 -1047q0 27 3 54.5t13 58.5v8q0 25 16 74q133 199 253 343t229 237q18 31 44.5 55t54.5 47t48.5 46.5t26.5 47.5q2 0 3 9.5t2 22.5t2 27.5t3 22.5q0 4 -11.5 14.5t-26.5 22.5t-27.5 22.5t-12.5 12.5l4 24q8 -2 12.5 -3t8.5 -1q10 0 10 6q0 12 -24.5 40t-54.5 57.5 t-55.5 51t-29.5 21.5l74 95l196 59q10 2 34 15.5t49.5 28.5t46 29.5t24.5 18.5q16 23 21.5 26t19.5 17q4 4 5 10.5t5 10.5q14 14 22.5 18t11.5 9t4 19.5t1 49.5q0 6 -3 13t-3 9h-86q-51 0 -191 -55l-81 -18h-12.5h-6.5t-12 1t-31 1t-180 67q-88 39 -148 41q-14 18 -36.5 46 t-53.5 65l17 12q16 12 35.5 31.5t35 41t15.5 40.5v12h26q90 0 166 -80q16 -20 33.5 -43.5t44.5 -44t64.5 -35t91.5 -14.5q6 0 166 31l165 30q18 0 99 -30q66 -25 82 -38t16 -24q0 -41 -2 -100t-22 -131q-18 -12 -48 -35.5t-68 -51.5t-83 -54.5t-98 -42.5l-97 -62l-8 -86 q4 -16 19.5 -14t19.5 -12l-16 -39q2 -4 18 1t16 1t13.5 -12.5t13.5 -12.5q0 -8 14.5 -17.5t31 -18.5t30.5 -19t14 -21q0 -4 -4 -16l152 61l22 6l17 13l108 45l66 37l71 28l2 -12l-39 -37l-6 -2l-4 -8l-49 -37l-2 -6l-82 -55l-70 -41l-90 -45l-16 -4l-119 -58 q-12 -29 -25.5 -62.5t-25.5 -63t-22.5 -53.5t-16.5 -30q8 -10 8 -22q0 -10 -10 -27.5t-14 -23.5q2 -8 2 -13.5t2 -9.5t2 -6q-6 -4 -25.5 -21.5t-42 -39t-42 -43t-25.5 -35.5q-20 -6 -28.5 -17.5t-12.5 -24t-7.5 -25.5t-13.5 -26q-29 -43 -62.5 -86t-63 -80.5t-49 -67.5 t-19.5 -42l2 2q4 4 6 8q-72 -92 -161 -146t-169 -54q-37 0 -63.5 12t-42.5 20q-2 10 -3 23.5t-1 25.5zM-137 -913q6 -27 22 -27q10 0 18.5 3t18.5 3q2 0 25.5 20.5t52.5 48t54.5 53.5t33.5 36q14 18 49 59t73 86t66.5 82t30.5 45q2 2 20.5 48t41.5 100q27 63 59 141 q-12 -4 -55 -40t-90 -81t-86 -86t-43 -53q-20 -14 -38 -30.5t-37.5 -43t-41 -66.5t-49.5 -102q-59 -76 -92 -131t-33 -65z" />
<glyph unicode="{" horiz-adv-x="673" d="M31 676q6 68 68.5 147.5t168.5 165.5q-4 35 -2 70t6 67q8 74 35 163t75 166t118 129t162 52q18 0 50.5 -9t64.5 -23.5t55.5 -31t21.5 -32.5q-2 -14 -46 -27.5t-97.5 -30t-99.5 -39t-50 -52.5q0 -14 4 -28.5t8 -33.5q4 -8 18.5 -24.5t30 -37t26.5 -40t9 -31.5 q0 -27 -28 -45l-11 -4q-16 -20 -61 -77.5t-123 -156.5q-78 -104 -122 -189t-50 -146q-4 -18 7.5 -44t45.5 -65q49 -55 65.5 -109.5t10.5 -109.5q0 -12 -5 -26.5t-9 -30.5q-31 -53 -45.5 -97.5t-20.5 -91.5q-4 -27 -4 -72v-110q6 -45 127 -309q4 -4 4 -15q-4 -25 -31.5 -47 t-54.5 -22q-43 0 -74.5 20.5t-51 55t-28 79.5t-5.5 92q0 27 -10.5 92.5t-23 142.5t-20.5 150.5t-4 116.5q6 33 11.5 62.5t13.5 58.5q-14 20 -38 71.5t-45.5 111t-34.5 114.5t-11 80z" />
<glyph unicode="|" horiz-adv-x="1273" d="M436 -432q4 59 10.5 116.5t12.5 110.5q12 129 25.5 229.5t35.5 178.5l29 127q10 39 22.5 101.5t25.5 139t27.5 163.5t27 172t23.5 165t17 143q4 33 7 85.5t10 123.5q6 49 13 75t7 34q0 10 -1 34.5t3 28.5q0 18 21.5 37t62.5 19q18 0 36.5 -5.5t33 -14.5t22.5 -19t6 -23 q0 -20 -7 -36.5t-7 -22.5q-4 -43 -7 -82t-7 -76q-2 -27 -12.5 -95.5t-24.5 -162.5t-31.5 -207.5t-36 -233.5t-36 -237t-34 -218t-28.5 -179t-18 -119q-20 -104 -31.5 -176t-18.5 -106q0 -23 1 -40.5t3 -35.5q-4 -31 -20 -47.5t-57 -16.5q-98 0 -105 70z" />
<glyph unicode="}" horiz-adv-x="708" d="M-162 -473q2 14 45 27.5t96.5 30t98.5 39t49 52.5q0 14 -4 28.5t-8 33.5q-4 8 -18.5 24.5t-30 37t-26.5 40t-9 31.5q0 27 28 45l11 4q43 49 102 124t114.5 155t95.5 157.5t44 132.5q4 18 -6 44t-47 65q-47 55 -64.5 110.5t-11.5 108.5q0 12 5 27.5t9 29.5 q35 53 48.5 98.5t17.5 90.5q4 27 4 72v110q-6 45 -127 309q-4 4 -4 15q4 25 32.5 47t53.5 22q43 0 74.5 -20.5t51 -55t29 -79.5t5.5 -92q0 -27 11 -92.5t22.5 -142.5t19.5 -150.5t4 -116.5q-6 -33 -11 -62.5t-14 -58.5q16 -18 39 -70.5t44.5 -112t36 -114.5t9.5 -80 q-6 -66 -68.5 -146.5t-168.5 -166.5q4 -35 2 -70t-6 -67q-8 -76 -35 -165t-75 -166t-117.5 -128t-161.5 -51q-20 0 -53 9t-64 23.5t-52.5 31t-19.5 32.5z" />
<glyph unicode="~" horiz-adv-x="1206" d="M47 156l4 63l29 70l65 94l101 117l258 252v198l14 76l17 53l47 70l55 51l53 35l64 29l53 6h63l39 -6l54 -33l47 -53l20 -29l27 -53l4 -52l-8 -26l-23 -39l-51 -59h-4l-14 -15l-68 -82l-43 -35l4 -16l-70 -47v-8l-8 -15l-26 -8v-16l-60 -51l29 -58l35 -55l34 -53l19 -21 l49 -80l100 25l117 37l148 14l-4 -4l-43 -31l-9 -12l-35 -18l-6 -9l-32 -20l4 -14l-52 -27l5 -12l-11 -8l-8 -27h8l-53 -43l80 -102l61 -78l-4 -8h-20l-6 12l-13 -4l-12 -25l-31 -22h-12l-22 -21h-21l-27 8l-84 95l-28 40l-23 -24l-26 -2l-31 -21l-12 -18l-58 -18l-49 -23 l-33 -31l-49 -18l-61 -12l-86 10h-156l-51 20l-8 8l-10 -4l-33 19l-43 31l-41 51l-21 39zM330 211l67 4l90 21l78 26l45 4l54 35l-9 18l-18 -4v27l-37 64l-18 16v18l-13 17l-22 -4l-4 -4l-39 -13l-17 -18v-12h-14v-13l-12 -8v-6l-66 -55l-24 -35l-27 -27l-12 -24zM618 864h7 l186 183v14h-10l-27 -4l-43 -10l-59 -33l-47 -45l-7 -58v-47z" />
<glyph unicode="&#xa1;" horiz-adv-x="671" d="M143 -78q18 57 37 164q10 59 19.5 100t13.5 64q14 59 37.5 137t56.5 176q8 23 21.5 62t31.5 92q4 12 13.5 31.5t19.5 48.5q18 41 39 49q4 2 17 6q14 -6 38 -39q2 -10 2 -37q3 -2 7 -10q0 -25 -11 -35q-4 -16 -11 -39.5t-15 -54.5q-2 -18 -6 -53q0 -12 -11 -64 q-2 -2 -4 -3t-4 -5v-16q-4 -4 -6 -21q-23 -94 -43 -177t-39 -155q2 -2 2 -10q-6 -33 -15 -76t-24 -100q-27 -109 -26 -107l-13 -24q-2 -2 -4 -3t-4 -3q-10 -10 -45 -10q-8 0 -37 16q-27 14 -26 20q-4 8 -6.5 15.5t-4.5 17.5v43zM410 1167q6 16 7 23.5t15 23.5v11l6 6 q0 6 -2 10v8q2 2 7.5 4t7.5 4v5q8 8 16 22l2 2q4 2 10 8q10 -2 18.5 -1t18.5 3l8 4v11q6 2 15 6q4 12 22 12q6 -6 12 -8l2 2q0 2 3 4h8l14 -14q2 0 4 2h4q4 0 6 -2q8 -14 13.5 -24.5t9.5 -18.5q2 2 6 2q2 -2 8 -17.5t6 -19.5q-2 -6 -2 -13.5t-2 -17.5v-20q-2 -14 -12 -49 q-8 -8 -19.5 -20.5t-25.5 -31.5q-6 -2 -13.5 -3t-15.5 -5q-2 2 -41 2q-6 6 -45 23q-10 2 -37 28q0 6 -2 9q-4 4 -10 9t-10 9q-6 4 -12 12z" />
<glyph unicode="&#xa2;" horiz-adv-x="931" d="M70 477q0 72 14 115q0 2 22.5 24.5t28.5 67.5q55 47 58 147q10 10 14 9.5t13 8.5t29.5 43t63.5 116q55 4 67.5 9t20.5 19q8 -2 24.5 -4t40 -5t50.5 -10t53 -20q10 -4 31 -13t37 -17l10 26l141 307l37 74l17 23l8 -2l-19 -52l5 -10l-7 -16l-14 -62l6 -12l-10 -41l-2 -24 l-4 -31l-35 -105l-20 -61v-12l-9 -43l2 -8l-4 -17q49 -37 87 -77t67 -68v-35q-6 0 -21.5 -4t-23.5 -4q-6 0 -51 18.5t-103 42.5l-61 -186l-68 -176l-67 -154l-43 -102q39 4 81 15t82.5 26.5t77.5 35t64 39.5q14 10 44 38t50 104l33 -95l-33 -61l-25 -10q-25 -16 -112 -88 q-25 -18 -70 -43t-94 -47.5t-94 -39t-70 -18.5l-39 -86l-90 -149l-29 -76l-30 -41l-6 2l-29 -29l-12 -14l-23 10l-14 -6l-8 47l-3 19l25 75l80 197l49 127q-4 6 -9 12t-11 15q-20 23 -49 54.5t-55.5 76.5t-46 102.5t-19.5 128.5zM266 348q0 -61 6.5 -101t26.5 -63l29 76 l149 350l76 170l20 45q-51 20 -55 21q-82 0 -174 -234q-78 -203 -78 -264z" />
<glyph unicode="&#xa3;" horiz-adv-x="1290" d="M-104 37q8 2 39.5 24.5t72.5 49t84 49t74 24.5l12 72q35 14 63.5 50t47.5 91q23 66 36 97.5t18 43t5 7.5t-1 -11.5t-4 -9.5t-3 15v106q0 25 12 45q-29 20 -69 21q-12 0 -33 9t-42.5 20.5t-42 20.5t-34.5 9q-43 0 -67.5 22.5t-26.5 75.5q23 20 74 19.5t108 -5.5 t108.5 -9.5t69.5 10.5q4 18 10.5 52t11.5 66.5t9 59t6 33.5q23 141 95.5 219t187.5 78q100 0 163.5 -37t88.5 -103l-58 -182q-41 66 -102 97.5t-160 45.5q0 -6 -6 -12t-13 -20.5t-12.5 -39t-5.5 -67.5q0 -16 -3 -47t-6 -63.5t-2 -59t7 -37.5l271 -51q-16 4 -10.5 3t16 -3 t17.5 -5t-5 -3q-20 0 -20 -1t7 -5t13 -10.5t-6 -18.5q14 -14 -3.5 -21.5t-38 -11.5t-30.5 -6t19 -8l-78 -33q6 -27 65 -37l-258 23q4 -18 8.5 -36.5t-0.5 -37.5q-4 -35 -17 -70.5t-35.5 -77.5t-55.5 -94.5t-78 -119.5h17q35 0 123.5 -21.5t244.5 -50.5q68 -12 123 -12 q109 0 176.5 45t104.5 141l53 35q74 -80 74 -156q0 -55 -33 -98t-82 -72.5t-106.5 -45t-106.5 -15.5q-43 0 -133 9t-228 32q-53 8 -99 12t-87 4q-106 0 -174 -24l-176 -41q23 12 42 24t19 37q-16 6 -30.5 10t-30.5 4q-23 0 -69 -6t-115 -16z" />
<glyph unicode="&#xa4;" horiz-adv-x="612" />
<glyph unicode="&#xa5;" horiz-adv-x="1198" d="M12 352v25l13 24l41 27l133 53l159 54l-18 69l-14 82v96l2 52l18 116l16 86l44 82l36 27l21 10l12 2l25 -2l6 -10h6l29 -17l18 -20l23 -86l8 -61l-10 -74l2 -33l-21 -172l17 -10l28 24l99 92l528 512l18 -10l4 -10l-8 -29h6l-16 -37l-18 -24v-12l-13 -23l-22 -16l-2 -21 l10 -10l18 4l9 -10l-103 -115l-29 -41l-26 -55l-57 -80l-46 -53l-8 -17l-55 -67l-23 -25l-10 -16l-31 -29l7 -10h172l67 -4l76 -17l6 -6l41 -12l31 -10l-6 -10l8 -15l-10 -8l-15 -4h-24l-6 -4l2 -17l-43 5l-11 -5l-2 -16l11 -6l-2 -6l-17 -6v-9l-57 -6l-51 -10l-52 -2 l-71 -4l-11 -6l-65 -6l-104 -17l-72 -16l-19 -31l-18 -47l-8 -8l2 -10l-10 -21l-13 -29l33 7l88 10l109 16l159 19h39l13 -7l2 -10l-25 -10l-4 -12l-8 -2l-29 -21l-2 -14l-18 -12l-13 -15l-12 -10l-51 -23l-29 -14l-6 -8l-18 -14l-2 -11l-58 -22l-102 -31l-88 -22l-64 -21 l-4 -10l-10 -49l-25 -47l-24 -50l-6 -4l-11 -32l-8 -7l-10 -26l-12 -39l-9 -51l-6 -25l-4 -35l-8 -28l-10 -11l-4 -12l-15 -10l-12 16l-18 39v23l-11 26l2 92l19 160l8 49l-8 -2l-82 21l-39 -12l-22 10l-2 10l-19 16l-8 7l-2 34l-6 15l16 39l6 12l37 16l98 25l78 20l45 152 l-166 -37l-71 -8l-47 2l-23 4l-35 12l-24 21z" />
<glyph unicode="&#xa7;" horiz-adv-x="0" />
<glyph unicode="&#xa8;" horiz-adv-x="815" d="M137 1624l4 27l17 32l37 29l30 6h4l17 -6l18 -8l17 2l-2 -14l20 -9l29 -26l12 -15l29 -67l2 -14v-25l-15 -25l-14 -16l-2 -4l-31 -4l-35 -4l-36 14l-17 8l-4 4l-49 35l-23 21l-4 10v27zM473 1614l23 69l20 15l21 6l6 10l45 -14l18 4l25 -31l28 -24l19 -50v-55l-27 -28 l-10 -7l-20 -6l-54 8l-41 21l-43 39l-2 31z" />
<glyph unicode="&#xa9;" horiz-adv-x="1273" d="M82 821q4 -6 6 12.5t-2 63.5q2 4 4 15.5t2 15.5l19 61q12 23 24 55q10 12 20.5 31t28.5 45q12 14 29.5 38t40.5 54q20 23 42.5 45.5t45.5 47.5q4 4 11 8t16 10l18 18q4 2 9 5.5t14 9.5q49 37 110 41l12 8l11 4q2 0 15 5t15 5q6 2 25 2q10 6 28.5 11.5t47.5 13.5l4 2l22 2 q4 0 6.5 1t6.5 1h12t18 -4l27 2q4 -4 13.5 -8t21.5 -8q12 -8 31 -19q8 -4 18 -4q-6 -2 0 -8q6 -8 20 -21q2 -4 4.5 -7t2.5 -7q25 -14 51 -25l11 -11t15 -11q2 -2 11 -6l32 -23q6 -6 13.5 -14t19.5 -18l13 -13l8 -12t10 -12l2 -6l4 -5q4 -4 8 -10t11 -16q4 -4 6 -8t8 -9 l8 -16q4 -6 4 -25q2 -2 6 -2q8 -16 11 -18q2 -16 7 -43t11 -61l4 -23v-2l2 -2l8 -2q0 -8 -2 -17l-6 -28l2 -6q2 0 4 -2q0 -10 -8 -27.5t-20 -44.5q-10 -20 -15.5 -33.5t-9.5 -23.5q-14 -23 -25.5 -37.5t-19.5 -24.5q-4 -4 -7 -9t-7 -13q-10 -4 -27 -21l2 -6q-4 -2 -4 -4 t-2 -4q-10 -6 -22.5 -12.5t-28.5 -16.5q-4 -4 -14.5 -11t-20.5 -18q-2 -2 -4 -3t-4 -3q-8 -4 -18.5 -9t-24.5 -11q-12 -4 -29 -12q-4 -4 -9 -6.5t-14 -6.5q-10 -4 -23 -7t-34 -9q-2 -2 -10 -6q-29 -8 -78 -19q-6 -2 -17.5 -3t-25.5 -5l-20 -2q-4 0 -15.5 -2t-15.5 -4 q-72 0 -143 12q-86 16 -181 62q-16 10 -38.5 23t-45.5 34q-4 2 -14 13.5t-27 29.5q-2 4 -10 16.5t-20 30.5q-4 16 -12.5 39t-18.5 53zM272 825q-4 -39 9 -65q4 -4 6 -10.5t6 -14.5q4 -4 12 -13t23 -26q10 -8 75 -39q45 -16 158 -14q-2 0 8.5 2t34.5 4q35 2 51 6q12 2 76 23 q8 4 16.5 9t18.5 9q16 6 35.5 16.5t36.5 26.5l53 62q2 2 10 16t25 41q6 10 13 23.5t17 31.5v11q8 20 10.5 36.5t2.5 32.5q-2 35 -7.5 61.5t-17.5 47.5q-6 12 -13 25.5t-16 29.5q-12 12 -18 27q-10 10 -23.5 18t-25.5 19l-53 39q-14 6 -35 14t-47 18q-25 -14 -51 -14l-66 -2 q-16 -2 -44 -23.5t-63 -48.5q-25 -10 -94 -96q-8 -8 -11 -17.5t-7 -19.5q-4 -4 -9.5 -9t-9.5 -11q-4 -12 -12 -24.5t-18 -29.5q-31 -43 -56 -114q-2 -39 0 -58zM389 930q4 18 6 33.5t11 27.5q6 4 12 13l10 15t10 19q14 12 24.5 32t14.5 48q6 6 8 5t7.5 4.5t18.5 22.5t44 60 q31 2 38 4.5t15 12.5q18 -10 50 -28.5t71 -59.5l-4 -19q-4 0 -12 -2t-13 -2q-6 0 -19 4t-19 4q-45 0 -111 -123q-29 -53 -34 -85.5t-5 -49.5q-6 -59 6 -74.5t66 -15.5q45 0 92 15.5t86 39.5q8 6 28.5 15.5t34.5 50.5l15 -51l-23 -31l-14 -6q-12 -10 -68 -47 q-14 -10 -42.5 -23.5t-58.5 -26t-55.5 -20.5t-37.5 -8q-23 0 -36 7t-42 48q-8 10 -22.5 27.5t-27 40t-19.5 53.5t-5 70z" />
<glyph unicode="&#xaa;" horiz-adv-x="702" />
<glyph unicode="&#xab;" horiz-adv-x="983" d="M123 315v29l6 41l21 39l40 65l148 134l96 75l82 52l12 6l31 10h2l29 -10l20 -11l11 -34l-5 -33l-6 -12l-67 -62l-111 -86l-121 -108l-20 -33v-15l10 -18l133 -127l21 -22l12 -33l4 -35l-4 -10l-16 -17l-25 -4l-14 4l-23 -16h-27l-38 16l-117 84l-29 33l-28 35zM457 367 l16 65l23 45l86 90l123 109l94 69l26 9l35 -15l10 -2l17 -26l12 -45l-4 -23l-23 -43l-28 -29l-13 -22l-79 -64l-101 -92l33 -39l16 -22l60 -70l12 -22l10 -27l11 -31v-16l-23 -4l-49 -33l-33 -6l-45 29l-10 4l-10 -6l-50 24l-84 92l-26 58z" />
<glyph unicode="&#xac;" horiz-adv-x="1435" />
<glyph unicode="&#xad;" horiz-adv-x="849" d="M82 373l20 37l9 12l39 12l63 6l127 17l74 8l71 4l72 2h160l37 -4l14 -8v-10l-29 -9l-2 -10l-10 -2l-29 -16l-4 -15l-22 -10l-27 -22l-53 -17l-31 -10l-6 -8l-31 10l-4 -8l-51 -27l-74 -18l-47 -11l-57 3l-51 -5l-70 9l-39 -9l-22 15v10l-17 18l-8 7l2 34z" />
<glyph unicode="&#xae;" horiz-adv-x="1230" d="M76 821q4 -6 6 12.5t-2 63.5q2 4 4 15.5t2 15.5l18 61q12 23 25 55q10 12 20.5 31t28.5 45q12 14 29.5 38t40.5 54q20 23 42.5 45.5t45.5 47.5q4 4 11 8t15 10l19 18q4 2 9 5.5t13 9.5q49 37 111 41l12 8l11 4q2 0 15 5t15 5q6 2 25 2q10 6 28.5 11.5t47.5 13.5l4 2l22 2 q4 0 6 1t7 1h12t18 -4l27 2q4 -4 13 -8t22 -8q12 -8 30 -19q8 -4 19 -4q-6 -2 0 -8q6 -8 20 -21q2 -4 4 -7t2 -7q25 -14 52 -25l11 -11t15 -11q2 -2 11 -6l32 -23q6 -6 13.5 -14t19.5 -18l12 -13q4 -6 8.5 -12t10.5 -12l2 -6l4 -5q4 -4 8 -10t10 -16q4 -4 6.5 -8t8.5 -9 l8 -16q4 -6 4 -25q2 -2 6 -2q8 -16 10 -18q2 -16 7.5 -43t11.5 -61l4 -23v-2l2 -2l8 -2q0 -8 -2 -17l-6 -28l2 -6q2 0 4 -2q0 -10 -8 -27.5t-21 -44.5q-10 -20 -15 -33.5t-9 -23.5q-14 -23 -25.5 -37.5t-19.5 -24.5q-4 -4 -7 -9t-8 -13q-10 -4 -26 -21l2 -6q-4 -2 -4 -4 t-2 -4q-10 -6 -22.5 -12.5t-28.5 -16.5q-4 -4 -14.5 -11t-20.5 -18q-2 -2 -4 -3t-4 -3q-8 -4 -18.5 -9t-24.5 -11q-12 -4 -29 -12q-4 -4 -9 -6.5t-14 -6.5q-10 -4 -23.5 -7t-33.5 -9q-2 -2 -10 -6q-29 -8 -78 -19q-6 -2 -17.5 -3t-25.5 -5l-21 -2q-4 0 -15 -2t-15 -4 q-72 0 -144 12q-86 16 -180 62q-16 10 -38.5 23t-45.5 34q-4 2 -14 13.5t-27 29.5q-2 4 -10 16.5t-21 30.5q-4 16 -12 39t-18 53zM266 825q-4 -39 8 -65q4 -4 6.5 -10.5t6.5 -14.5q4 -4 12 -13t23 -26q10 -8 75 -39q45 -16 158 -14q-2 0 8 2t35 4q35 2 51 6q12 2 76 23 q8 4 16.5 9t18.5 9q16 6 35.5 16.5t35.5 26.5l54 62q2 2 10 16t25 41q6 10 13 23.5t17 31.5v11q8 20 10.5 36.5t2.5 32.5q-2 35 -7.5 61.5t-17.5 47.5q-6 12 -13 25.5t-16 29.5q-12 12 -18 27q-10 10 -23.5 18t-25.5 19l-54 39q-14 6 -34.5 14t-46.5 18q-25 -14 -52 -14 l-65 -2q-16 -2 -44 -23.5t-63 -48.5q-25 -10 -94 -96q-8 -8 -11 -17.5t-7 -19.5q-4 -4 -9.5 -9t-9.5 -11q-4 -12 -12 -24.5t-18 -29.5q-31 -43 -56 -114q-2 -39 0 -58zM358 733l4 37q2 2 3 8q0 4 2 6t0 4q4 10 6 23.5t6 28.5v2q0 14 10 35q6 16 8 24t4 12.5t3.5 9.5t3.5 17 q16 35 23 61.5t28 75.5v6q4 4 6 9v6q4 4 6 12t8 20q6 6 10.5 13.5t38.5 17.5q4 -2 11 -2h10q2 0 5 1t7 1q6 4 21.5 12.5t34 16.5t35 15t24.5 7l7 1t16.5 3.5t18.5 3.5t13 1q10 0 19.5 -2t19.5 -7q-2 0 7 -4t19.5 -15t18.5 -27.5t4 -41.5q0 -20 -8 -26v-2q-6 -14 -10 -21.5 t-13.5 -15.5t-31 -20.5t-62.5 -39.5l-9 -4q-9 -4 -20.5 -11t-21.5 -14t-10 -12v-2l-8 -6q-4 -2 -11 -16v-4q-2 0 -2 -8v-2q0 -4 46.5 -28t160.5 -93q8 -4 7 -13.5t3 -9.5v2l-2 -2q-4 -4 -11 -5t-11 -5q-6 0 -8 2v-4h-9h-2h-4q-6 6 -24.5 12t-36.5 17l-16 6q-10 4 -30 13 t-48 26l-6 2q-14 6 -31 13t-33 17l-18 7l-9 -3q-16 -10 -29.5 -17t-31.5 -11l-2 -12v-7q-4 -10 -10 -23t-15 -28v-2q0 -6 -6 -22q-4 -8 -8 -19q-6 -10 -9 -16t-16 -21l-8 -6q0 -2 -8 -2q-2 0 -9 5t-16 20v2v14q-2 0 -4 4zM530 981q14 4 28.5 8t39.5 15q4 4 9 5t16.5 8 t32 22.5t55.5 45.5q18 12 28 35l11 21q-2 0 -8.5 2t-12.5 4q2 2 -6 0t-19.5 -5t-22.5 -6t-17 -3q-6 -4 -20.5 -9.5t-57.5 -33.5q-4 -4 -13.5 -19.5t-27.5 -48.5l-10 -31q-2 -6 -5 -10z" />
<glyph unicode="&#xaf;" horiz-adv-x="487" d="M96 236v55l8 69l11 11l-11 10l37 137l66 135l14 37l53 115l29 41l21 45l45 76l55 88l47 59l57 25l76 -17l31 -30l16 -33l-4 -33l-16 -53l-19 -33l-16 -33l-18 -33l-39 -57l-25 -29l-10 -18l-17 -25l-129 -237l-6 -27l-20 -41l-19 -34l-10 -37l-14 -60l-4 -12v-25l-15 -49 v-43l11 -2l-5 -10l5 -43l10 -51l18 -31l-6 -16l23 -29l43 -37l22 -33l-2 -26l-31 -6l-59 16l-37 22l-41 31l-18 19l-62 75l6 9l-10 12l-22 59z" />
<glyph unicode="&#xb0;" horiz-adv-x="0" />
<glyph unicode="&#xb1;" horiz-adv-x="944" />
<glyph unicode="&#xb4;" horiz-adv-x="681" d="M137 1526l4 8l13 12v4l61 56l29 20l84 62l61 36l60 15l75 10h8l11 -6l2 -8l-8 -2l-7 -17l2 -6l-10 -4l-16 -10v-6l6 -9l-8 -8l4 -16l-8 -6v-6l24 4v-2l-28 -23l-7 -20l-14 -23l-12 -14l-25 -23l-22 -16l-82 -49l-74 -33l-14 -2h-35l-25 8h-16l-12 6v8l-8 9l-11 28l2 10z " />
<glyph unicode="&#xb6;" horiz-adv-x="765" />
<glyph unicode="&#xb7;" horiz-adv-x="432" d="M53 481l6 13h2v10l9 10l-4 14l8 9h10l6 36l45 50l19 12l53 -17l59 -10l15 -22l10 8l6 -4l16 -29l11 -20h4l6 10l8 -4l6 -10l19 -23l10 -65l-2 -33l2 -15l-10 5v-5l4 -10l-27 -14l-31 -8l-18 -25l-37 4h-8l-49 17l-51 32l-15 19l-18 4l4 6l-12 12v15l-33 18z" />
<glyph unicode="&#xb8;" horiz-adv-x="819" />
<glyph unicode="&#xba;" horiz-adv-x="722" />
<glyph unicode="&#xbb;" horiz-adv-x="983" d="M27 184l4 23l22 43l29 29l14 22l90 61l121 80l-65 54l-17 22l-57 70l-14 22l-11 27l-8 31v16l23 4l49 33l31 6l47 -29l8 -4l10 6l47 -51l74 -76l70 -98l10 -49l-33 -55l-59 -35l-66 -53l-125 -109l-94 -72l-25 -6l-36 15l-25 28zM283 84v29l8 41l26 47l41 30l74 41 l227 90l23 17l-84 70l-51 53l-25 45l-18 28l-17 25l-8 51l-6 19v16l10 23l15 26l10 6l33 21l28 -4l15 -10l8 -7h8l18 -22l168 -109l62 -69l35 -58l8 -20v-8l8 -15l-2 -20l4 -8l-4 -54l-4 -24l-6 -4l-15 -17l-51 -43l-65 -32l-27 -19l-10 -2l-19 -2l-18 10l-16 -6l-4 -14 l-21 -2l-6 -8l-19 -5l-53 -10l-20 -6h-8l-23 -4l-18 -4l-35 -12l-49 -29l-7 6l-45 -27l-43 -14l-10 -6h-22z" />
<glyph unicode="&#xbf;" horiz-adv-x="907" d="M111 41q0 6 3 16.5t7 22.5t7 22.5t3 14.5q10 8 16.5 20.5t10.5 26.5q4 16 26 45q29 31 31 39q6 8 13.5 17t15.5 20l20 20q2 2 25.5 31t70.5 82q10 14 21.5 29.5t28.5 33.5q16 23 39.5 57.5t56.5 82.5q6 16 15 33.5t24 37.5l6 13l9 18t13 25l7 6q2 8 6 15t8 17q0 8 20 41 l2 2q2 2 2 11q10 0 35 30h6l21 17q47 0 47 -64q0 -47 -10 -57q-4 -29 -19 -72q-8 -31 -27.5 -78t-41.5 -86q-8 -10 -20.5 -29.5t-28.5 -45.5q-16 -31 -60 -95q-27 -31 -61.5 -81t-79.5 -119q0 -2 -17 -31q-14 -27 -14 -35t-4 -31.5t-2 -35.5q4 -16 16 -19q2 0 3 -4t6 -4 q39 0 71 12q35 6 76 15.5t90 23.5q2 2 10 2q10 -2 22.5 -3t29.5 1q16 -4 26 -6q4 -4 13 -4q6 14 14 29q6 0 6 -4t-13.5 -26t-13.5 -28q0 -4 -24 -26q-12 -10 -19.5 -16.5t-9.5 -8.5q-16 -8 -36.5 -19.5t-47.5 -27.5q-33 -10 -86 -31q-41 -6 -90 -18q-10 0 -25.5 -1t-31.5 -3 q-4 -2 -15 -2q-10 0 -27.5 3t-49.5 13q-16 8 -17 8l-18.5 18.5t-24.5 20.5q-8 14 -19.5 28.5t-25.5 31.5l-4 12t-6 14v8q-2 4 -6 17q-4 4 -4 8zM631 1151h4v4q0 14 -2 21q2 6 6 22v12q6 0 8 2v11q6 4 15.5 9t21.5 13l14 21q16 4 29 8q4 -2 39 -2q18 0 55 -43l8 -8 q8 -8 11 -19q0 -2 16 -18l16 -17q-4 -10 -7 -26.5t-15 -22.5q2 -2 2 -10l-8 -8v-19q-4 -2 -8.5 -3t-8.5 -5v-4q-6 -6 -17 -18.5t-17 -18.5q-2 -2 -43 0q-27 0 -56 17h-8q-2 0 -4 2q-23 39 -25 41h-6l-10 20q-8 10 -8 14v11q0 8 -2 14z" />
<glyph unicode="&#xc0;" horiz-adv-x="817" d="M23 -59q0 31 18 77q6 23 15.5 54.5t23.5 72.5l35 109q4 12 12 37q10 12 12 31q-2 16 -6 36q2 8 4 16.5t6 18.5q2 4 13 35v2q16 12 37 31q4 8 8 18t8 21q2 4 12 31.5t33 78.5q2 2 14 39q2 0 8 13q82 172 146 321q4 4 6 10l8 19q4 6 15.5 30.5t31.5 69.5q4 10 13 18 q23 49 61 103l10 4q17 10 21 10q35 0 76 -14q6 -6 18 -8q8 -4 17.5 -10.5t19.5 -12.5q35 -39 43 -67q4 -8 6 -15.5t6 -17.5v-11.5t2 -17.5q0 -6 4 -18v-74q-2 -10 -2 -23.5v-33.5q-2 -10 -2 -37q-4 -16 -5 -41t-3 -58q-2 -16 -4 -35.5t-6 -41.5q0 -14 -2 -25q-8 -27 -11 -53 q-4 -10 -6 -31.5t-4 -50.5q-2 -6 -2 -21l-2 -2q-4 -6 -6 -26q2 -2 2 -6l-4 -13l-4 -12q0 -4 6 -10q16 -16 16 -25q-2 -6 -2 -12q2 0 2 -2q-2 -10 -14 -27q-2 -2 -3 -4t-3 -4q2 -10 2 -22q-2 -2 -2 -4.5t-2 -6.5q0 -10 2 -16q-2 -8 -2 -33q0 -4 -6 -10q2 -8 2 -15.5t2 -15.5 q0 -4 2 -8q-2 -6 -2 -20q2 -4 2 -8.5t2 -8.5q-2 -2 -2 -6q0 -8 2 -14q-2 -6 -2 -23q2 -20 4 -43.5t6 -52.5q2 -6 2 -21v-10q2 -8 2 -16t2 -19q0 -8 -2 -14v-12q0 -8 -2 -26.5t-2 -27.5q2 -4 2 -16q-2 -2 -2 -3t-2 -3q-2 -8 -4 -15.5t-6 -17.5q0 -10 -12.5 -22.5t-10.5 -14.5 q-8 -2 -14 4l-2 -10l4 -20q-4 -6 -8 -2q-12 39 -31 112v6q-4 20 -10 42t-12 49q-2 8 -2.5 15t-2.5 17q-4 23 -8 44.5t-8 43.5q-2 8 -2 17.5t-2 19.5l-18 13q-4 8 -11.5 15t-15.5 15q-10 12 -20.5 23.5t-20.5 21.5q-10 12 -35 35q-12 -4 -20 -6q-18 -2 -43 -6q-2 0 -2 -2h-2 q-25 -2 -53.5 -6t-63.5 -9q-8 -16 -13.5 -31.5t-7.5 -31.5q-12 -31 -24.5 -62.5t-22.5 -66.5l-6 -19l-4 -12l-8 -26q-2 -4 -4 -11.5t-6 -17.5l-15 -35q-10 -23 -18 -63q-4 -4 -12 -17q-35 -27 -58 -26q-18 0 -39 20q-31 31 -30 66zM362 471h46q23 2 61.5 4t93.5 6q2 2 2 3 t2 3q0 18 1 49t3 72q4 74 6.5 127t2.5 86v21.5t-2 46.5v17.5t-3 27.5q-14 31 -12 33q-12 0 -67 -140q-4 -8 -16.5 -39.5t-35.5 -89.5q-4 -8 -15 -36.5t-32 -79.5q-8 -18 -14 -39t-14 -43q-2 -8 -7 -29zM395 1450l2 2q2 33 21 33q55 0 43 4q10 0 18 -2l13 -4q8 -4 14 -6 q2 -2 3 -2t3 -2l10 -5q6 -4 10 -10q27 -23 67 -57.5t93 -81.5q23 -20 43.5 -38.5t40.5 -39.5q78 -72 78 -74q-2 -14 -4 -16l-4 -4h-6l-6 -6h-5q-8 -6 -26 -6q-25 0 -55 14q-4 2 -16.5 6t-33.5 14q-23 10 -48 24.5t-52 35.5q-82 61 -92 67q-10 8 -20.5 17.5t-24.5 19.5 q-6 8 -14.5 17.5t-18.5 19.5q-2 2 -18 35q-14 23 -15 45z" />
<glyph unicode="&#xc1;" horiz-adv-x="817" d="M23 -59q0 31 18 77q6 23 15.5 54.5t23.5 72.5l35 109q4 12 12 37q10 12 12 31q-2 16 -6 36q2 8 4 16.5t6 18.5q2 4 13 35v2q16 12 37 31q4 8 8 18t8 21q2 4 12 31.5t33 78.5q2 2 14 39q2 0 8 13q82 172 146 321q4 4 6 10l8 19q4 6 15.5 30.5t31.5 69.5q4 10 13 18 q23 49 61 103l10 4q17 10 21 10q35 0 76 -14q6 -6 18 -8q8 -4 17.5 -10.5t19.5 -12.5q35 -39 43 -67q4 -8 6 -15.5t6 -17.5v-11.5t2 -17.5q0 -6 4 -18v-74q-2 -10 -2 -23.5v-33.5q-2 -10 -2 -37q-4 -16 -5 -41t-3 -58q-2 -16 -4 -35.5t-6 -41.5q0 -14 -2 -25q-8 -27 -11 -53 q-4 -10 -6 -31.5t-4 -50.5q-2 -6 -2 -21l-2 -2q-4 -6 -6 -26q2 -2 2 -6l-4 -13l-4 -12q0 -4 6 -10q16 -16 16 -25q-2 -6 -2 -12q2 0 2 -2q-2 -10 -14 -27q-2 -2 -3 -4t-3 -4q2 -10 2 -22q-2 -2 -2 -4.5t-2 -6.5q0 -10 2 -16q-2 -8 -2 -33q0 -4 -6 -10q2 -8 2 -15.5t2 -15.5 q0 -4 2 -8q-2 -6 -2 -20q2 -4 2 -8.5t2 -8.5q-2 -2 -2 -6q0 -8 2 -14q-2 -6 -2 -23q2 -20 4 -43.5t6 -52.5q2 -6 2 -21v-10q2 -8 2 -16t2 -19q0 -8 -2 -14v-12q0 -8 -2 -26.5t-2 -27.5q2 -4 2 -16q-2 -2 -2 -3t-2 -3q-2 -8 -4 -15.5t-6 -17.5q0 -10 -12.5 -22.5t-10.5 -14.5 q-8 -2 -14 4l-2 -10l4 -20q-4 -6 -8 -2q-12 39 -31 112v6q-4 20 -10 42t-12 49q-2 8 -2.5 15t-2.5 17q-4 23 -8 44.5t-8 43.5q-2 8 -2 17.5t-2 19.5l-18 13q-4 8 -11.5 15t-15.5 15q-10 12 -20.5 23.5t-20.5 21.5q-10 12 -35 35q-12 -4 -20 -6q-18 -2 -43 -6q-2 0 -2 -2h-2 q-25 -2 -53.5 -6t-63.5 -9q-8 -16 -13.5 -31.5t-7.5 -31.5q-12 -31 -24.5 -62.5t-22.5 -66.5l-6 -19l-4 -12l-8 -26q-2 -4 -4 -11.5t-6 -17.5l-15 -35q-10 -23 -18 -63q-4 -4 -12 -17q-35 -27 -58 -26q-18 0 -39 20q-31 31 -30 66zM362 471h46q23 2 61.5 4t93.5 6q2 2 2 3 t2 3q0 18 1 49t3 72q4 74 6.5 127t2.5 86v21.5t-2 46.5v17.5t-3 27.5q-14 31 -12 33q-12 0 -67 -140q-4 -8 -16.5 -39.5t-35.5 -89.5q-4 -8 -15 -36.5t-32 -79.5q-8 -18 -14 -39t-14 -43q-2 -8 -7 -29zM535 1526l4 8l12 12v4l61 56l29 20l84 62l61 36l60 15l76 10h8l10 -6 l2 -8l-8 -2l-6 -17l2 -6l-10 -4l-17 -10v-6l6 -9l-8 -8l4 -16l-8 -6v-6l25 4v-2l-29 -23l-6 -20l-15 -23l-12 -14l-24 -23l-23 -16l-82 -49l-74 -33l-14 -2h-35l-24 8h-17l-12 6v8l-8 9l-10 28l2 10z" />
<glyph unicode="&#xc2;" horiz-adv-x="817" d="M23 -59q0 31 18 77q6 23 15.5 54.5t23.5 72.5l35 109q4 12 12 37q10 12 12 31q-2 16 -6 36q2 8 4 16.5t6 18.5q2 4 13 35v2q16 12 37 31q4 8 8 18t8 21q2 4 12 31.5t33 78.5q2 2 14 39q2 0 8 13q82 172 146 321q4 4 6 10l8 19q4 6 15.5 30.5t31.5 69.5q4 10 13 18 q23 49 61 103l10 4q17 10 21 10q35 0 76 -14q6 -6 18 -8q8 -4 17.5 -10.5t19.5 -12.5q35 -39 43 -67q4 -8 6 -15.5t6 -17.5v-11.5t2 -17.5q0 -6 4 -18v-74q-2 -10 -2 -23.5v-33.5q-2 -10 -2 -37q-4 -16 -5 -41t-3 -58q-2 -16 -4 -35.5t-6 -41.5q0 -14 -2 -25q-8 -27 -11 -53 q-4 -10 -6 -31.5t-4 -50.5q-2 -6 -2 -21l-2 -2q-4 -6 -6 -26q2 -2 2 -6l-4 -13l-4 -12q0 -4 6 -10q16 -16 16 -25q-2 -6 -2 -12q2 0 2 -2q-2 -10 -14 -27q-2 -2 -3 -4t-3 -4q2 -10 2 -22q-2 -2 -2 -4.5t-2 -6.5q0 -10 2 -16q-2 -8 -2 -33q0 -4 -6 -10q2 -8 2 -15.5t2 -15.5 q0 -4 2 -8q-2 -6 -2 -20q2 -4 2 -8.5t2 -8.5q-2 -2 -2 -6q0 -8 2 -14q-2 -6 -2 -23q2 -20 4 -43.5t6 -52.5q2 -6 2 -21v-10q2 -8 2 -16t2 -19q0 -8 -2 -14v-12q0 -8 -2 -26.5t-2 -27.5q2 -4 2 -16q-2 -2 -2 -3t-2 -3q-2 -8 -4 -15.5t-6 -17.5q0 -10 -12.5 -22.5t-10.5 -14.5 q-8 -2 -14 4l-2 -10l4 -20q-4 -6 -8 -2q-12 39 -31 112v6q-4 20 -10 42t-12 49q-2 8 -2.5 15t-2.5 17q-4 23 -8 44.5t-8 43.5q-2 8 -2 17.5t-2 19.5l-18 13q-4 8 -11.5 15t-15.5 15q-10 12 -20.5 23.5t-20.5 21.5q-10 12 -35 35q-12 -4 -20 -6q-18 -2 -43 -6q-2 0 -2 -2h-2 q-25 -2 -53.5 -6t-63.5 -9q-8 -16 -13.5 -31.5t-7.5 -31.5q-12 -31 -24.5 -62.5t-22.5 -66.5l-6 -19l-4 -12l-8 -26q-2 -4 -4 -11.5t-6 -17.5l-15 -35q-10 -23 -18 -63q-4 -4 -12 -17q-35 -27 -58 -26q-18 0 -39 20q-31 31 -30 66zM362 471h46q23 2 61.5 4t93.5 6q2 2 2 3 t2 3q0 18 1 49t3 72q4 74 6.5 127t2.5 86v21.5t-2 46.5v17.5t-3 27.5q-14 31 -12 33q-12 0 -67 -140q-4 -8 -16.5 -39.5t-35.5 -89.5q-4 -8 -15 -36.5t-32 -79.5q-8 -18 -14 -39t-14 -43q-2 -8 -7 -29zM393 1438q0 2 2 4q0 10 7.5 24.5t31.5 49.5q10 14 22.5 29.5t26.5 33.5 q23 29 50.5 61.5t60.5 69.5q8 6 16 14.5t19 18.5q6 4 12 9t14 13q4 4 19 11q35 0 49 -15q4 -4 10 -7t15 -7q10 -8 21 -18.5t26 -20.5q6 -12 24 -33l68 -135q16 -31 33 -49v-2q4 -7 16 -23q0 -10 -12 -41q-12 -6 -21 -6q-23 0 -33 6q-4 4 -26.5 36t-61.5 91q-8 10 -18 27.5 t-27 40.5q-12 16 -26 18q-2 -2 -17 -6q-2 -2 -18.5 -20.5t-48.5 -55.5q-6 -8 -19 -24q-2 -4 -80 -94q-27 -20 -32 -47q-29 -16 -41 -17q-23 4 -29 12q-16 8 -33 52z" />
<glyph unicode="&#xc3;" horiz-adv-x="817" d="M23 -59q0 31 18 77q6 23 15.5 54.5t23.5 72.5l35 109q4 12 12 37q10 12 12 31q-2 16 -6 36q2 8 4 16.5t6 18.5q2 4 13 35v2q16 12 37 31q4 8 8 18t8 21q2 4 12 31.5t33 78.5q2 2 14 39q2 0 8 13q82 172 146 321q4 4 6 10l8 19q4 6 15.5 30.5t31.5 69.5q4 10 13 18 q23 49 61 103l10 4q17 10 21 10q35 0 76 -14q6 -6 18 -8q8 -4 17.5 -10.5t19.5 -12.5q35 -39 43 -67q4 -8 6 -15.5t6 -17.5v-11.5t2 -17.5q0 -6 4 -18v-74q-2 -10 -2 -23.5v-33.5q-2 -10 -2 -37q-4 -16 -5 -41t-3 -58q-2 -16 -4 -35.5t-6 -41.5q0 -14 -2 -25q-8 -27 -11 -53 q-4 -10 -6 -31.5t-4 -50.5q-2 -6 -2 -21l-2 -2q-4 -6 -6 -26q2 -2 2 -6l-4 -13l-4 -12q0 -4 6 -10q16 -16 16 -25q-2 -6 -2 -12q2 0 2 -2q-2 -10 -14 -27q-2 -2 -3 -4t-3 -4q2 -10 2 -22q-2 -2 -2 -4.5t-2 -6.5q0 -10 2 -16q-2 -8 -2 -33q0 -4 -6 -10q2 -8 2 -15.5t2 -15.5 q0 -4 2 -8q-2 -6 -2 -20q2 -4 2 -8.5t2 -8.5q-2 -2 -2 -6q0 -8 2 -14q-2 -6 -2 -23q2 -20 4 -43.5t6 -52.5q2 -6 2 -21v-10q2 -8 2 -16t2 -19q0 -8 -2 -14v-12q0 -8 -2 -26.5t-2 -27.5q2 -4 2 -16q-2 -2 -2 -3t-2 -3q-2 -8 -4 -15.5t-6 -17.5q0 -10 -12.5 -22.5t-10.5 -14.5 q-8 -2 -14 4l-2 -10l4 -20q-4 -6 -8 -2q-12 39 -31 112v6q-4 20 -10 42t-12 49q-2 8 -2.5 15t-2.5 17q-4 23 -8 44.5t-8 43.5q-2 8 -2 17.5t-2 19.5l-18 13q-4 8 -11.5 15t-15.5 15q-10 12 -20.5 23.5t-20.5 21.5q-10 12 -35 35q-12 -4 -20 -6q-18 -2 -43 -6q-2 0 -2 -2h-2 q-25 -2 -53.5 -6t-63.5 -9q-8 -16 -13.5 -31.5t-7.5 -31.5q-12 -31 -24.5 -62.5t-22.5 -66.5l-6 -19l-4 -12l-8 -26q-2 -4 -4 -11.5t-6 -17.5l-15 -35q-10 -23 -18 -63q-4 -4 -12 -17q-35 -27 -58 -26q-18 0 -39 20q-31 31 -30 66zM362 471h46q23 2 61.5 4t93.5 6q2 2 2 3 t2 3q0 18 1 49t3 72q4 74 6.5 127t2.5 86v21.5t-2 46.5v17.5t-3 27.5q-14 31 -12 33q-12 0 -67 -140q-4 -8 -16.5 -39.5t-35.5 -89.5q-4 -8 -15 -36.5t-32 -79.5q-8 -18 -14 -39t-14 -43q-2 -8 -7 -29zM412 1495q2 2 2 3t2 3q-2 2 -2 8q0 14 8 45q31 70 51 86q43 39 72 35 q6 2 20 2q8 -2 19.5 -3t27.5 -5q4 -2 9.5 -4t9.5 -4q12 -8 26.5 -17.5t30.5 -19.5l20.5 -20.5t22.5 -24.5q2 -2 6 -10v-2q8 -18 19 -35l2 -2l12 -4h14q25 4 32 9t18 13q14 16 33.5 40t45.5 54q37 39 50 39q45 0 43 2q4 0 20 -4q2 -2 10 -6q-4 -10 -12 -22l2 -2 q-10 -20 -39 -56q-2 -6 -12 -26l-4 -2v-6q-4 -12 -19 -33v-6q0 -4 2 -7q-4 -8 -9 -15t-11 -17q2 2 2 0q-2 0 -2 -4q-10 -6 -27 -21l-2 -2q-14 -14 -22 -18q-18 -8 -36 -10.5t-46 -2.5q-70 6 -146 47q-4 4 -28 19q-4 4 -10.5 8t-14.5 8q-4 0 -19.5 8.5t-17.5 8.5q0 -2 -3 -3 t-8 -4.5t-10 -12.5t-7 -27q-10 -25 -25.5 -29t-19.5 -4q-10 0 -17 2h-8q-4 2 -7 2t-7 2h-9q-10 2 -20 20q-4 4 -12 27z" />
<glyph unicode="&#xc4;" horiz-adv-x="817" d="M23 -59q0 31 18 77q6 23 15.5 54.5t23.5 72.5l35 109q4 12 12 37q10 12 12 31q-2 16 -6 36q2 8 4 16.5t6 18.5q2 4 13 35v2q16 12 37 31q4 8 8 18t8 21q2 4 12 31.5t33 78.5q2 2 14 39q2 0 8 13q82 172 146 321q4 4 6 10l8 19q4 6 15.5 30.5t31.5 69.5q4 10 13 18 q23 49 61 103l10 4q17 10 21 10q35 0 76 -14q6 -6 18 -8q8 -4 17.5 -10.5t19.5 -12.5q35 -39 43 -67q4 -8 6 -15.5t6 -17.5v-11.5t2 -17.5q0 -6 4 -18v-74q-2 -10 -2 -23.5v-33.5q-2 -10 -2 -37q-4 -16 -5 -41t-3 -58q-2 -16 -4 -35.5t-6 -41.5q0 -14 -2 -25q-8 -27 -11 -53 q-4 -10 -6 -31.5t-4 -50.5q-2 -6 -2 -21l-2 -2q-4 -6 -6 -26q2 -2 2 -6l-4 -13l-4 -12q0 -4 6 -10q16 -16 16 -25q-2 -6 -2 -12q2 0 2 -2q-2 -10 -14 -27q-2 -2 -3 -4t-3 -4q2 -10 2 -22q-2 -2 -2 -4.5t-2 -6.5q0 -10 2 -16q-2 -8 -2 -33q0 -4 -6 -10q2 -8 2 -15.5t2 -15.5 q0 -4 2 -8q-2 -6 -2 -20q2 -4 2 -8.5t2 -8.5q-2 -2 -2 -6q0 -8 2 -14q-2 -6 -2 -23q2 -20 4 -43.5t6 -52.5q2 -6 2 -21v-10q2 -8 2 -16t2 -19q0 -8 -2 -14v-12q0 -8 -2 -26.5t-2 -27.5q2 -4 2 -16q-2 -2 -2 -3t-2 -3q-2 -8 -4 -15.5t-6 -17.5q0 -10 -12.5 -22.5t-10.5 -14.5 q-8 -2 -14 4l-2 -10l4 -20q-4 -6 -8 -2q-12 39 -31 112v6q-4 20 -10 42t-12 49q-2 8 -2.5 15t-2.5 17q-4 23 -8 44.5t-8 43.5q-2 8 -2 17.5t-2 19.5l-18 13q-4 8 -11.5 15t-15.5 15q-10 12 -20.5 23.5t-20.5 21.5q-10 12 -35 35q-12 -4 -20 -6q-18 -2 -43 -6q-2 0 -2 -2h-2 q-25 -2 -53.5 -6t-63.5 -9q-8 -16 -13.5 -31.5t-7.5 -31.5q-12 -31 -24.5 -62.5t-22.5 -66.5l-6 -19l-4 -12l-8 -26q-2 -4 -4 -11.5t-6 -17.5l-15 -35q-10 -23 -18 -63q-4 -4 -12 -17q-35 -27 -58 -26q-18 0 -39 20q-31 31 -30 66zM362 471h46q23 2 61.5 4t93.5 6q2 2 2 3 t2 3q0 18 1 49t3 72q4 74 6.5 127t2.5 86v21.5t-2 46.5v17.5t-3 27.5q-14 31 -12 33q-12 0 -67 -140q-4 -8 -16.5 -39.5t-35.5 -89.5q-4 -8 -15 -36.5t-32 -79.5q-8 -18 -14 -39t-14 -43q-2 -8 -7 -29zM387 1464l4 27l17 33l36 28l31 7h4l17 -7l18 -8l16 2l-2 -14l21 -8 l29 -27l12 -14l28 -68l3 -14v-25l-15 -24l-14 -17l-2 -4l-31 -4l-35 -4l-37 14l-16 9l-4 4l-49 34l-23 21l-4 10v27zM723 1454l22 70l21 14l20 6l7 10l45 -14l18 4l25 -31l28 -24l19 -49v-56l-27 -28l-10 -6l-21 -7l-53 9l-41 20l-43 39l-2 31z" />
<glyph unicode="&#xc5;" horiz-adv-x="817" d="M23 -59q0 31 18 77q6 23 15.5 54.5t23.5 72.5l35 109q4 12 12 37q10 12 12 31q-2 16 -6 36q2 8 4 16.5t6 18.5q2 4 13 35v2q16 12 37 31q4 8 8 18t8 21q2 4 12 31.5t33 78.5q2 2 14 39q2 0 8 13q82 172 146 321q4 4 6 10l8 19q4 6 15.5 30.5t31.5 69.5q4 10 13 18 q23 49 61 103l10 4q17 10 21 10q35 0 76 -14q6 -6 18 -8q8 -4 17.5 -10.5t19.5 -12.5q35 -39 43 -67q4 -8 6 -15.5t6 -17.5v-11.5t2 -17.5q0 -6 4 -18v-74q-2 -10 -2 -23.5v-33.5q-2 -10 -2 -37q-4 -16 -5 -41t-3 -58q-2 -16 -4 -35.5t-6 -41.5q0 -14 -2 -25q-8 -27 -11 -53 q-4 -10 -6 -31.5t-4 -50.5q-2 -6 -2 -21l-2 -2q-4 -6 -6 -26q2 -2 2 -6l-4 -13l-4 -12q0 -4 6 -10q16 -16 16 -25q-2 -6 -2 -12q2 0 2 -2q-2 -10 -14 -27q-2 -2 -3 -4t-3 -4q2 -10 2 -22q-2 -2 -2 -4.5t-2 -6.5q0 -10 2 -16q-2 -8 -2 -33q0 -4 -6 -10q2 -8 2 -15.5t2 -15.5 q0 -4 2 -8q-2 -6 -2 -20q2 -4 2 -8.5t2 -8.5q-2 -2 -2 -6q0 -8 2 -14q-2 -6 -2 -23q2 -20 4 -43.5t6 -52.5q2 -6 2 -21v-10q2 -8 2 -16t2 -19q0 -8 -2 -14v-12q0 -8 -2 -26.5t-2 -27.5q2 -4 2 -16q-2 -2 -2 -3t-2 -3q-2 -8 -4 -15.5t-6 -17.5q0 -10 -12.5 -22.5t-10.5 -14.5 q-8 -2 -14 4l-2 -10l4 -20q-4 -6 -8 -2q-12 39 -31 112v6q-4 20 -10 42t-12 49q-2 8 -2.5 15t-2.5 17q-4 23 -8 44.5t-8 43.5q-2 8 -2 17.5t-2 19.5l-18 13q-4 8 -11.5 15t-15.5 15q-10 12 -20.5 23.5t-20.5 21.5q-10 12 -35 35q-12 -4 -20 -6q-18 -2 -43 -6q-2 0 -2 -2h-2 q-25 -2 -53.5 -6t-63.5 -9q-8 -16 -13.5 -31.5t-7.5 -31.5q-12 -31 -24.5 -62.5t-22.5 -66.5l-6 -19l-4 -12l-8 -26q-2 -4 -4 -11.5t-6 -17.5l-15 -35q-10 -23 -18 -63q-4 -4 -12 -17q-35 -27 -58 -26q-18 0 -39 20q-31 31 -30 66zM362 471h46q23 2 61.5 4t93.5 6q2 2 2 3 t2 3q0 18 1 49t3 72q4 74 6.5 127t2.5 86v21.5t-2 46.5v17.5t-3 27.5q-14 31 -12 33q-12 0 -67 -140q-4 -8 -16.5 -39.5t-35.5 -89.5q-4 -8 -15 -36.5t-32 -79.5q-8 -18 -14 -39t-14 -43q-2 -8 -7 -29zM530 1495q0 8 1 17.5t4 19.5q4 8 7 16t7 19v10q6 6 8 10q35 66 64 86 q16 10 49 25q6 2 15 4t20 6q8 -2 53 -12q10 -8 24 -19l19 -18q6 -6 12 -8q12 -10 27 -33q6 -2 12 -12q14 -29 18 -41q6 -33 7 -27q0 -57 -15 -94l-12 -12q-23 -23 -68 -52q-78 -47 -104 -32q-4 0 -15.5 -2.5t-15.5 -2.5q-10 0 -37.5 10.5t-34.5 16.5q-14 16 -23 27.5 t-14.5 25t-6.5 30.5t-1 42zM639 1470q0 -37 18 -36q0 6 62 39q51 26 51 59q0 59 -43 59q-6 0 -27 -20l-22 -25q-2 -2 -2 -3t-2 -3q-35 -23 -35 -70z" />
<glyph unicode="&#xc6;" horiz-adv-x="1411" d="M57 86q4 -12 4 39q0 -8 52 121q10 23 12 49q4 18 6 55q2 4 2 9.5t2 11.5q2 2 4 3t4 5v12q6 8 13 29q8 6 14 14h6q6 2 17 12q20 47 39.5 91.5t39.5 85.5q4 8 9.5 18t13.5 25q0 6 2 10l33 57q2 6 96 189q8 14 19.5 36.5t27.5 55.5q2 4 6 9t8 15q8 14 20.5 38t29.5 57 q4 10 19 36.5t40 67.5q6 6 14 10q35 25 54 17q12 0 32 -7q4 4 6 0q16 -4 41 -22q10 -2 25 -18v-7q4 -2 7 -4t7 -6q4 -8 10.5 -15t12.5 -18q6 -16 12 -34.5t14 -40.5q2 0 5 2q6 -6 16 -7q-4 2 -12.5 -7t-8.5 -5h3q6 14 24 15h14q8 2 15 2q4 0 6 -2q4 2 9 4t13 4q8 0 15 2 h21.5t25.5 2q16 4 27 6q16 2 44.5 4t69.5 6q8 2 18.5 2t26.5 2l78 2l8 -4h19l8 4q2 2 4 2t6 2q8 -2 35 -2q12 4 20 7q6 -2 23 -3l4 3q10 2 26.5 2h39.5q31 0 47 -9q4 -8 24 -10q6 -2 27 -12l2 -4q2 -4 4 -7.5t4 -9.5q0 -10 -8 -12l-98 -24q-20 -8 -70 -13q-10 -4 -24.5 -8 t-34.5 -8q-2 2 -9 2q-63 -8 -135 -19q-29 0 -41 -4q-2 -2 -6 -2t-6 2q-4 -2 -12 -2t-19 -2q-12 -2 -30 -6h-33q-4 -2 -12 -2q-4 2 -9.5 2t-9.5 2q-10 -10 -31.5 -29.5t-46.5 -50.5q-18 -10 -33 -28q-4 -23 -9 -54.5t-11 -76.5q-2 -10 -2 -29q4 -8 12 -19q6 0 21 -36 q16 -35 22 -35q2 0 5 -11.5t6 -11.5q2 -14 16 -30q10 2 30.5 4t53.5 6q4 0 86 18q4 2 11 2t20 2l8 4q25 0 31 -2q8 0 12 2q12 -4 14 -4q2 2 10 2q14 0 29 -14q8 0 16 -14q-2 -2 -2 -6q8 -2 17 -21q-8 -14 -29 -31q0 -2 -94 -20q-25 -6 -58.5 -15.5t-64.5 -11.5q-2 -2 -4 -2 t-6 -2q-33 -2 -113 -12q-20 -23 -51 -43q-4 -8 -11.5 -15.5l-15.5 -15.5l-6 -6q-2 -68 -4 -98.5t-4 -24.5q2 -16 4 -41.5t23 -58.5q16 -25 30 -37q72 -43 156 -43q4 -2 9 -2t11 -2q20 -2 34 -1t24 3q10 0 16 2q2 -2 6 -2q4 2 8.5 4t12.5 6h16q4 -4 8 -4l9 4q2 -2 6 -2l-8 -4 q0 2 -3 4q-2 0 0 2q-2 -8 0 -22q14 -8 15 -56v-8l-10 -8l-11 -10l-84 -25q-12 -10 -75 -18q-12 -2 -37 -4.5t-60 -4.5q-6 0 -24 7q-2 -2 -3 -2t-3 -3q-16 0 -109 39q-8 4 -18.5 9.5t-24.5 13.5q-20 23 -55 49q-2 6 -13 16q-4 12 -11 25.5t-15 30.5q-8 23 -25 63 q-4 23 -8 54.5t-10 76.5q-20 6 -41 27l-2 2q-18 10 -35 29h-45q-4 -2 -10 -2t-13 -2q-8 -6 -15 -12.5t-17 -12.5q-12 -16 -68 -66q-12 -12 -30.5 -28.5t-45.5 -38.5q-10 -10 -20 -20.5t-21 -20.5q-4 -8 -10 -16.5t-10 -18.5q-4 -14 -25 -51q-4 -10 -10 -21.5t-12 -23.5 q-6 -4 -12.5 -11.5t-14.5 -15.5q-6 -6 -29 -20q-12 0 -18 -2h-2l-2 2h-2l4 8q4 12 6 10v2q0 -10 -22 -10q-8 2 -9 41q2 37 -2 47zM383 504q27 6 64.5 15t89.5 20q10 14 26.5 27.5t36.5 27.5v84q2 43 2 64.5v23.5q2 8 2 18.5v20.5v21.5t-2 27.5q2 14 3 29.5t1 34.5 q-2 6 -4 13t-4 15l-10 10q-16 0 -72 -131q-4 -14 -13 -32.5t-20 -40.5q-23 -47 -42 -94.5t-38 -94.5q-4 -10 -8 -24.5t-12 -34.5z" />
<glyph unicode="&#xc7;" horiz-adv-x="862" d="M86 293l4 31l2 38l25 93l14 22l6 19l4 8l9 24l73 113l17 14l10 13l2 10l49 55l59 70l25 28l16 13l5 10l6 4l6 8l45 41l26 25l70 63l31 19l12 14l23 16l26 25l17 6l37 17l14 18h14v-4h29l8 -4h4l37 -27h29l8 -6l10 -16l4 -17l15 -22l18 -35v-39l-14 -27l-15 -18l-18 -14 l-49 -13l-17 -6l-32 -33l-11 -18l-22 -23l-19 -26l-22 -21l-66 -71l-28 -33l-33 -49l-12 -15l-84 -110l-15 -10l-22 -41l-19 -27l-12 -25l-14 -22l-9 -45l-16 -37l-4 -59l2 -33l23 -41l39 -27l40 -14l56 -14h43h51l22 -5l7 5h8l18 -11v-22l-6 -17v-16l-4 2h-4l-19 -10 l-28 -6l-31 -8l-6 2l-31 -7l-4 -4h-33l-55 -2h-22l-11 -24v-15l62 -26l22 -15l25 -32l16 -52l-4 -16h-16l-15 -16l-38 -19l-35 -14l-27 -12l-106 -35l-66 -19h-25l-12 9h-10h-6l-4 10h-11l-6 6l17 10l24 12l172 68l33 23l-10 2l-47 -7h-33v7l-8 10l-15 4l-2 4l-14 6l-6 6v45 l49 76l6 31l-35 12l-41 23l-30 26l-47 47l-33 50l-21 51l-8 28v27z" />
<glyph unicode="&#xc8;" horiz-adv-x="1081" d="M139 358q2 10 3 22.5t1 27.5q2 10 3 22t1 27q4 23 8.5 46t8.5 52q0 6 5 22.5t5 20.5q0 6 2 15.5t2 13.5q4 8 6 16t4 19q2 8 7 34q8 20 15 46t17 61q2 0 2 2q6 18 13 43l-6 12q-10 20 -21 62q6 4 16 14v6l11 10q-2 2 -2 9q4 18 34 57h5l14 14q10 10 20.5 19.5t22.5 19.5 q8 8 12 14q-6 4 -6 31q35 23 44 23t26 2q10 2 24 2q4 -2 9.5 -2t9.5 -2h6q12 -2 17 -2t3 0q35 4 117 6h72q10 -2 19 -2t20 -2h139q10 -2 33 -2q-10 -2 116 -2q20 0 54 -9q41 -10 45 -16q14 -6 28 -14q4 0 6 -2v-13q-2 -2 -6 -10q-29 -8 -54.5 -13t-47.5 -7q-4 -2 -7 -2 t-7 -2h-16.5t-18.5 -3q-2 -2 -4 -2t-6 -2q-2 2 -9 2l-20 -12q-2 -2 -3 -4t-3 -4q-4 -2 -10.5 -2t-14.5 -2q-6 0 -10 2q0 -4 -39 -12l-29 -9h-10l-8 -4q-2 2 -8 2q-2 -2 -4 -2t-7 -2q-14 -2 -27 -2t-28 -2h-8q-4 0 -13.5 -4t-11.5 -4q-10 -2 -34 -2q-18 -8 -45 -10 q-2 -4 -11 -13q-12 -6 -35.5 -22t-58.5 -43q-4 -4 -14 -12.5t-29 -22.5q-6 -4 -12 -9t-12 -13q-2 -6 -13 -17q-14 -31 -30 -78q-4 -10 -7.5 -23.5t-7.5 -27.5q0 -4 -6 -18.5t-6 -20.5t4 -10h6l60 4q16 2 36.5 2t46.5 2q39 -2 91 0q8 -2 18 -2h21q6 -2 30 -2l8 -4 q61 12 54 12q27 0 34 -8v-4q2 -2 3 -39l-23 -14l-10 -6h-6l-7 -7l-28 -6q-6 -6 -29 -14l-29 -12q-6 -6 -90 -25q-6 -2 -21.5 -4t-41.5 -6q-10 -12 -25.5 -24.5t-31.5 -26.5q-6 -6 -17 -11q-20 -33 -43 -49q-10 -23 -29 -45q-23 -6 -65 -12q-2 -66 14 -105q25 -41 90 -45v-10 l2 -14l11 -6l16 -2h27l63 8l23 6l57 8l37 10l33 7l43 12l2 -6q2 -2 2 -6q-2 -6 -2 -13l2 -2q-2 -6 2 -14q-8 -8 -10 -12l-2 4q0 -8 2 -13q-4 4 -17 -36q-2 0 -4 -3v-4q-2 -4 -4 -10t-6 -16q-2 -2 -5 -6t-9 -13v-8q-12 -6 -24.5 -12t-27.5 -14q-4 -2 -10 -3.5t-14 -5.5 q-4 0 -6 -2q-16 -4 -33 -7t-37 -7h-14.5t-28.5 -2h-27q-4 -2 -45 4q-39 6 -45 6q-10 0 -65 27q-4 2 -10.5 6t-14.5 8l-10 12q-8 8 -17.5 18.5t-23.5 24.5q-4 4 -7 10.5t-7 12.5q-2 2 -3.5 2t-3.5 2q-8 23 -24 61q-4 16 -8 38t-13 46q0 14 -2 23q2 6 2 20q0 4 -2 7v16t-2 18z M440 1532l2 2q2 33 21 33q55 0 43 4q10 0 18 -2l13 -4q8 -4 14 -6q2 -2 3 -2.5t3 -2.5l10 -4q6 -4 11 -10q27 -23 66.5 -57.5t92.5 -81.5q23 -20 43.5 -39t40.5 -39q78 -72 78 -74q-2 -14 -4 -16l-4 -4h-6l-6 -6h-5q-8 -6 -26 -6q-25 0 -55 14q-4 2 -16.5 6t-33.5 14 q-23 10 -48 24.5t-52 35.5q-82 61 -92 67q-10 8 -20.5 17.5t-24.5 19.5q-6 8 -14.5 17.5t-18.5 19.5q-2 2 -18 35q-14 23 -15 45z" />
<glyph unicode="&#xc9;" horiz-adv-x="1081" d="M139 358q2 10 3 22.5t1 27.5q2 10 3 22t1 27q4 23 8.5 46t8.5 52q0 6 5 22.5t5 20.5q0 6 2 15.5t2 13.5q4 8 6 16t4 19q2 8 7 34q8 20 15 46t17 61q2 0 2 2q6 18 13 43l-6 12q-10 20 -21 62q6 4 16 14v6l11 10q-2 2 -2 9q4 18 34 57h5l14 14q10 10 20.5 19.5t22.5 19.5 q8 8 12 14q-6 4 -6 31q35 23 44 23t26 2q10 2 24 2q4 -2 9.5 -2t9.5 -2h6q12 -2 17 -2t3 0q35 4 117 6h72q10 -2 19 -2t20 -2h139q10 -2 33 -2q-10 -2 116 -2q20 0 54 -9q41 -10 45 -16q14 -6 28 -14q4 0 6 -2v-13q-2 -2 -6 -10q-29 -8 -54.5 -13t-47.5 -7q-4 -2 -7 -2 t-7 -2h-16.5t-18.5 -3q-2 -2 -4 -2t-6 -2q-2 2 -9 2l-20 -12q-2 -2 -3 -4t-3 -4q-4 -2 -10.5 -2t-14.5 -2q-6 0 -10 2q0 -4 -39 -12l-29 -9h-10l-8 -4q-2 2 -8 2q-2 -2 -4 -2t-7 -2q-14 -2 -27 -2t-28 -2h-8q-4 0 -13.5 -4t-11.5 -4q-10 -2 -34 -2q-18 -8 -45 -10 q-2 -4 -11 -13q-12 -6 -35.5 -22t-58.5 -43q-4 -4 -14 -12.5t-29 -22.5q-6 -4 -12 -9t-12 -13q-2 -6 -13 -17q-14 -31 -30 -78q-4 -10 -7.5 -23.5t-7.5 -27.5q0 -4 -6 -18.5t-6 -20.5t4 -10h6l60 4q16 2 36.5 2t46.5 2q39 -2 91 0q8 -2 18 -2h21q6 -2 30 -2l8 -4 q61 12 54 12q27 0 34 -8v-4q2 -2 3 -39l-23 -14l-10 -6h-6l-7 -7l-28 -6q-6 -6 -29 -14l-29 -12q-6 -6 -90 -25q-6 -2 -21.5 -4t-41.5 -6q-10 -12 -25.5 -24.5t-31.5 -26.5q-6 -6 -17 -11q-20 -33 -43 -49q-10 -23 -29 -45q-23 -6 -65 -12q-2 -66 14 -105q25 -41 90 -45v-10 l2 -14l11 -6l16 -2h27l63 8l23 6l57 8l37 10l33 7l43 12l2 -6q2 -2 2 -6q-2 -6 -2 -13l2 -2q-2 -6 2 -14q-8 -8 -10 -12l-2 4q0 -8 2 -13q-4 4 -17 -36q-2 0 -4 -3v-4q-2 -4 -4 -10t-6 -16q-2 -2 -5 -6t-9 -13v-8q-12 -6 -24.5 -12t-27.5 -14q-4 -2 -10 -3.5t-14 -5.5 q-4 0 -6 -2q-16 -4 -33 -7t-37 -7h-14.5t-28.5 -2h-27q-4 -2 -45 4q-39 6 -45 6q-10 0 -65 27q-4 2 -10.5 6t-14.5 8l-10 12q-8 8 -17.5 18.5t-23.5 24.5q-4 4 -7 10.5t-7 12.5q-2 2 -3.5 2t-3.5 2q-8 23 -24 61q-4 16 -8 38t-13 46q0 14 -2 23q2 6 2 20q0 4 -2 7v16t-2 18z M643 1526l4 8l12 12v4l62 56l29 20l84 62l61 36l59 15l76 10h8l11 -6l2 -8l-9 -2l-6 -17l2 -6l-10 -4l-16 -10v-6l6 -9l-8 -8l4 -16l-8 -6v-6l24 4v-2l-29 -23l-6 -20l-14 -23l-12 -14l-25 -23l-22 -16l-82 -49l-74 -33l-14 -2h-35l-25 8h-16l-12 6v8l-9 9l-10 28l2 10z" />
<glyph unicode="&#xca;" horiz-adv-x="1081" d="M139 358q2 10 3 22.5t1 27.5q2 10 3 22t1 27q4 23 8.5 46t8.5 52q0 6 5 22.5t5 20.5q0 6 2 15.5t2 13.5q4 8 6 16t4 19q2 8 7 34q8 20 15 46t17 61q2 0 2 2q6 18 13 43l-6 12q-10 20 -21 62q6 4 16 14v6l11 10q-2 2 -2 9q4 18 34 57h5l14 14q10 10 20.5 19.5t22.5 19.5 q8 8 12 14q-6 4 -6 31q35 23 44 23t26 2q10 2 24 2q4 -2 9.5 -2t9.5 -2h6q12 -2 17 -2t3 0q35 4 117 6h72q10 -2 19 -2t20 -2h139q10 -2 33 -2q-10 -2 116 -2q20 0 54 -9q41 -10 45 -16q14 -6 28 -14q4 0 6 -2v-13q-2 -2 -6 -10q-29 -8 -54.5 -13t-47.5 -7q-4 -2 -7 -2 t-7 -2h-16.5t-18.5 -3q-2 -2 -4 -2t-6 -2q-2 2 -9 2l-20 -12q-2 -2 -3 -4t-3 -4q-4 -2 -10.5 -2t-14.5 -2q-6 0 -10 2q0 -4 -39 -12l-29 -9h-10l-8 -4q-2 2 -8 2q-2 -2 -4 -2t-7 -2q-14 -2 -27 -2t-28 -2h-8q-4 0 -13.5 -4t-11.5 -4q-10 -2 -34 -2q-18 -8 -45 -10 q-2 -4 -11 -13q-12 -6 -35.5 -22t-58.5 -43q-4 -4 -14 -12.5t-29 -22.5q-6 -4 -12 -9t-12 -13q-2 -6 -13 -17q-14 -31 -30 -78q-4 -10 -7.5 -23.5t-7.5 -27.5q0 -4 -6 -18.5t-6 -20.5t4 -10h6l60 4q16 2 36.5 2t46.5 2q39 -2 91 0q8 -2 18 -2h21q6 -2 30 -2l8 -4 q61 12 54 12q27 0 34 -8v-4q2 -2 3 -39l-23 -14l-10 -6h-6l-7 -7l-28 -6q-6 -6 -29 -14l-29 -12q-6 -6 -90 -25q-6 -2 -21.5 -4t-41.5 -6q-10 -12 -25.5 -24.5t-31.5 -26.5q-6 -6 -17 -11q-20 -33 -43 -49q-10 -23 -29 -45q-23 -6 -65 -12q-2 -66 14 -105q25 -41 90 -45v-10 l2 -14l11 -6l16 -2h27l63 8l23 6l57 8l37 10l33 7l43 12l2 -6q2 -2 2 -6q-2 -6 -2 -13l2 -2q-2 -6 2 -14q-8 -8 -10 -12l-2 4q0 -8 2 -13q-4 4 -17 -36q-2 0 -4 -3v-4q-2 -4 -4 -10t-6 -16q-2 -2 -5 -6t-9 -13v-8q-12 -6 -24.5 -12t-27.5 -14q-4 -2 -10 -3.5t-14 -5.5 q-4 0 -6 -2q-16 -4 -33 -7t-37 -7h-14.5t-28.5 -2h-27q-4 -2 -45 4q-39 6 -45 6q-10 0 -65 27q-4 2 -10.5 6t-14.5 8l-10 12q-8 8 -17.5 18.5t-23.5 24.5q-4 4 -7 10.5t-7 12.5q-2 2 -3.5 2t-3.5 2q-8 23 -24 61q-4 16 -8 38t-13 46q0 14 -2 23q2 6 2 20q0 4 -2 7v16t-2 18z M498 1438q0 2 2 4q0 10 7 24.5t32 49.5q10 14 22 29.5t27 33.5q23 29 50.5 61.5t59.5 69.5q8 6 16.5 14.5l18.5 18.5q6 4 12.5 9t14.5 13q4 4 18 11q35 0 49 -15q4 -4 10.5 -7t14.5 -7q10 -8 21.5 -18.5t25.5 -20.5q6 -12 25 -33l67 -135q16 -31 33 -49v-2q4 -7 16 -23 q0 -10 -12 -41q-12 -6 -20 -6q-23 0 -33 6q-4 4 -26.5 36t-61.5 91q-8 10 -18.5 27.5t-26.5 40.5q-12 16 -27 18q-2 -2 -16 -6q-2 -2 -18.5 -20.5l-49.5 -55.5l-18 -24q-2 -4 -80 -94q-27 -20 -33 -47q-29 -16 -41 -17q-23 4 -29 12q-16 8 -32 52z" />
<glyph unicode="&#xcb;" horiz-adv-x="1081" d="M139 358q2 10 3 22.5t1 27.5q2 10 3 22t1 27q4 23 8.5 46t8.5 52q0 6 5 22.5t5 20.5q0 6 2 15.5t2 13.5q4 8 6 16t4 19q2 8 7 34q8 20 15 46t17 61q2 0 2 2q6 18 13 43l-6 12q-10 20 -21 62q6 4 16 14v6l11 10q-2 2 -2 9q4 18 34 57h5l14 14q10 10 20.5 19.5t22.5 19.5 q8 8 12 14q-6 4 -6 31q35 23 44 23t26 2q10 2 24 2q4 -2 9.5 -2t9.5 -2h6q12 -2 17 -2t3 0q35 4 117 6h72q10 -2 19 -2t20 -2h139q10 -2 33 -2q-10 -2 116 -2q20 0 54 -9q41 -10 45 -16q14 -6 28 -14q4 0 6 -2v-13q-2 -2 -6 -10q-29 -8 -54.5 -13t-47.5 -7q-4 -2 -7 -2 t-7 -2h-16.5t-18.5 -3q-2 -2 -4 -2t-6 -2q-2 2 -9 2l-20 -12q-2 -2 -3 -4t-3 -4q-4 -2 -10.5 -2t-14.5 -2q-6 0 -10 2q0 -4 -39 -12l-29 -9h-10l-8 -4q-2 2 -8 2q-2 -2 -4 -2t-7 -2q-14 -2 -27 -2t-28 -2h-8q-4 0 -13.5 -4t-11.5 -4q-10 -2 -34 -2q-18 -8 -45 -10 q-2 -4 -11 -13q-12 -6 -35.5 -22t-58.5 -43q-4 -4 -14 -12.5t-29 -22.5q-6 -4 -12 -9t-12 -13q-2 -6 -13 -17q-14 -31 -30 -78q-4 -10 -7.5 -23.5t-7.5 -27.5q0 -4 -6 -18.5t-6 -20.5t4 -10h6l60 4q16 2 36.5 2t46.5 2q39 -2 91 0q8 -2 18 -2h21q6 -2 30 -2l8 -4 q61 12 54 12q27 0 34 -8v-4q2 -2 3 -39l-23 -14l-10 -6h-6l-7 -7l-28 -6q-6 -6 -29 -14l-29 -12q-6 -6 -90 -25q-6 -2 -21.5 -4t-41.5 -6q-10 -12 -25.5 -24.5t-31.5 -26.5q-6 -6 -17 -11q-20 -33 -43 -49q-10 -23 -29 -45q-23 -6 -65 -12q-2 -66 14 -105q25 -41 90 -45v-10 l2 -14l11 -6l16 -2h27l63 8l23 6l57 8l37 10l33 7l43 12l2 -6q2 -2 2 -6q-2 -6 -2 -13l2 -2q-2 -6 2 -14q-8 -8 -10 -12l-2 4q0 -8 2 -13q-4 4 -17 -36q-2 0 -4 -3v-4q-2 -4 -4 -10t-6 -16q-2 -2 -5 -6t-9 -13v-8q-12 -6 -24.5 -12t-27.5 -14q-4 -2 -10 -3.5t-14 -5.5 q-4 0 -6 -2q-16 -4 -33 -7t-37 -7h-14.5t-28.5 -2h-27q-4 -2 -45 4q-39 6 -45 6q-10 0 -65 27q-4 2 -10.5 6t-14.5 8l-10 12q-8 8 -17.5 18.5t-23.5 24.5q-4 4 -7 10.5t-7 12.5q-2 2 -3.5 2t-3.5 2q-8 23 -24 61q-4 16 -8 38t-13 46q0 14 -2 23q2 6 2 20q0 4 -2 7v16t-2 18z M387 1464l4 27l17 33l36 28l31 7h4l17 -7l18 -8l16 2l-2 -14l21 -8l29 -27l12 -14l28 -68l3 -14v-25l-15 -24l-14 -17l-2 -4l-31 -4l-35 -4l-37 14l-16 9l-4 4l-49 34l-23 21l-4 10v27zM723 1454l22 70l21 14l20 6l7 10l45 -14l18 4l25 -31l28 -24l19 -49v-56l-27 -28 l-10 -6l-21 -7l-53 9l-41 20l-43 39l-2 31z" />
<glyph unicode="&#xcc;" horiz-adv-x="503" d="M102 231l2 74l13 57l14 80l14 45l27 125l12 25l23 76l37 108l2 29l18 29l19 43l26 45l2 14l43 74l11 6l18 35l41 37l43 16h14l29 -12l16 -23l6 -49l-6 -102l-26 -60l-29 -61l-74 -211l-67 -185l-17 -61l-16 -33l-6 -35l-15 -30l-8 -35l-20 -123l-15 -61l-12 -68l-28 -74 l-27 -28l-33 -19l-22 12l-7 95l5 12l-5 16v60l5 47l-5 10zM266 1450l2 2q2 33 21 33q55 0 43 4q10 0 18 -2l12 -4q8 -4 15 -6q2 -2 3 -2t3 -2l10 -5q6 -4 10 -10q27 -23 67 -57.5t93 -81.5q23 -20 43.5 -38.5t40.5 -39.5q78 -72 78 -74q-2 -14 -4 -16l-4 -4h-6l-6 -6h-5 q-8 -6 -26 -6q-25 0 -56 14q-4 2 -16 6t-33 14q-23 10 -48 24.5t-52 35.5q-82 61 -92 67q-10 8 -20.5 17.5t-24.5 19.5q-6 8 -14.5 17.5t-18.5 19.5q-2 2 -18 35q-14 23 -15 45z" />
<glyph unicode="&#xcd;" horiz-adv-x="503" d="M102 231l2 74l13 57l14 80l14 45l27 125l12 25l23 76l37 108l2 29l18 29l19 43l26 45l2 14l43 74l11 6l18 35l41 37l43 16h14l29 -12l16 -23l6 -49l-6 -102l-26 -60l-29 -61l-74 -211l-67 -185l-17 -61l-16 -33l-6 -35l-15 -30l-8 -35l-20 -123l-15 -61l-12 -68l-28 -74 l-27 -28l-33 -19l-22 12l-7 95l5 12l-5 16v60l5 47l-5 10zM410 1526l4 8l12 12v4l61 56l29 20l84 62l62 36l59 15l76 10h8l10 -6l2 -8l-8 -2l-6 -17l2 -6l-10 -4l-17 -10v-6l6 -9l-8 -8l4 -16l-8 -6v-6l25 4v-2l-29 -23l-6 -20l-14 -23l-13 -14l-24 -23l-23 -16l-82 -49 l-74 -33l-14 -2h-35l-24 8h-17l-12 6v8l-8 9l-10 28l2 10z" />
<glyph unicode="&#xce;" horiz-adv-x="503" d="M102 231l2 74l13 57l14 80l14 45l27 125l12 25l23 76l37 108l2 29l18 29l19 43l26 45l2 14l43 74l11 6l18 35l41 37l43 16h14l29 -12l16 -23l6 -49l-6 -102l-26 -60l-29 -61l-74 -211l-67 -185l-17 -61l-16 -33l-6 -35l-15 -30l-8 -35l-20 -123l-15 -61l-12 -68l-28 -74 l-27 -28l-33 -19l-22 12l-7 95l5 12l-5 16v60l5 47l-5 10zM266 1438q0 2 2 4q0 10 7.5 24.5t31.5 49.5q10 14 22.5 29.5t26.5 33.5q23 29 50.5 61.5t60.5 69.5q8 6 16.5 14.5l18.5 18.5q6 4 12 9t14 13q4 4 19 11q35 0 49 -15q4 -4 10 -7t15 -7q10 -8 21 -18.5t26 -20.5 q6 -12 24 -33l68 -135q16 -31 33 -49v-2q4 -7 16 -23q0 -10 -12 -41q-12 -6 -21 -6q-23 0 -33 6q-4 4 -26.5 36t-61.5 91q-8 10 -18 27.5t-27 40.5q-12 16 -26 18q-2 -2 -17 -6q-2 -2 -18.5 -20.5t-48.5 -55.5q-6 -8 -19 -24q-2 -4 -80 -94q-27 -20 -32 -47q-29 -16 -41 -17 q-23 4 -29 12q-16 8 -33 52z" />
<glyph unicode="&#xcf;" horiz-adv-x="503" d="M102 231l2 74l13 57l14 80l14 45l27 125l12 25l23 76l37 108l2 29l18 29l19 43l26 45l2 14l43 74l11 6l18 35l41 37l43 16h14l29 -12l16 -23l6 -49l-6 -102l-26 -60l-29 -61l-74 -211l-67 -185l-17 -61l-16 -33l-6 -35l-15 -30l-8 -35l-20 -123l-15 -61l-12 -68l-28 -74 l-27 -28l-33 -19l-22 12l-7 95l5 12l-5 16v60l5 47l-5 10zM268 1624l4 27l17 32l37 29l30 6h4l17 -6l18 -8l17 2l-2 -14l20 -9l29 -26l12 -15l29 -67l2 -14v-25l-15 -25l-14 -16l-2 -4l-31 -4l-34 -4l-37 14l-17 8l-4 4l-49 35l-23 21l-4 10v27zM604 1614l23 69l20 15l21 6 l6 10l45 -14l18 4l25 -31l29 -24l18 -50v-55l-27 -28l-10 -7l-20 -6l-54 8l-41 21l-43 39l-2 31z" />
<glyph unicode="&#xd0;" horiz-adv-x="980" d="M-78 510l21 37l8 12l39 12l63 7l92 12q0 10 1 18t4 19l6 6l10 55q-6 -12 -3 8.5t10 49t15 54.5l7 25l4 17q0 16 7 38.5t7 49.5q0 43 7 63.5t16.5 29.5t18.5 10t15 5l10 10q11 11 26.5 23t33.5 21.5t33 9.5h11t13 -2q14 4 26.5 5t37.5 11q6 0 10 -2q2 2 3 4t5 4 q8 -4 23 -10q12 -4 30.5 -9t47.5 -13q14 -2 21 -3.5t22.5 -7.5t47 -23.5t93.5 -54.5q8 -8 18.5 -13t22.5 -15t27.5 -27.5t33.5 -48.5q4 -14 4 -12t4.5 -1t15.5 -19.5t36 -65.5q4 -16 17 -50t13 -87q0 -23 -3 -43.5t-13 -45.5l4 -4q0 -18 -20.5 -75.5t-83.5 -128.5 q-20 -35 -48 -65t-60 -57.5t-65.5 -54t-64.5 -55.5q-8 -2 -15 -7t-19.5 -14.5t-32 -21.5t-52.5 -31l-6 -6q-25 -8 -46 -19t-62 -34q-18 0 -33 -4q-12 -4 -22.5 -7t-10.5 -7l-20 -5q-20 -6 -45 -12q-2 2 -9 6q-12 8 -26 11q-2 -2 -6 -2h-11q-2 -2 -10 -3q-2 2 -3 2.5t-3 2.5 q-4 -4 -8 -5q-4 0 -15 11v-4h-2q-4 0 -4 -2q-12 8 -14 18l-2 -2l2 -2h-6l-5 5t-5 3t-11 -4l-4 -4h-22l-2 4q-2 -2 -9 -2q-8 6 -8 25q2 2 6 10l2 14q8 16 16.5 34.5t18.5 41.5v98v6q0 4 1 9.5t1 11.5l2 33q4 35 9.5 63.5t11.5 71.5l-43 -4l-70 8l-39 -8l-22 14v10l-17 19 l-8 6l2 35zM268 174q4 -18 6 -49q37 16 55.5 22.5t30 10.5t19.5 8t25.5 14t49 30.5t89.5 57.5q117 88 176 161t69 169q2 10 2.5 17.5t0.5 15.5q0 29 -7 47q-4 10 -14 42t-57 101l-39 39q-20 16 -43 26.5t-48.5 17.5t-57 14.5t-72.5 17.5l-11 -6q-12 -6 -27.5 -14.5 t-27.5 -18.5t-12 -18v-11.5t2 -15.5q-4 -18 -8 -41t-9 -49v-21q-6 -10 -10 -42.5t-12 -90.5h59h160l37 -4l14 -8v-10l-28 -8l-2 -11l-11 -2l-28 -16l-4 -14l-23 -11l-27 -22l-53 -17l-31 -10l-6 -8l-30 10l-5 -8l-51 -25q-2 -16 -6 -32.5t-9 -40t-9 -55t-6 -80.5l-5 -13v-24 q0 -4 -3 -12.5t-3 -12.5z" />
<glyph unicode="&#xd1;" horiz-adv-x="1366" d="M68 -41q2 -4 2 70q0 18 10 55q8 23 11 36t5 19q8 47 25 119l14 64q16 78 39 192.5t55 267.5q8 35 19.5 85.5t27.5 119.5q2 4 6.5 15.5t12.5 31.5q0 8 4 13q12 16 33 16h12q6 2 12 2q31 -2 50 -14q4 -4 9 -11.5t13 -15.5l43 -53q4 -12 11 -26.5t16 -31.5q4 -8 9 -15t9 -11 q2 -10 6 -20.5t8 -24.5q10 -23 25.5 -54.5t38.5 -74.5q2 -6 13 -31t34 -70q8 -18 16 -41q8 -20 20.5 -51t29.5 -71q4 -8 11 -22.5t17 -37.5q4 -12 13.5 -31.5t21.5 -48.5l4 -8l4 -8l17 -25q4 -8 8 -15t8 -15q10 10 25 12l14 7t27 13l16 15q4 14 7 29.5t7 33.5q0 16 19 74 q20 55 20 72q0 16 6 50t6 50q6 25 13 61q4 10 7 22.5t7 29.5q4 29 11.5 69.5t17.5 93.5q2 8 43 226q18 55 37 129q4 10 10 22.5t10 28.5q0 10 12 43t17 33q6 0 28.5 7t26.5 5q6 6 25 10q14 0 18 -9.5t6 -23.5q0 -8 -2 -18l-4 -16q-2 -8 -6 -24.5t-10 -39.5v-6q-2 -2 -2 -4 t-2 -6q4 -8 6 -15q0 -8 -1 -20t-3 -33q-2 -10 -3 -31.5t-6 -50.5q-2 -49 -12 -155q-4 -23 -9 -59t-13 -87q-2 -6 -3 -16t-6 -27q2 -4 7 -16q-2 -14 -2 -29.5t-2 -34.5q-6 -33 -10.5 -58.5t-6.5 -47.5v-29q-4 -31 -10 -66.5t-10 -76.5q-2 -2 -15 -56q-12 -49 -12 -53 q0 -10 -3 -27.5t-3 -25.5q-4 -45 -27 -92q-39 -31 -35 -31l-12 -8q-8 -8 -26 -8q-8 -4 -21 -8q-12 -6 -35 -11l-2 -2q-2 -2 -10 -6q-16 -25 -32.5 -35t-37.5 -24q-10 -2 -30 -2q-8 4 -16.5 8t-18.5 10q-4 4 -10.5 7t-10.5 7q-2 2 -7 9.5t-15 23.5q-29 35 -53.5 67t-47.5 62 q-27 35 -53 80t-55 100q-2 4 -6 13.5t-8 19.5l-13 19l-61 135q-8 20 -35 76q-10 25 -35 30q-12 -39 -31 -123q-10 -31 -36 -131q-4 -10 -8.5 -23.5t-8.5 -33.5v-12q-4 -10 -11 -38t-15 -73q-2 -4 -4.5 -16.5l-6.5 -32.5q-16 -41 -18 -66q0 -4 -2 -6q-2 -6 -4 -13t-4 -15 q-2 -2 -11 -7q-8 -31 -24 -86q-8 -20 -33 -53q-4 -4 -11 -8t-18 -10q-2 2 -6 0q-2 -20 -35 -21q-2 0 -6 4l-8 9q-23 10 -22 61zM389 1495q2 2 2 3t2 3q-2 2 -2 8q0 14 8 45q31 70 52 86q43 39 71 35q6 2 21 2q8 -2 19 -3t28 -5q4 -2 9 -4t9 -4q12 -8 26.5 -17.5t31.5 -19.5 q10 -10 20 -20.5t23 -24.5q2 -2 6 -10v-2q8 -18 18 -35l2 -2l13 -4h14q25 4 32 9t17 13q14 16 33.5 40t46.5 54q37 39 49 39q45 0 43 2q4 0 21 -4q2 -2 10 -6q-4 -10 -13 -22l3 -2q-10 -20 -39 -56q-2 -6 -13 -26l-4 -2v-6q-4 -12 -18 -33v-6q0 -4 2 -7q-4 -8 -9 -15 t-12 -17q2 2 2 0q-2 0 -2 -4q-10 -6 -26 -21l-2 -2q-14 -14 -23 -18q-18 -8 -35.5 -10.5t-46.5 -2.5q-70 6 -145 47q-4 4 -29 19q-4 4 -10 8t-14 8q-4 0 -19.5 8.5t-17.5 8.5q0 -2 -3 -3t-8.5 -4.5t-10.5 -12.5t-7 -27q-10 -25 -25.5 -29t-19.5 -4q-10 0 -16 2h-9q-4 2 -7 2 t-7 2h-8q-10 2 -21 20q-4 4 -12 27z" />
<glyph unicode="&#xd2;" horiz-adv-x="1200" d="M84 328q2 -10 3 13.5t1 78.5q0 6 3 19.5t3 19.5l19 73q6 14 12 31t14 37l19.5 39t27.5 53q10 16 28.5 45t41.5 68q18 25 39.5 52.5t44.5 57.5q4 4 11 9.5t16 13.5l16 20q8 4 23 19q47 45 104 45l12 10l10 4q2 0 13.5 6.5t13.5 6.5q6 2 25 2q16 10 73 26l5 4h18q2 2 4 2 t6 2q8 0 33 -6h20q6 -4 15.5 -9t19.5 -11l12.5 -12.5t14.5 -12.5q4 -2 16 -6q0 -4 4 -8q2 -8 17 -27q4 -12 8 -18q16 -14 45 -33q12 -16 25 -29q2 -2 10 -6l31 -30q4 -8 10 -17.5t16 -23.5l14 -15l7.5 -15l7.5 -15v-9q2 -2 4 -3t4 -3q2 -6 6 -14t8 -19q8 -12 15 -20l6 -21 q2 -6 2 -13t2 -17q2 -2 3 -2t3 -2q4 -16 6 -23q4 -23 8 -54.5t9 -74.5v-27q0 -2 6 -6l6 -4q0 -10 -2 -18l-6 -37v-6q2 0 4 -2q-2 -23 -29 -90q-16 -51 -27 -68q-23 -49 -43 -76q-4 -4 -8 -10t-8 -16q-4 -4 -10 -10.5t-12 -14.5v-8q-2 -2 -7 -10q-8 -6 -19 -14.5t-28 -18.5 q-4 -6 -13 -15.5t-19 -19.5q-2 -2 -4.5 -3t-4.5 -5l-18 -9t-21 -14q-4 -2 -11 -6t-17 -8q-4 -4 -9.5 -7t-13.5 -7q-10 -4 -23.5 -8.5t-29.5 -10.5q-2 -2 -10 -6q-27 -10 -76 -20q-6 -2 -16.5 -4.5t-24.5 -6.5h-18q-4 0 -13.5 -3t-13.5 -3q-66 0 -137 19q-80 23 -166 82 q-37 27 -78 73q-6 6 -37 56q-2 4 -9 19t-17 38q-8 41 -25 117zM258 326q0 -49 8 -82q6 -12 13 -31q4 -8 30 -49q10 -14 70 -49q39 -23 147 -23q-2 0 8.5 1t32.5 3q35 4 49 6q8 2 25.5 9.5t44.5 17.5q8 4 16.5 9t18.5 12q35 16 70 51l49 73q2 2 11 19.5t26 50.5l11 27.5 t17 40.5v12q15 45 15 86q0 86 -21 135q-8 27 -25 70q-4 8 -9 15t-9 18q-10 10 -20.5 21t-24.5 26l-49 49q-12 8 -30.5 18t-41.5 25q-23 -16 -51 -17h-61q-14 0 -41 -26.5t-60 -57.5q-27 -14 -94 -116q-8 -18 -18 -43q-4 -6 -8.5 -12.5t-8.5 -14.5q-8 -25 -31 -63 q-27 -51 -55 -140q-2 -27 -3 -44t-1 -27zM461 1450l2 2q2 33 20 33q55 0 43 4q10 0 19 -2l12 -4q8 -4 14 -6q2 -2 3 -2t4 -2l10 -5q6 -4 10 -10q27 -23 67 -57.5t93 -81.5q23 -20 43 -38.5t41 -39.5q78 -72 78 -74q-2 -14 -5 -16l-4 -4h-6l-6 -6h-4q-8 -6 -27 -6 q-25 0 -55 14q-4 2 -16.5 6t-32.5 14q-23 10 -48.5 24.5t-51.5 35.5q-82 61 -93 67q-10 8 -20 17.5t-25 19.5q-6 8 -14 17.5t-18 19.5q-2 2 -19 35q-14 23 -14 45z" />
<glyph unicode="&#xd3;" horiz-adv-x="1200" d="M84 328q2 -10 3 13.5t1 78.5q0 6 3 19.5t3 19.5l19 73q6 14 12 31t14 37l19.5 39t27.5 53q10 16 28.5 45t41.5 68q18 25 39.5 52.5t44.5 57.5q4 4 11 9.5t16 13.5l16 20q8 4 23 19q47 45 104 45l12 10l10 4q2 0 13.5 6.5t13.5 6.5q6 2 25 2q16 10 73 26l5 4h18q2 2 4 2 t6 2q8 0 33 -6h20q6 -4 15.5 -9t19.5 -11l12.5 -12.5t14.5 -12.5q4 -2 16 -6q0 -4 4 -8q2 -8 17 -27q4 -12 8 -18q16 -14 45 -33q12 -16 25 -29q2 -2 10 -6l31 -30q4 -8 10 -17.5t16 -23.5l14 -15l7.5 -15l7.5 -15v-9q2 -2 4 -3t4 -3q2 -6 6 -14t8 -19q8 -12 15 -20l6 -21 q2 -6 2 -13t2 -17q2 -2 3 -2t3 -2q4 -16 6 -23q4 -23 8 -54.5t9 -74.5v-27q0 -2 6 -6l6 -4q0 -10 -2 -18l-6 -37v-6q2 0 4 -2q-2 -23 -29 -90q-16 -51 -27 -68q-23 -49 -43 -76q-4 -4 -8 -10t-8 -16q-4 -4 -10 -10.5t-12 -14.5v-8q-2 -2 -7 -10q-8 -6 -19 -14.5t-28 -18.5 q-4 -6 -13 -15.5t-19 -19.5q-2 -2 -4.5 -3t-4.5 -5l-18 -9t-21 -14q-4 -2 -11 -6t-17 -8q-4 -4 -9.5 -7t-13.5 -7q-10 -4 -23.5 -8.5t-29.5 -10.5q-2 -2 -10 -6q-27 -10 -76 -20q-6 -2 -16.5 -4.5t-24.5 -6.5h-18q-4 0 -13.5 -3t-13.5 -3q-66 0 -137 19q-80 23 -166 82 q-37 27 -78 73q-6 6 -37 56q-2 4 -9 19t-17 38q-8 41 -25 117zM258 326q0 -49 8 -82q6 -12 13 -31q4 -8 30 -49q10 -14 70 -49q39 -23 147 -23q-2 0 8.5 1t32.5 3q35 4 49 6q8 2 25.5 9.5t44.5 17.5q8 4 16.5 9t18.5 12q35 16 70 51l49 73q2 2 11 19.5t26 50.5l11 27.5 t17 40.5v12q15 45 15 86q0 86 -21 135q-8 27 -25 70q-4 8 -9 15t-9 18q-10 10 -20.5 21t-24.5 26l-49 49q-12 8 -30.5 18t-41.5 25q-23 -16 -51 -17h-61q-14 0 -41 -26.5t-60 -57.5q-27 -14 -94 -116q-8 -18 -18 -43q-4 -6 -8.5 -12.5t-8.5 -14.5q-8 -25 -31 -63 q-27 -51 -55 -140q-2 -27 -3 -44t-1 -27zM498 1305l4 8l12 12v4l61 55l29 21l84 61l62 37l59 15l76 10h8l10 -6l2 -9l-8 -2l-6 -16l2 -6l-10 -4l-17 -10v-7l6 -8l-8 -8l4 -16l-8 -6v-7l25 4v-2l-29 -22l-6 -21l-14 -22l-13 -14l-24 -23l-23 -16l-82 -50l-73 -32l-15 -2h-35 l-24 8h-17l-12 6v8l-8 8l-10 29l2 10z" />
<glyph unicode="&#xd4;" horiz-adv-x="1200" d="M84 328q2 -10 3 13.5t1 78.5q0 6 3 19.5t3 19.5l19 73q6 14 12 31t14 37l19.5 39t27.5 53q10 16 28.5 45t41.5 68q18 25 39.5 52.5t44.5 57.5q4 4 11 9.5t16 13.5l16 20q8 4 23 19q47 45 104 45l12 10l10 4q2 0 13.5 6.5t13.5 6.5q6 2 25 2q16 10 73 26l5 4h18q2 2 4 2 t6 2q8 0 33 -6h20q6 -4 15.5 -9t19.5 -11l12.5 -12.5t14.5 -12.5q4 -2 16 -6q0 -4 4 -8q2 -8 17 -27q4 -12 8 -18q16 -14 45 -33q12 -16 25 -29q2 -2 10 -6l31 -30q4 -8 10 -17.5t16 -23.5l14 -15l7.5 -15l7.5 -15v-9q2 -2 4 -3t4 -3q2 -6 6 -14t8 -19q8 -12 15 -20l6 -21 q2 -6 2 -13t2 -17q2 -2 3 -2t3 -2q4 -16 6 -23q4 -23 8 -54.5t9 -74.5v-27q0 -2 6 -6l6 -4q0 -10 -2 -18l-6 -37v-6q2 0 4 -2q-2 -23 -29 -90q-16 -51 -27 -68q-23 -49 -43 -76q-4 -4 -8 -10t-8 -16q-4 -4 -10 -10.5t-12 -14.5v-8q-2 -2 -7 -10q-8 -6 -19 -14.5t-28 -18.5 q-4 -6 -13 -15.5t-19 -19.5q-2 -2 -4.5 -3t-4.5 -5l-18 -9t-21 -14q-4 -2 -11 -6t-17 -8q-4 -4 -9.5 -7t-13.5 -7q-10 -4 -23.5 -8.5t-29.5 -10.5q-2 -2 -10 -6q-27 -10 -76 -20q-6 -2 -16.5 -4.5t-24.5 -6.5h-18q-4 0 -13.5 -3t-13.5 -3q-66 0 -137 19q-80 23 -166 82 q-37 27 -78 73q-6 6 -37 56q-2 4 -9 19t-17 38q-8 41 -25 117zM258 326q0 -49 8 -82q6 -12 13 -31q4 -8 30 -49q10 -14 70 -49q39 -23 147 -23q-2 0 8.5 1t32.5 3q35 4 49 6q8 2 25.5 9.5t44.5 17.5q8 4 16.5 9t18.5 12q35 16 70 51l49 73q2 2 11 19.5t26 50.5l11 27.5 t17 40.5v12q15 45 15 86q0 86 -21 135q-8 27 -25 70q-4 8 -9 15t-9 18q-10 10 -20.5 21t-24.5 26l-49 49q-12 8 -30.5 18t-41.5 25q-23 -16 -51 -17h-61q-14 0 -41 -26.5t-60 -57.5q-27 -14 -94 -116q-8 -18 -18 -43q-4 -6 -8.5 -12.5t-8.5 -14.5q-8 -25 -31 -63 q-27 -51 -55 -140q-2 -27 -3 -44t-1 -27zM442 1280q0 2 2 4q0 10 7.5 24.5t31.5 49.5q10 14 22.5 29.5t26.5 33.5q23 29 50.5 62t60.5 69q8 6 16.5 14.5l18.5 18.5q6 4 12 9t15 14q4 4 18 10q35 0 49 -14q4 -4 10 -7.5t15 -7.5q10 -8 21 -18t26 -21q6 -12 24 -32l68 -136 q16 -31 33 -49v-2q4 -6 16 -22q0 -10 -12 -41q-12 -6 -21 -6q-23 0 -32 6q-4 4 -27 35.5t-62 91.5q-8 10 -18 27.5t-27 39.5q-12 16 -26 19q-2 -2 -17 -6q-2 -2 -18 -20.5t-49 -55.5q-6 -8 -19 -25q-2 -4 -79 -94q-27 -20 -33 -47q-29 -16 -41 -16q-23 4 -29 12 q-16 8 -33 51z" />
<glyph unicode="&#xd5;" horiz-adv-x="1200" d="M84 328q2 -10 3 13.5t1 78.5q0 6 3 19.5t3 19.5l19 73q6 14 12 31t14 37l19.5 39t27.5 53q10 16 28.5 45t41.5 68q18 25 39.5 52.5t44.5 57.5q4 4 11 9.5t16 13.5l16 20q8 4 23 19q47 45 104 45l12 10l10 4q2 0 13.5 6.5t13.5 6.5q6 2 25 2q16 10 73 26l5 4h18q2 2 4 2 t6 2q8 0 33 -6h20q6 -4 15.5 -9t19.5 -11l12.5 -12.5t14.5 -12.5q4 -2 16 -6q0 -4 4 -8q2 -8 17 -27q4 -12 8 -18q16 -14 45 -33q12 -16 25 -29q2 -2 10 -6l31 -30q4 -8 10 -17.5t16 -23.5l14 -15l7.5 -15l7.5 -15v-9q2 -2 4 -3t4 -3q2 -6 6 -14t8 -19q8 -12 15 -20l6 -21 q2 -6 2 -13t2 -17q2 -2 3 -2t3 -2q4 -16 6 -23q4 -23 8 -54.5t9 -74.5v-27q0 -2 6 -6l6 -4q0 -10 -2 -18l-6 -37v-6q2 0 4 -2q-2 -23 -29 -90q-16 -51 -27 -68q-23 -49 -43 -76q-4 -4 -8 -10t-8 -16q-4 -4 -10 -10.5t-12 -14.5v-8q-2 -2 -7 -10q-8 -6 -19 -14.5t-28 -18.5 q-4 -6 -13 -15.5t-19 -19.5q-2 -2 -4.5 -3t-4.5 -5l-18 -9t-21 -14q-4 -2 -11 -6t-17 -8q-4 -4 -9.5 -7t-13.5 -7q-10 -4 -23.5 -8.5t-29.5 -10.5q-2 -2 -10 -6q-27 -10 -76 -20q-6 -2 -16.5 -4.5t-24.5 -6.5h-18q-4 0 -13.5 -3t-13.5 -3q-66 0 -137 19q-80 23 -166 82 q-37 27 -78 73q-6 6 -37 56q-2 4 -9 19t-17 38q-8 41 -25 117zM258 326q0 -49 8 -82q6 -12 13 -31q4 -8 30 -49q10 -14 70 -49q39 -23 147 -23q-2 0 8.5 1t32.5 3q35 4 49 6q8 2 25.5 9.5t44.5 17.5q8 4 16.5 9t18.5 12q35 16 70 51l49 73q2 2 11 19.5t26 50.5l11 27.5 t17 40.5v12q15 45 15 86q0 86 -21 135q-8 27 -25 70q-4 8 -9 15t-9 18q-10 10 -20.5 21t-24.5 26l-49 49q-12 8 -30.5 18t-41.5 25q-23 -16 -51 -17h-61q-14 0 -41 -26.5t-60 -57.5q-27 -14 -94 -116q-8 -18 -18 -43q-4 -6 -8.5 -12.5t-8.5 -14.5q-8 -25 -31 -63 q-27 -51 -55 -140q-2 -27 -3 -44t-1 -27zM502 1495q2 2 2 3t2 3q-2 2 -2 8q0 14 8 45q31 70 51 86q43 39 72 35q6 2 20 2q8 -2 19.5 -3t27.5 -5q4 -2 9.5 -4t9.5 -4q12 -8 26.5 -17.5t30.5 -19.5l20.5 -20.5t22.5 -24.5q2 -2 6 -10v-2q8 -18 19 -35l2 -2l12 -4h14q25 4 32 9 t18 13q14 16 33.5 40t46.5 54q37 39 49 39q45 0 43 2q4 0 20 -4q2 -2 10 -6q-4 -10 -12 -22l2 -2q-10 -20 -39 -56q-2 -6 -12 -26l-4 -2v-6q-4 -12 -19 -33v-6q0 -4 2 -7q-4 -8 -9 -15t-11 -17q2 2 2 0q-2 0 -2 -4q-10 -6 -27 -21l-2 -2q-14 -14 -22 -18q-18 -8 -35.5 -10.5 t-46.5 -2.5q-70 6 -146 47q-4 4 -28 19q-4 4 -10.5 8t-14.5 8q-4 0 -19.5 8.5t-17.5 8.5q0 -2 -3 -3t-8 -4.5t-10 -12.5t-7 -27q-10 -25 -25.5 -29t-19.5 -4q-10 0 -17 2h-8q-4 2 -7 2t-7 2h-8q-10 2 -21 20q-4 4 -12 27z" />
<glyph unicode="&#xd6;" horiz-adv-x="1200" d="M84 328q2 -10 3 13.5t1 78.5q0 6 3 19.5t3 19.5l19 73q6 14 12 31t14 37l19.5 39t27.5 53q10 16 28.5 45t41.5 68q18 25 39.5 52.5t44.5 57.5q4 4 11 9.5t16 13.5l16 20q8 4 23 19q47 45 104 45l12 10l10 4q2 0 13.5 6.5t13.5 6.5q6 2 25 2q16 10 73 26l5 4h18q2 2 4 2 t6 2q8 0 33 -6h20q6 -4 15.5 -9t19.5 -11l12.5 -12.5t14.5 -12.5q4 -2 16 -6q0 -4 4 -8q2 -8 17 -27q4 -12 8 -18q16 -14 45 -33q12 -16 25 -29q2 -2 10 -6l31 -30q4 -8 10 -17.5t16 -23.5l14 -15l7.5 -15l7.5 -15v-9q2 -2 4 -3t4 -3q2 -6 6 -14t8 -19q8 -12 15 -20l6 -21 q2 -6 2 -13t2 -17q2 -2 3 -2t3 -2q4 -16 6 -23q4 -23 8 -54.5t9 -74.5v-27q0 -2 6 -6l6 -4q0 -10 -2 -18l-6 -37v-6q2 0 4 -2q-2 -23 -29 -90q-16 -51 -27 -68q-23 -49 -43 -76q-4 -4 -8 -10t-8 -16q-4 -4 -10 -10.5t-12 -14.5v-8q-2 -2 -7 -10q-8 -6 -19 -14.5t-28 -18.5 q-4 -6 -13 -15.5t-19 -19.5q-2 -2 -4.5 -3t-4.5 -5l-18 -9t-21 -14q-4 -2 -11 -6t-17 -8q-4 -4 -9.5 -7t-13.5 -7q-10 -4 -23.5 -8.5t-29.5 -10.5q-2 -2 -10 -6q-27 -10 -76 -20q-6 -2 -16.5 -4.5t-24.5 -6.5h-18q-4 0 -13.5 -3t-13.5 -3q-66 0 -137 19q-80 23 -166 82 q-37 27 -78 73q-6 6 -37 56q-2 4 -9 19t-17 38q-8 41 -25 117zM258 326q0 -49 8 -82q6 -12 13 -31q4 -8 30 -49q10 -14 70 -49q39 -23 147 -23q-2 0 8.5 1t32.5 3q35 4 49 6q8 2 25.5 9.5t44.5 17.5q8 4 16.5 9t18.5 12q35 16 70 51l49 73q2 2 11 19.5t26 50.5l11 27.5 t17 40.5v12q15 45 15 86q0 86 -21 135q-8 27 -25 70q-4 8 -9 15t-9 18q-10 10 -20.5 21t-24.5 26l-49 49q-12 8 -30.5 18t-41.5 25q-23 -16 -51 -17h-61q-14 0 -41 -26.5t-60 -57.5q-27 -14 -94 -116q-8 -18 -18 -43q-4 -6 -8.5 -12.5t-8.5 -14.5q-8 -25 -31 -63 q-27 -51 -55 -140q-2 -27 -3 -44t-1 -27zM387 1464l4 27l17 33l36 28l31 7h4l17 -7l18 -8l16 2l-2 -14l21 -8l29 -27l12 -14l28 -68l3 -14v-25l-15 -24l-14 -17l-2 -4l-31 -4l-35 -4l-37 14l-16 9l-4 4l-49 34l-23 21l-4 10v27zM723 1454l22 70l21 14l20 6l7 10l45 -14l18 4 l25 -31l28 -24l19 -49v-56l-27 -28l-10 -6l-21 -7l-53 9l-41 20l-43 39l-2 31z" />
<glyph unicode="&#xd8;" horiz-adv-x="1124" d="M106 360q2 10 2.5 23.5t0.5 28.5q-2 4 4 39q8 31 8 38q0 6 16 50q16 45 17 49q4 10 10 20t10 23q2 8 11.5 27.5t29.5 52.5q39 61 43 75q16 23 32.5 46.5t37.5 52.5q6 8 12 15t14 18q12 8 19 14q4 6 18 24q8 4 16.5 12.5l18.5 18.5q8 2 17.5 10.5t25.5 20.5q4 2 10 6 q4 4 12.5 8t18.5 8q14 4 30.5 9.5t37.5 13.5q4 2 10 3l18 3l12 4h25q12 2 17.5 2t3.5 0l24 -14q6 -6 23 -19q4 -2 10 -6t16 -8q2 -2 4 -6q4 -6 11 -6l2 -2q47 35 104 67q8 16 18.5 39t20.5 49q2 4 23.5 19.5t27.5 15.5h19q25 -6 32 -33q2 -8 13 -38v-23q2 -20 -17 -72 q-2 -12 -45 -67v-10q-2 -14 4 -39q-2 -10 -2 -19.5v-19.5q10 -18 23 -19q6 -10 13 -21.5t16 -21.5q4 -10 10 -21.5t14 -25.5l8 -8l8 -8q4 -10 7.5 -23.5t7.5 -29.5q2 0 6 -5q4 -14 7 -29.5t7 -33.5q2 -2 2 -6q2 -12 6.5 -30.5t8.5 -43.5q2 -10 5 -22.5t7 -38.5q0 -14 -2 -21 q4 -6 0 -31q-2 -27 -2 -29.5t-6 -17.5q-4 -16 -4 -14q-2 -8 -3 -16.5t-4 -18.5q-8 -18 -18 -53q-2 -4 -5 -14.5t-9 -26.5q-6 -4 -10.5 -12.5t-10.5 -26.5q-8 -8 -18 -25v-8q-2 -2 -2 -4t-2 -4q-4 -4 -8.5 -6t-8.5 -6q-10 -14 -25.5 -30.5t-37.5 -37.5q-23 -14 -41 -31 q-20 -18 -76 -47q-76 -68 -162 -67h-19t-20 2l-18 -8l-21 -2l-14 -7l-12 -2h-10l-13 -6l-41 4l-34 9l-23 8l-25 -49l-14 -19q-4 -14 -10 -29.5t-12 -33.5q-4 -8 -13 -29l-4 -4q-8 -39 -31 -35q-20 6 -24 15.5t-6 23.5q4 20 6 45q6 43 6 94q-4 6 18 66q-6 2 -18 10 q-16 10 -35.5 25.5t-48.5 38.5q-8 10 -18.5 22t-20.5 27q-6 10 -13 23.5t-18 27.5q-4 14 -11 30.5t-15 36.5q-2 10 -3 20.5t-5 20.5q-2 37 -7 86zM254 313q0 -113 45 -157q39 -35 68 -45q8 16 15 33.5l15 37.5q16 41 38 93.5t46 117.5q23 47 50.5 103.5t58.5 124.5 q31 57 64.5 123.5t68.5 144.5q-4 4 -9 8t-7 8q-23 -16 -54 -16h-63q-8 0 -78 -45q-10 -16 -23.5 -32.5t-29.5 -35.5q-10 -12 -28.5 -37.5t-41.5 -64.5l-14 -21q-6 -18 -19 -43q-4 -6 -7 -12l-7 -14q-4 -12 -10 -25.5t-13 -30.5l-4 -8q-29 -53 -55 -137q-6 -76 -6 -70z M489 74l41 -2l9 2l16 4q16 0 31.5 1t31.5 3q39 6 95 37q10 4 21 11t22 15q16 10 38.5 27.5t47.5 48.5q2 4 12 21.5t27 50.5q4 10 11 26.5t15 38.5q2 8 4 15.5t7 17.5q4 6 8 13.5t8 15.5q0 8 -2 14q10 51 10 78q0 127 -39 180q-10 16 -23.5 38t-31.5 44q-2 4 -14 17 q-10 -33 -68 -138q-29 -53 -45 -83.5t-19 -39.5q-20 -29 -41.5 -64.5t-44.5 -80.5q-4 -10 -7 -20.5t-7 -20.5q-4 -4 -7 -10t-7 -15q-10 -23 -23.5 -52t-27.5 -64q-8 -18 -16.5 -41t-18.5 -51q-2 -14 -13 -37z" />
<glyph unicode="&#xd9;" horiz-adv-x="1067" d="M137 516q0 18 2 49t6.5 68t10.5 78t18 80q2 6 4 11t4 13q4 20 9.5 39.5t11.5 36.5q10 25 19 45t20 33q51 82 73 82q8 -16 9 -19l6 15q0 -16 4 0q-2 0 -3 -3.5t-3 -5.5q4 -2 6 -12q2 -2 -2 -29q0 -6 3 -12t9 -16q0 -6 14 -21q0 -6 13.5 -18t48.5 -58q14 -33 20 -90v-39 l-6 -49v-24q-2 -10 -2 -32t-2 -52q0 -16 1 -36t3 -34q4 -4 6 -21.5t4 -39.5q2 -23 3.5 -38.5t5.5 -17.5q8 -6 20 -49q14 -45 31 -45q6 0 14 -33q10 -31 19 -28q4 4 8 -2t7 -14.5t6 -15.5t5 -7q2 4 4 4q4 4 11.5 -9.5t11.5 -6.5q6 -6 12 -7q14 -8 33 -6q16 -4 41 6 q12 0 45 25q33 39 74 145q2 8 6 24.5t14 45.5q4 31 13.5 75t19.5 105q16 88 16 107q-2 31 -16 67q-6 2 -21 37l-6 29l2 6q0 10 8 10l46 119q2 0 43 78q41 80 43 80q4 2 18 12t29 10q6 -6 24.5 -1t22.5 -3q0 -4 7 -1t15 9t16.5 11.5t10.5 5.5q8 0 12 -17q-2 0 4 -6q0 -2 6 0 q4 4 7 -2q-2 2 -2 0q10 0 15 -13.5t5 -21.5v-14t-2 -27l-2 -34q-4 -27 -8 -61t-13 -81q-2 -4 -4 -11t-4 -17q0 6 -2 -5.5t-6 -44.5q-4 -25 -12 -59q-8 -18 -19 -49q-4 -14 -14 -48t-27 -87q-4 -10 -11 -32t-15 -46q-4 -12 -10.5 -22.5t-10.5 -26.5q-2 -2 -6 -9.5t-12 -17.5 q-10 -41 -29.5 -85t-46.5 -91q-8 -16 -27 -41q-4 -6 -9 -10t-11 -10q-6 -10 -15.5 -20.5t-19.5 -25.5q-4 -12 -16 -22l-21 -29q-6 -4 -15 -12t-22 -21q-12 -12 -14 -12q-14 -23 -37.5 -37t-56.5 -37q-6 -2 -19 -2q-4 2 -7 2t-7 5q-14 -12 -35.5 -16.5t-48.5 -4.5 q-6 -2 -22 -2q-25 0 -35 10q-41 0 -60 17q-10 4 -14 10q-14 2 -28.5 13t-30.5 28q-27 23 -43 43q-23 25 -41.5 54.5t-34.5 62.5q0 4 -5 16t-11.5 25.5t-11.5 24.5t-5 13q0 4 -4 17.5t-8 28l-8 29t-4 20.5q-8 31 -12.5 67.5t-2.5 77.5zM408 1452l2 2q2 33 20 33q55 0 43 4 q10 0 19 -2l12 -4q8 -4 14 -6q2 -2 3 -2t3 -2l11 -5q6 -4 10 -10q27 -23 66.5 -57.5t93.5 -81.5q23 -20 43 -38.5t40 -39.5q78 -72 78 -74q-2 -14 -4 -16l-4 -4h-6l-6 -6h-4q-8 -6 -27 -6q-25 0 -55 14q-4 2 -16.5 6t-32.5 14q-23 10 -48.5 24.5t-52.5 35.5q-82 61 -92 67 q-10 8 -20.5 17.5t-24.5 19.5q-6 8 -14 17.5t-19 19.5q-2 2 -18 35q-14 23 -14 45z" />
<glyph unicode="&#xda;" horiz-adv-x="1067" d="M137 516q0 18 2 49t6.5 68t10.5 78t18 80q2 6 4 11t4 13q4 20 9.5 39.5t11.5 36.5q10 25 19 45t20 33q51 82 73 82q8 -16 9 -19l6 15q0 -16 4 0q-2 0 -3 -3.5t-3 -5.5q4 -2 6 -12q2 -2 -2 -29q0 -6 3 -12t9 -16q0 -6 14 -21q0 -6 13.5 -18t48.5 -58q14 -33 20 -90v-39 l-6 -49v-24q-2 -10 -2 -32t-2 -52q0 -16 1 -36t3 -34q4 -4 6 -21.5t4 -39.5q2 -23 3.5 -38.5t5.5 -17.5q8 -6 20 -49q14 -45 31 -45q6 0 14 -33q10 -31 19 -28q4 4 8 -2t7 -14.5t6 -15.5t5 -7q2 4 4 4q4 4 11.5 -9.5t11.5 -6.5q6 -6 12 -7q14 -8 33 -6q16 -4 41 6 q12 0 45 25q33 39 74 145q2 8 6 24.5t14 45.5q4 31 13.5 75t19.5 105q16 88 16 107q-2 31 -16 67q-6 2 -21 37l-6 29l2 6q0 10 8 10l46 119q2 0 43 78q41 80 43 80q4 2 18 12t29 10q6 -6 24.5 -1t22.5 -3q0 -4 7 -1t15 9t16.5 11.5t10.5 5.5q8 0 12 -17q-2 0 4 -6q0 -2 6 0 q4 4 7 -2q-2 2 -2 0q10 0 15 -13.5t5 -21.5v-14t-2 -27l-2 -34q-4 -27 -8 -61t-13 -81q-2 -4 -4 -11t-4 -17q0 6 -2 -5.5t-6 -44.5q-4 -25 -12 -59q-8 -18 -19 -49q-4 -14 -14 -48t-27 -87q-4 -10 -11 -32t-15 -46q-4 -12 -10.5 -22.5t-10.5 -26.5q-2 -2 -6 -9.5t-12 -17.5 q-10 -41 -29.5 -85t-46.5 -91q-8 -16 -27 -41q-4 -6 -9 -10t-11 -10q-6 -10 -15.5 -20.5t-19.5 -25.5q-4 -12 -16 -22l-21 -29q-6 -4 -15 -12t-22 -21q-12 -12 -14 -12q-14 -23 -37.5 -37t-56.5 -37q-6 -2 -19 -2q-4 2 -7 2t-7 5q-14 -12 -35.5 -16.5t-48.5 -4.5 q-6 -2 -22 -2q-25 0 -35 10q-41 0 -60 17q-10 4 -14 10q-14 2 -28.5 13t-30.5 28q-27 23 -43 43q-23 25 -41.5 54.5t-34.5 62.5q0 4 -5 16t-11.5 25.5t-11.5 24.5t-5 13q0 4 -4 17.5t-8 28l-8 29t-4 20.5q-8 31 -12.5 67.5t-2.5 77.5zM479 1296l4 9l13 12v4l61 55l29 21 l84 61l61 37l60 14l75 11h8l11 -7l2 -8l-8 -2l-7 -16l2 -6l-10 -4l-16 -11v-6l6 -8l-8 -8l4 -17l-8 -6v-6l24 4v-2l-28 -22l-7 -21l-14 -22l-12 -15l-25 -22l-22 -17l-82 -49l-74 -32l-14 -3h-35l-25 9h-16l-12 6v8l-8 8l-11 29l2 10z" />
<glyph unicode="&#xdb;" horiz-adv-x="1067" d="M137 516q0 18 2 49t6.5 68t10.5 78t18 80q2 6 4 11t4 13q4 20 9.5 39.5t11.5 36.5q10 25 19 45t20 33q51 82 73 82q8 -16 9 -19l6 15q0 -16 4 0q-2 0 -3 -3.5t-3 -5.5q4 -2 6 -12q2 -2 -2 -29q0 -6 3 -12t9 -16q0 -6 14 -21q0 -6 13.5 -18t48.5 -58q14 -33 20 -90v-39 l-6 -49v-24q-2 -10 -2 -32t-2 -52q0 -16 1 -36t3 -34q4 -4 6 -21.5t4 -39.5q2 -23 3.5 -38.5t5.5 -17.5q8 -6 20 -49q14 -45 31 -45q6 0 14 -33q10 -31 19 -28q4 4 8 -2t7 -14.5t6 -15.5t5 -7q2 4 4 4q4 4 11.5 -9.5t11.5 -6.5q6 -6 12 -7q14 -8 33 -6q16 -4 41 6 q12 0 45 25q33 39 74 145q2 8 6 24.5t14 45.5q4 31 13.5 75t19.5 105q16 88 16 107q-2 31 -16 67q-6 2 -21 37l-6 29l2 6q0 10 8 10l46 119q2 0 43 78q41 80 43 80q4 2 18 12t29 10q6 -6 24.5 -1t22.5 -3q0 -4 7 -1t15 9t16.5 11.5t10.5 5.5q8 0 12 -17q-2 0 4 -6q0 -2 6 0 q4 4 7 -2q-2 2 -2 0q10 0 15 -13.5t5 -21.5v-14t-2 -27l-2 -34q-4 -27 -8 -61t-13 -81q-2 -4 -4 -11t-4 -17q0 6 -2 -5.5t-6 -44.5q-4 -25 -12 -59q-8 -18 -19 -49q-4 -14 -14 -48t-27 -87q-4 -10 -11 -32t-15 -46q-4 -12 -10.5 -22.5t-10.5 -26.5q-2 -2 -6 -9.5t-12 -17.5 q-10 -41 -29.5 -85t-46.5 -91q-8 -16 -27 -41q-4 -6 -9 -10t-11 -10q-6 -10 -15.5 -20.5t-19.5 -25.5q-4 -12 -16 -22l-21 -29q-6 -4 -15 -12t-22 -21q-12 -12 -14 -12q-14 -23 -37.5 -37t-56.5 -37q-6 -2 -19 -2q-4 2 -7 2t-7 5q-14 -12 -35.5 -16.5t-48.5 -4.5 q-6 -2 -22 -2q-25 0 -35 10q-41 0 -60 17q-10 4 -14 10q-14 2 -28.5 13t-30.5 28q-27 23 -43 43q-23 25 -41.5 54.5t-34.5 62.5q0 4 -5 16t-11.5 25.5t-11.5 24.5t-5 13q0 4 -4 17.5t-8 28l-8 29t-4 20.5q-8 31 -12.5 67.5t-2.5 77.5zM414 1178q0 2 2 4q0 10 7 24.5t32 48.5 q10 14 22 29.5t27 34.5q23 29 50.5 61.5t59.5 69.5q8 6 16.5 14.5l18.5 18.5q6 4 12.5 9t14.5 13q4 4 18 11q35 0 49 -15q4 -4 10.5 -7t14.5 -7q10 -8 21.5 -18.5t25.5 -20.5q6 -12 25 -33l67 -135q16 -31 33 -49v-2q4 -7 16 -23q0 -10 -12 -41q-12 -6 -20 -6q-23 0 -33 6 q-4 4 -26.5 36t-61.5 91q-8 10 -18.5 27.5t-26.5 40.5q-12 16 -27 18q-2 -2 -16 -6q-2 -2 -18.5 -20.5l-49.5 -55.5l-18 -24q-2 -4 -80 -94q-27 -20 -33 -48q-29 -16 -41 -16q-23 4 -29 12q-16 8 -32 52z" />
<glyph unicode="&#xdc;" horiz-adv-x="1067" d="M137 516q0 18 2 49t6.5 68t10.5 78t18 80q2 6 4 11t4 13q4 20 9.5 39.5t11.5 36.5q10 25 19 45t20 33q51 82 73 82q8 -16 9 -19l6 15q0 -16 4 0q-2 0 -3 -3.5t-3 -5.5q4 -2 6 -12q2 -2 -2 -29q0 -6 3 -12t9 -16q0 -6 14 -21q0 -6 13.5 -18t48.5 -58q14 -33 20 -90v-39 l-6 -49v-24q-2 -10 -2 -32t-2 -52q0 -16 1 -36t3 -34q4 -4 6 -21.5t4 -39.5q2 -23 3.5 -38.5t5.5 -17.5q8 -6 20 -49q14 -45 31 -45q6 0 14 -33q10 -31 19 -28q4 4 8 -2t7 -14.5t6 -15.5t5 -7q2 4 4 4q4 4 11.5 -9.5t11.5 -6.5q6 -6 12 -7q14 -8 33 -6q16 -4 41 6 q12 0 45 25q33 39 74 145q2 8 6 24.5t14 45.5q4 31 13.5 75t19.5 105q16 88 16 107q-2 31 -16 67q-6 2 -21 37l-6 29l2 6q0 10 8 10l46 119q2 0 43 78q41 80 43 80q4 2 18 12t29 10q6 -6 24.5 -1t22.5 -3q0 -4 7 -1t15 9t16.5 11.5t10.5 5.5q8 0 12 -17q-2 0 4 -6q0 -2 6 0 q4 4 7 -2q-2 2 -2 0q10 0 15 -13.5t5 -21.5v-14t-2 -27l-2 -34q-4 -27 -8 -61t-13 -81q-2 -4 -4 -11t-4 -17q0 6 -2 -5.5t-6 -44.5q-4 -25 -12 -59q-8 -18 -19 -49q-4 -14 -14 -48t-27 -87q-4 -10 -11 -32t-15 -46q-4 -12 -10.5 -22.5t-10.5 -26.5q-2 -2 -6 -9.5t-12 -17.5 q-10 -41 -29.5 -85t-46.5 -91q-8 -16 -27 -41q-4 -6 -9 -10t-11 -10q-6 -10 -15.5 -20.5t-19.5 -25.5q-4 -12 -16 -22l-21 -29q-6 -4 -15 -12t-22 -21q-12 -12 -14 -12q-14 -23 -37.5 -37t-56.5 -37q-6 -2 -19 -2q-4 2 -7 2t-7 5q-14 -12 -35.5 -16.5t-48.5 -4.5 q-6 -2 -22 -2q-25 0 -35 10q-41 0 -60 17q-10 4 -14 10q-14 2 -28.5 13t-30.5 28q-27 23 -43 43q-23 25 -41.5 54.5t-34.5 62.5q0 4 -5 16t-11.5 25.5t-11.5 24.5t-5 13q0 4 -4 17.5t-8 28l-8 29t-4 20.5q-8 31 -12.5 67.5t-2.5 77.5zM387 1464l4 27l17 33l36 28l31 7h4 l17 -7l18 -8l16 2l-2 -14l21 -8l29 -27l12 -14l28 -68l3 -14v-25l-15 -24l-14 -17l-2 -4l-31 -4l-35 -4l-37 14l-16 9l-4 4l-49 34l-23 21l-4 10v27zM723 1454l22 70l21 14l20 6l7 10l45 -14l18 4l25 -31l28 -24l19 -49v-56l-27 -28l-10 -6l-21 -7l-53 9l-41 20l-43 39 l-2 31z" />
<glyph unicode="&#xdd;" horiz-adv-x="1228" d="M94 963l17 30l26 25l13 12l18 -10l8 -10l12 14l45 -16l27 -27l68 -84l34 -51l66 -111l23 -51l26 31l19 39l14 22l20 27l21 31l6 4l14 24l74 92l39 45l45 54l86 96l55 53l25 21l35 32l35 17l22 18l19 15l28 14l2 -19l-10 -20l-18 -29l-13 -28l-41 -62l-14 -28l-293 -435 l-10 -24l-35 -58l-14 -16l-19 -35v-6l-8 -6l-12 -21l-17 -24l-6 -14v-11l-12 -69l-12 -88l-8 -17l-17 -135l2 -18l-8 -50l-8 -51l-6 -12l-2 -25l-9 -28l-4 -6l-8 -25l2 -14l-8 -17l-22 -16l-74 -8l-49 16l-25 53l-8 62l-4 65v76l8 100l14 66l15 78l14 72l6 55l-49 61l-47 64 l-47 84l-39 59l-19 55l-2 41zM356 1260l4 8l13 12v4l61 55l29 21l84 61l61 37l60 15l75 10h9l10 -6l2 -9l-8 -2l-6 -16l2 -6l-11 -4l-16 -10v-7l6 -8l-8 -8l4 -16l-8 -7v-6l24 4v-2l-28 -22l-6 -21l-15 -22l-12 -15l-25 -22l-22 -16l-82 -50l-74 -32l-14 -2h-35l-24 8h-17 l-12 6v8l-8 8l-11 29l2 10z" />
<glyph unicode="&#xde;" horiz-adv-x="843" d="M100 246l2 73l13 58l14 80l14 45l27 125l12 24l23 76l37 109l2 28l18 29l19 43l26 45l2 14l43 74l10 6l19 35l41 37l43 16h14l29 -12l16 -23l6 -49l-6 -102l-26 -59l-29 -62l-20 -55l88 -92l2 -7l10 -8l84 -104l6 -15l10 -10l47 -76l13 -32l10 -15l4 -24l2 -6v-13l6 -14 l6 -45l-2 -37l-16 -47l-21 -29l-28 -26l-37 -21l-43 -16h-60h-34l-39 14l-4 -2l-39 14l-11 7h-6l2 8l4 2l-4 4h-4l2 6l-4 4l8 2l-4 6h6l3 9l79 -9l33 2l27 7l22 16l15 22v21l-4 37l-17 53l-14 31l-27 43l-28 39l-5 2l-24 37l-2 4l-10 10l-21 35l-39 45l-63 -172l-17 -62 l-16 -32l-6 -35l-15 -31l-8 -35l-20 -123l-15 -61l-12 -68l-29 -73l-26 -29l-33 -18l-22 12l-7 94l4 12l-4 17v59l4 47l-4 10z" />
<glyph unicode="&#xdf;" horiz-adv-x="1077" d="M35 -217l28 295l35 223l74 299l104 332l23 49l6 20l23 46l39 40l32 37l29 23l27 14l71 27l74 10l57 -2l93 -22l73 -41l31 -27l39 -41l37 -53l28 -70l11 -37l4 -35l-21 -51l-2 -16l-59 -74l-33 -16l-24 -19l-11 -6l-16 -4l-12 -20l24 -21l72 -47l63 -61l47 -64l21 -49 l12 -68l-4 -51l-12 -29l-6 -26l-31 -35l-39 -39l-24 -20l-19 -23l-37 -31l-8 -2l-23 -20l-14 -6l-31 -19l-49 -22l-57 -21l-57 -6l-21 -6l-39 -4l-43 -8l-10 4l-21 -8l-145 16l-35 25l-6 20l2 20l-6 17l6 10v29h8l2 10l29 -31l33 -22l49 -10h63l66 8l59 8l43 16l41 19l56 30 l30 33l21 35l18 35l8 26v41l-10 31l-10 29l-39 37l-31 22l-65 19l-33 2l-106 -29l-29 -6l-41 16l-16 4l-11 7l-34 40l-7 7l2 14l-14 27l14 28v10l7 7l-5 16l11 8l14 27l10 8l27 14v13l18 8h33l21 2l14 14l14 -2l41 15l27 10l59 61l35 31l12 20l4 45l-24 52l-21 34l-43 25 l-49 2l-51 -2l-55 -25l-39 -38l-25 -35l-20 -56l-31 -79l-90 -295l-8 -39l-37 -144l-25 -53l-12 -37l-23 -102l-4 -31l-10 -53l-29 -191l-24 -32l-27 -58l-2 -6l-39 -8l-10 14l4 6l-8 37z" />
<glyph unicode="&#xe0;" d="M-20 39q0 35 20 108q23 8 57 43q4 18 8.5 32t16.5 34t35.5 57t66.5 105q18 12 26.5 25.5t19 29.5t24.5 35.5t45 46.5q86 115 152.5 183.5t119.5 68.5q33 0 84 -51q18 0 26.5 -4t20 -12.5t30 -18.5t56.5 -21l14 -6q13 -6 30.5 -17t32 -28t14.5 -37q0 -4 -8.5 -20.5 t-8.5 -24.5q-2 -10 -3 -26.5t-5 -38.5q-12 -12 -24.5 -43t-24.5 -71l-25.5 -85t-29.5 -84q-20 -45 -39 -166l-27 -170q-2 -10 -2 -33v-22t4 -27q-8 14 -43 49q-33 33 -41 60t-8 78q0 45 4 74.5t10 46.5q-8 12 -18 12q-8 0 -18.5 -8.5t-30 -26.5t-51 -47t-80.5 -72 q-6 -16 -16.5 -29.5t-32 -28.5t-55.5 -33.5t-87 -45.5q-41 -47 -84 -47q-2 0 -12 5t-23.5 15.5t-26 24.5t-18.5 35q-8 29 -21.5 49t-25.5 38.5t-20 39t-8 49.5zM131 14q0 -16 14 -16q12 0 28.5 13.5t39.5 35t50.5 47t60.5 51.5q6 10 14 18.5t23.5 24t41 40t66.5 65.5 q0 8 11.5 29.5t27.5 46t34.5 47t30.5 33.5q37 92 41 92q0 25 -20 24q-16 0 -64 -41q-18 -10 -38.5 -29.5t-51 -52t-72.5 -81t-104 -119.5q-6 -8 -27.5 -41t-45 -70t-42 -70.5t-18.5 -46.5zM385 1176l2 2q2 33 21 32q55 0 43 4q10 0 18 -2l12 -4q8 -4 15 -6q2 -2 3 -2t3 -2 l10 -4q6 -4 10 -10q27 -23 67 -57.5t93 -82.5q23 -20 43 -38.5t41 -38.5q78 -72 78 -74q-2 -14 -4 -16l-4 -5h-7l-6 -6h-4q-8 -6 -26 -6q-25 0 -56 14q-4 2 -16 6.5t-33 14.5q-23 10 -48.5 24.5t-51.5 34.5q-82 61 -92 68q-10 8 -20.5 17.5t-24.5 19.5q-6 8 -14.5 17 t-18.5 20q-2 2 -19 34q-14 23 -14 46zM629 573q6 -6 12 -8q2 3 6 15q-2 0 -9 -3.5t-9 -3.5z" />
<glyph unicode="&#xe1;" d="M-20 39q0 35 20 108q23 8 57 43q4 18 8.5 32t16.5 34t35.5 57t66.5 105q18 12 26.5 25.5t19 29.5t24.5 35.5t45 46.5q86 115 152.5 183.5t119.5 68.5q33 0 84 -51q18 0 26.5 -4t20 -12.5t30 -18.5t56.5 -21l14 -6q13 -6 30.5 -17t32 -28t14.5 -37q0 -4 -8.5 -20.5 t-8.5 -24.5q-2 -10 -3 -26.5t-5 -38.5q-12 -12 -24.5 -43t-24.5 -71l-25.5 -85t-29.5 -84q-20 -45 -39 -166l-27 -170q-2 -10 -2 -33v-22t4 -27q-8 14 -43 49q-33 33 -41 60t-8 78q0 45 4 74.5t10 46.5q-8 12 -18 12q-8 0 -18.5 -8.5t-30 -26.5t-51 -47t-80.5 -72 q-6 -16 -16.5 -29.5t-32 -28.5t-55.5 -33.5t-87 -45.5q-41 -47 -84 -47q-2 0 -12 5t-23.5 15.5t-26 24.5t-18.5 35q-8 29 -21.5 49t-25.5 38.5t-20 39t-8 49.5zM131 14q0 -16 14 -16q12 0 28.5 13.5t39.5 35t50.5 47t60.5 51.5q6 10 14 18.5t23.5 24t41 40t66.5 65.5 q0 8 11.5 29.5t27.5 46t34.5 47t30.5 33.5q37 92 41 92q0 25 -20 24q-16 0 -64 -41q-18 -10 -38.5 -29.5t-51 -52t-72.5 -81t-104 -119.5q-6 -8 -27.5 -41t-45 -70t-42 -70.5t-18.5 -46.5zM506 985l4 8l12 13v4l62 55l28 20l84 62l62 37l59 14l76 10h8l10 -6l2 -8l-8 -2 l-6 -16l2 -7l-10 -4l-17 -10v-6l7 -8l-9 -8l5 -17l-9 -6v-6l25 4v-2l-29 -23l-6 -20l-14 -23l-13 -14l-24 -22l-23 -17l-82 -49l-73 -33l-15 -2h-34l-25 8h-16l-13 7v8l-8 8l-10 29l2 10zM629 573q6 -6 12 -8q2 3 6 15q-2 0 -9 -3.5t-9 -3.5z" />
<glyph unicode="&#xe2;" d="M-20 39q0 35 20 108q23 8 57 43q4 18 8.5 32t16.5 34t35.5 57t66.5 105q18 12 26.5 25.5t19 29.5t24.5 35.5t45 46.5q86 115 152.5 183.5t119.5 68.5q33 0 84 -51q18 0 26.5 -4t20 -12.5t30 -18.5t56.5 -21l14 -6q13 -6 30.5 -17t32 -28t14.5 -37q0 -4 -8.5 -20.5 t-8.5 -24.5q-2 -10 -3 -26.5t-5 -38.5q-12 -12 -24.5 -43t-24.5 -71l-25.5 -85t-29.5 -84q-20 -45 -39 -166l-27 -170q-2 -10 -2 -33v-22t4 -27q-8 14 -43 49q-33 33 -41 60t-8 78q0 45 4 74.5t10 46.5q-8 12 -18 12q-8 0 -18.5 -8.5t-30 -26.5t-51 -47t-80.5 -72 q-6 -16 -16.5 -29.5t-32 -28.5t-55.5 -33.5t-87 -45.5q-41 -47 -84 -47q-2 0 -12 5t-23.5 15.5t-26 24.5t-18.5 35q-8 29 -21.5 49t-25.5 38.5t-20 39t-8 49.5zM131 14q0 -16 14 -16q12 0 28.5 13.5t39.5 35t50.5 47t60.5 51.5q6 10 14 18.5t23.5 24t41 40t66.5 65.5 q0 8 11.5 29.5t27.5 46t34.5 47t30.5 33.5q37 92 41 92q0 25 -20 24q-16 0 -64 -41q-18 -10 -38.5 -29.5t-51 -52t-72.5 -81t-104 -119.5q-6 -8 -27.5 -41t-45 -70t-42 -70.5t-18.5 -46.5zM389 860q0 2 2 4q0 10 7.5 24.5t31.5 49.5q10 14 22.5 29.5t26.5 33.5 q23 29 50.5 62t60.5 70q8 6 16 14t19 18q6 4 12 9.5t14 13.5q4 4 19 10q35 0 49 -14q4 -4 10 -7t14 -8q10 -8 21.5 -18t26.5 -21q6 -12 24 -32l68 -135q16 -31 32 -50v-2q5 -6 17 -22q0 -10 -12 -41q-12 -6 -21 -6q-23 0 -33 6q-4 4 -26.5 35.5t-61.5 91.5q-8 10 -18 27.5 t-27 39.5q-12 16 -26 19q-2 -2 -17 -6q-2 -2 -18.5 -20.5t-48.5 -55.5q-6 -8 -19 -25q-2 -4 -80 -94q-27 -20 -32 -47q-29 -16 -41 -16q-23 4 -29 12q-16 8 -33 51zM629 573q6 -6 12 -8q2 3 6 15q-2 0 -9 -3.5t-9 -3.5z" />
<glyph unicode="&#xe3;" d="M-20 39q0 35 20 108q23 8 57 43q4 18 8.5 32t16.5 34t35.5 57t66.5 105q18 12 26.5 25.5t19 29.5t24.5 35.5t45 46.5q86 115 152.5 183.5t119.5 68.5q33 0 84 -51q18 0 26.5 -4t20 -12.5t30 -18.5t56.5 -21l14 -6q13 -6 30.5 -17t32 -28t14.5 -37q0 -4 -8.5 -20.5 t-8.5 -24.5q-2 -10 -3 -26.5t-5 -38.5q-12 -12 -24.5 -43t-24.5 -71l-25.5 -85t-29.5 -84q-20 -45 -39 -166l-27 -170q-2 -10 -2 -33v-22t4 -27q-8 14 -43 49q-33 33 -41 60t-8 78q0 45 4 74.5t10 46.5q-8 12 -18 12q-8 0 -18.5 -8.5t-30 -26.5t-51 -47t-80.5 -72 q-6 -16 -16.5 -29.5t-32 -28.5t-55.5 -33.5t-87 -45.5q-41 -47 -84 -47q-2 0 -12 5t-23.5 15.5t-26 24.5t-18.5 35q-8 29 -21.5 49t-25.5 38.5t-20 39t-8 49.5zM131 14q0 -16 14 -16q12 0 28.5 13.5t39.5 35t50.5 47t60.5 51.5q6 10 14 18.5t23.5 24t41 40t66.5 65.5 q0 8 11.5 29.5t27.5 46t34.5 47t30.5 33.5q37 92 41 92q0 25 -20 24q-16 0 -64 -41q-18 -10 -38.5 -29.5t-51 -52t-72.5 -81t-104 -119.5q-6 -8 -27.5 -41t-45 -70t-42 -70.5t-18.5 -46.5zM389 868q2 2 2 3t2 3q-2 2 -2 9q0 14 8 45q31 70 52 86q43 39 71 35q6 2 21 2 q8 -2 19 -3t28 -6q4 -2 9 -4t9 -4q12 -8 26.5 -17t31.5 -20l20 -20t23 -25q2 -2 6 -10v-2q8 -18 18 -35l2 -2l13 -4h14q25 4 32 9t17 14q14 16 33.5 39.5t46.5 54.5q37 39 49 39q45 0 43 2q4 0 21 -4q2 -2 10 -6q-4 -10 -13 -23l3 -2q-10 -20 -39 -55q-2 -6 -13 -27l-4 -2 v-6q-4 -12 -18 -33v-6q0 -4 2 -6q-4 -8 -9 -15.5t-12 -17.5q2 2 2 0q-2 0 -2 -4q-10 -6 -26 -21l-2 -2q-14 -14 -23 -18q-18 -8 -35.5 -10t-46.5 -2q-70 6 -145 47q-4 4 -29 18q-4 4 -10 8t-14 9q-4 0 -19.5 8t-17.5 8q0 -2 -3 -3t-8.5 -4t-10.5 -12.5t-7 -27.5 q-10 -25 -25.5 -29t-19.5 -4q-10 0 -16 2h-9q-4 2 -7 2t-7 2h-8q-10 2 -21 21q-4 4 -12 26zM629 573q6 -6 12 -8q2 3 6 15q-2 0 -9 -3.5t-9 -3.5z" />
<glyph unicode="&#xe4;" d="M-20 39q0 35 20 108q23 8 57 43q4 18 8.5 32t16.5 34t35.5 57t66.5 105q18 12 26.5 25.5t19 29.5t24.5 35.5t45 46.5q86 115 152.5 183.5t119.5 68.5q33 0 84 -51q18 0 26.5 -4t20 -12.5t30 -18.5t56.5 -21l14 -6q13 -6 30.5 -17t32 -28t14.5 -37q0 -4 -8.5 -20.5 t-8.5 -24.5q-2 -10 -3 -26.5t-5 -38.5q-12 -12 -24.5 -43t-24.5 -71l-25.5 -85t-29.5 -84q-20 -45 -39 -166l-27 -170q-2 -10 -2 -33v-22t4 -27q-8 14 -43 49q-33 33 -41 60t-8 78q0 45 4 74.5t10 46.5q-8 12 -18 12q-8 0 -18.5 -8.5t-30 -26.5t-51 -47t-80.5 -72 q-6 -16 -16.5 -29.5t-32 -28.5t-55.5 -33.5t-87 -45.5q-41 -47 -84 -47q-2 0 -12 5t-23.5 15.5t-26 24.5t-18.5 35q-8 29 -21.5 49t-25.5 38.5t-20 39t-8 49.5zM131 14q0 -16 14 -16q12 0 28.5 13.5t39.5 35t50.5 47t60.5 51.5q6 10 14 18.5t23.5 24t41 40t66.5 65.5 q0 8 11.5 29.5t27.5 46t34.5 47t30.5 33.5q37 92 41 92q0 25 -20 24q-16 0 -64 -41q-18 -10 -38.5 -29.5t-51 -52t-72.5 -81t-104 -119.5q-6 -8 -27.5 -41t-45 -70t-42 -70.5t-18.5 -46.5zM412 995l4 27l16 33l37 28l31 7h4l16 -7l19 -8l16 2l-2 -14l20 -8l29 -27l12 -14 l29 -68l2 -14v-25l-14 -24l-15 -17l-2 -4l-30 -4l-35 -4l-37 14l-16 9l-4 4l-50 34l-22 21l-4 10v27zM629 573q6 -6 12 -8q2 3 6 15q-2 0 -9 -3.5t-9 -3.5zM748 985l22 70l21 14l20 6l6 10l45 -14l19 4l24 -31l29 -24l18 -49v-56l-26 -28l-11 -6l-20 -7l-53 9l-41 20l-43 39 l-2 31z" />
<glyph unicode="&#xe5;" d="M-20 39q0 35 20 108q23 8 57 43q4 18 8.5 32t16.5 34t35.5 57t66.5 105q18 12 26.5 25.5t19 29.5t24.5 35.5t45 46.5q86 115 152.5 183.5t119.5 68.5q33 0 84 -51q18 0 26.5 -4t20 -12.5t30 -18.5t56.5 -21l14 -6q13 -6 30.5 -17t32 -28t14.5 -37q0 -4 -8.5 -20.5 t-8.5 -24.5q-2 -10 -3 -26.5t-5 -38.5q-12 -12 -24.5 -43t-24.5 -71l-25.5 -85t-29.5 -84q-20 -45 -39 -166l-27 -170q-2 -10 -2 -33v-22t4 -27q-8 14 -43 49q-33 33 -41 60t-8 78q0 45 4 74.5t10 46.5q-8 12 -18 12q-8 0 -18.5 -8.5t-30 -26.5t-51 -47t-80.5 -72 q-6 -16 -16.5 -29.5t-32 -28.5t-55.5 -33.5t-87 -45.5q-41 -47 -84 -47q-2 0 -12 5t-23.5 15.5t-26 24.5t-18.5 35q-8 29 -21.5 49t-25.5 38.5t-20 39t-8 49.5zM131 14q0 -16 14 -16q12 0 28.5 13.5t39.5 35t50.5 47t60.5 51.5q6 10 14 18.5t23.5 24t41 40t66.5 65.5 q0 8 11.5 29.5t27.5 46t34.5 47t30.5 33.5q37 92 41 92q0 25 -20 24q-16 0 -64 -41q-18 -10 -38.5 -29.5t-51 -52t-72.5 -81t-104 -119.5q-6 -8 -27.5 -41t-45 -70t-42 -70.5t-18.5 -46.5zM500 1034q0 8 1 17.5t3 19.5q4 8 7 16.5t7 18.5v10q6 6 8 10q35 66 64 86 q16 10 49 25q6 2 15.5 4t19.5 6q8 -2 53 -12q10 -8 25 -18l18 -19q6 -6 12 -8q12 -10 27 -33q6 -2 12 -12q14 -29 19 -41q6 -33 6 -27q0 -57 -15 -94l-12 -12q-23 -23 -67 -51q-78 -47 -105 -33q-4 0 -15 -2t-16 -2q-10 0 -37.5 10t-33.5 16q-14 16 -23.5 27.5t-14.5 25 t-6 30.5t-1 42zM608 1010q0 -37 19 -37q0 6 61 39q51 26 51 59q0 59 -43 59q-6 0 -26 -20l-23 -25q-2 -2 -2 -3t-2 -3q-35 -23 -35 -69zM629 573q6 -6 12 -8q2 3 6 15q-2 0 -9 -3.5t-9 -3.5z" />
<glyph unicode="&#xe6;" horiz-adv-x="1646" d="M20 39q0 16 5.5 43t15.5 63q23 10 57 43q4 18 8.5 31.5t16.5 35t35.5 58.5t66.5 105q18 12 26.5 25.5t19 28.5t24.5 35.5t45 47.5q86 113 152.5 181.5t119.5 68.5q35 0 84 -49q18 0 26.5 -5.5t20 -13.5t30 -18t56.5 -21q0 2 13.5 -4t31 -18t32 -28.5t14.5 -35.5 q0 -6 -8.5 -22.5t-8.5 -22.5v-4l29 25q16 20 40.5 48t59.5 62l64 35q33 14 39 47h16q6 0 21.5 -14t23.5 -16q70 -10 105.5 -16.5t37.5 -6.5q35 -8 73 -29.5t69.5 -49t53 -59.5t21.5 -61q0 -61 -24.5 -106t-61 -76t-82 -49t-84 -28.5t-68.5 -13.5t-38 -3q-154 0 -201 37 q-78 -127 -77 -195q0 -16 28 -57q14 -18 23.5 -29.5t19.5 -16.5t26.5 -8t43.5 -6q8 -4 27.5 -17t64.5 -13q70 0 193 57q35 16 65.5 34.5t54 35t40 28t20.5 11.5q6 0 14 -4q-4 -31 -18 -70q-4 -4 -36 -41t-86 -79t-130 -77t-166 -35q-33 0 -71 20.5t-74.5 51.5t-68.5 64.5 t-54 62.5q-23 31 -39.5 68t-26.5 73q-10 -43 -18 -94l-27 -172q-2 -6 -2 -14v-17v-23t4 -26q-4 6 -15.5 19.5t-27.5 29.5q-33 33 -41 58.5t-8 79.5q0 82 14 121q-8 10 -18 10q-8 0 -18.5 -8.5t-30 -25.5t-51 -46t-80.5 -72q-6 -16 -16.5 -29.5t-32 -28.5t-55.5 -33.5 t-87 -45.5q-43 -49 -84 -49q-2 0 -12 5t-23.5 15.5t-26 25.5t-18.5 34q-8 29 -21.5 49t-25.5 38.5t-20.5 39t-8.5 51.5zM172 14q0 -18 14 -18q12 0 28.5 13.5t39 35t50.5 48t61 52.5q6 8 14 16.5t23.5 24t41 40t66.5 65.5q0 8 11 29.5t27.5 46t35 47t30.5 32.5q37 94 41 95 q0 23 -20 22q-14 0 -64 -39q-18 -10 -38.5 -29.5t-51 -52t-72.5 -82t-104 -120.5q-6 -8 -27.5 -40t-45 -69t-42 -70.5t-18.5 -46.5zM670 573q2 -2 12 -10q2 4 3 7t3 8q-2 0 -9 -2.5t-9 -2.5zM999 334q41 -12 43 -12q20 0 103 51q51 33 78.5 59.5t41 49t18.5 41t11 36.5 q-25 25 -37 25l-59 -37q-39 -23 -65.5 -47.5t-48 -50t-41 -55t-44.5 -60.5z" />
<glyph unicode="&#xe7;" horiz-adv-x="935" d="M90 315q0 53 33 146q20 29 47 73t94 107q66 63 113 76q2 0 7 4t9 4q2 0 47 16q45 18 52 15q20 -2 53 -21q23 -10 41 -41q4 -2 12 -14q14 0 35 -4l16 -4v-6q-8 -8 -12 -9q0 2 -6 9q2 -2 2 26q6 4 12 10.5t12 12.5q0 12 -4 12t-9 -14.5t-7 -16.5q-4 -8 -9 -17t-14 -20 q-8 -6 -17 -15l-19 -19q-39 -16 -50 -27q-4 -2 -10 -3t-12 -5q-20 -8 -41 -21q-33 -33 -64 -94q-10 -14 -22 -30.5t-23 -34.5q-2 -8 -34 -64q-29 -53 -29 -67v-83t-2 5q4 -59 71 -60q41 0 84 13q29 8 74 22t109 35q25 10 62.5 27.5t88.5 44.5q4 4 29 4q8 0 31.5 9t31.5 9 l2 -2l5 -8l2 -2q0 -2 -13.5 -13.5t-13.5 -17.5q2 -6 -3 -13t-5 -9q0 -10 2 -11q-12 -4 -23 -41q-6 -2 -18 -10q-4 -12 -8 -18q-8 -4 -16.5 -10.5t-18.5 -14.5q-4 -4 -10 -9t-17 -13q-4 -4 -19.5 -11.5t-37.5 -21.5q-8 -8 -25 -10q-72 -47 -96 -47q0 -8 6 -19q-2 -6 0 -14 q-2 -2 -2 -8t2 -11v-8q0 -8 -3 -24.5t-3 -24.5v-31q2 -4 2 -20q0 -4 12 -29q14 -27 9 -35q4 -12 2 -24q2 -33 -35 -86q-10 -4 -28.5 -9.5t-41.5 -13.5q-6 0 -21.5 -4t-21.5 -4q-10 -2 -12 -2h-14q-6 -2 -13.5 -2t-17.5 -2q-8 2 -24.5 4t-39.5 4q-2 2 -67 -8h-4q-2 0 -4 1 t-17 -1h-18l-4 2q4 14 8 10q31 -12 74 -8h-7l-4 2l-2 6h-6l12 6q66 2 95 33q16 8 36.5 21.5t47.5 29.5l4 19q2 12 0 26t-21 25q0 25 -47 49h-8l-37 -2q-29 -2 -63.5 17.5t-55.5 33.5q-8 20 -24 55q-8 14 -6 56q4 51 2 55l-4 4q-14 14 -23 33q0 6 -13.5 19.5t-13.5 17.5 q0 8 -18 35q-16 33 -16 36q-4 10 -8.5 20.5t-8.5 25.5q-2 8 -2 30q-2 2 -2 6z" />
<glyph unicode="&#xe8;" horiz-adv-x="866" d="M10 367q10 20 27 90q0 12 31 39q4 4 12 43q12 8 24 20q4 18 19 49q4 4 12 11.5t21 17.5l37 31q16 20 40.5 47.5t59.5 62.5l63 35q33 14 39 47h17q6 0 21.5 -14.5t23.5 -16.5q70 -10 105.5 -16t37.5 -6q31 -8 63.5 -25.5t67.5 -44.5q86 -63 86 -129q0 -43 -26 -104 q-23 -61 -56 -84q-14 -10 -34.5 -20.5t-47.5 -24.5q-156 -43 -194 -43q-154 0 -201 37q-78 -127 -78 -195q0 -16 29 -57q27 -35 43 -45q14 -8 70 -15q4 -4 16 -9t29 -15q10 -6 47 -6q70 0 192 57q129 57 168 106q18 4 27 -2q-4 -31 -19 -69q-10 -12 -46 -47t-99 -92 q-37 -35 -127 -64q-86 -29 -145 -29q-45 0 -86 29q-109 78 -183 170q-39 47 -53 102q-33 111 -33 179zM260 414q41 -12 43 -13q20 0 103 52q80 51 94 71q43 70 55 115q-25 25 -37 25l-59 -37q-33 -18 -54.5 -37t-35.5 -35q-27 -33 -53.5 -67.5t-55.5 -73.5zM332 1169l2 2 q2 33 20 33q55 0 43 4q10 0 19 -2l12 -4q8 -4 14 -6q2 -2 3 -2t4 -2l10 -4q6 -4 10 -10q27 -23 66.5 -58t93.5 -82q23 -20 43 -38.5t41 -38.5q78 -72 78 -74q-2 -14 -5 -17l-4 -4h-6l-6 -6h-4q-8 -6 -27 -6q-25 0 -55 14q-4 2 -16.5 6.5t-32.5 14.5q-23 10 -48.5 24.5 t-51.5 34.5q-82 61 -93 68q-10 8 -20 17t-25 20q-6 8 -14 17t-18 20q-2 2 -19 34q-14 23 -14 45z" />
<glyph unicode="&#xe9;" horiz-adv-x="866" d="M10 367q10 20 27 90q0 12 31 39q4 4 12 43q12 8 24 20q4 18 19 49q4 4 12 11.5t21 17.5l37 31q16 20 40.5 47.5t59.5 62.5l63 35q33 14 39 47h17q6 0 21.5 -14.5t23.5 -16.5q70 -10 105.5 -16t37.5 -6q31 -8 63.5 -25.5t67.5 -44.5q86 -63 86 -129q0 -43 -26 -104 q-23 -61 -56 -84q-14 -10 -34.5 -20.5t-47.5 -24.5q-156 -43 -194 -43q-154 0 -201 37q-78 -127 -78 -195q0 -16 29 -57q27 -35 43 -45q14 -8 70 -15q4 -4 16 -9t29 -15q10 -6 47 -6q70 0 192 57q129 57 168 106q18 4 27 -2q-4 -31 -19 -69q-10 -12 -46 -47t-99 -92 q-37 -35 -127 -64q-86 -29 -145 -29q-45 0 -86 29q-109 78 -183 170q-39 47 -53 102q-33 111 -33 179zM260 414q41 -12 43 -13q20 0 103 52q80 51 94 71q43 70 55 115q-25 25 -37 25l-59 -37q-33 -18 -54.5 -37t-35.5 -35q-27 -33 -53.5 -67.5t-55.5 -73.5zM334 987l4 8 l12 13v4l62 55l28 20l84 62l62 37l59 14l76 10h8l10 -6l2 -8l-8 -2l-6 -16l2 -7l-10 -4l-17 -10v-6l7 -8l-9 -8l5 -17l-9 -6v-6l25 4v-2l-29 -23l-6 -20l-14 -23l-13 -14l-24 -22l-23 -17l-82 -49l-73 -33l-15 -2h-34l-25 8h-16l-13 7v8l-8 8l-10 29l2 10z" />
<glyph unicode="&#xea;" horiz-adv-x="866" d="M10 367q10 20 27 90q0 12 31 39q4 4 12 43q12 8 24 20q4 18 19 49q4 4 12 11.5t21 17.5l37 31q16 20 40.5 47.5t59.5 62.5l63 35q33 14 39 47h17q6 0 21.5 -14.5t23.5 -16.5q70 -10 105.5 -16t37.5 -6q31 -8 63.5 -25.5t67.5 -44.5q86 -63 86 -129q0 -43 -26 -104 q-23 -61 -56 -84q-14 -10 -34.5 -20.5t-47.5 -24.5q-156 -43 -194 -43q-154 0 -201 37q-78 -127 -78 -195q0 -16 29 -57q27 -35 43 -45q14 -8 70 -15q4 -4 16 -9t29 -15q10 -6 47 -6q70 0 192 57q129 57 168 106q18 4 27 -2q-4 -31 -19 -69q-10 -12 -46 -47t-99 -92 q-37 -35 -127 -64q-86 -29 -145 -29q-45 0 -86 29q-109 78 -183 170q-39 47 -53 102q-33 111 -33 179zM186 932q0 2 2 4q0 10 7.5 24.5t31.5 49.5q10 14 22.5 29.5t26.5 33.5q23 29 50.5 61.5t60.5 69.5q8 6 16.5 14.5l18.5 18.5q6 4 12 9t15 14q4 4 18 10q35 0 49 -15 q4 -4 10 -7t15 -7q10 -8 21 -18.5t26 -20.5q6 -12 24 -33l68 -135q16 -31 33 -49v-2q4 -6 16 -22q0 -10 -12 -41q-12 -6 -21 -7q-23 0 -32 7q-4 4 -27 35.5t-62 91.5q-8 10 -18 27.5t-27 39.5q-12 16 -26 19q-2 -2 -17 -7q-2 -2 -18 -20.5t-49 -54.5q-6 -8 -19 -25 q-2 -4 -79 -94q-27 -20 -33 -47q-29 -16 -41 -17q-23 4 -29 13q-16 8 -33 51zM260 414q41 -12 43 -13q20 0 103 52q80 51 94 71q43 70 55 115q-25 25 -37 25l-59 -37q-33 -18 -54.5 -37t-35.5 -35q-27 -33 -53.5 -67.5t-55.5 -73.5z" />
<glyph unicode="&#xeb;" horiz-adv-x="866" d="M10 367q10 20 27 90q0 12 31 39q4 4 12 43q12 8 24 20q4 18 19 49q4 4 12 11.5t21 17.5l37 31q16 20 40.5 47.5t59.5 62.5l63 35q33 14 39 47h17q6 0 21.5 -14.5t23.5 -16.5q70 -10 105.5 -16t37.5 -6q31 -8 63.5 -25.5t67.5 -44.5q86 -63 86 -129q0 -43 -26 -104 q-23 -61 -56 -84q-14 -10 -34.5 -20.5t-47.5 -24.5q-156 -43 -194 -43q-154 0 -201 37q-78 -127 -78 -195q0 -16 29 -57q27 -35 43 -45q14 -8 70 -15q4 -4 16 -9t29 -15q10 -6 47 -6q70 0 192 57q129 57 168 106q18 4 27 -2q-4 -31 -19 -69q-10 -12 -46 -47t-99 -92 q-37 -35 -127 -64q-86 -29 -145 -29q-45 0 -86 29q-109 78 -183 170q-39 47 -53 102q-33 111 -33 179zM221 1059l4 26l17 33l37 29l30 6h4l17 -6l18 -8l17 2l-3 -15l21 -8l29 -26l12 -15l29 -67l2 -15v-24l-15 -25l-14 -16l-2 -4l-31 -4l-35 -4l-36 14l-17 8l-4 4l-49 35 l-23 20l-4 11v26zM260 414q41 -12 43 -13q20 0 103 52q80 51 94 71q43 70 55 115q-25 25 -37 25l-59 -37q-33 -18 -54.5 -37t-35.5 -35q-27 -33 -53.5 -67.5t-55.5 -73.5zM557 1049l23 69l20 15l21 6l6 10l45 -14l18 4l25 -31l28 -25l19 -49v-55l-27 -29l-10 -6l-20 -6 l-54 8l-41 21l-43 39l-2 30z" />
<glyph unicode="&#xec;" horiz-adv-x="481" d="M55 76v90l13 53l38 98l60 103l53 69l37 43l29 13l20 -6l10 6h7l26 -23l12 -6l25 -47l2 -33v-33l-29 -63l-47 -152l-10 -94l-2 -35l20 -6l58 4l78 19l-15 -25v-10l-20 -33l-12 -14l4 -10l-25 -17h-6l-6 -12l-27 -10l-6 -6l-59 -37l-23 -17l-43 -6l-8 -4l-8 6l-41 17 l-49 36l-29 37l-14 33zM192 1022l2 2q2 33 21 33q55 0 43 4q10 0 18 -2l12 -4q8 -4 15 -6q2 -2 3 -2t3 -2l10 -5q6 -4 10 -10q27 -23 67 -57.5t93 -81.5q23 -20 43 -38.5t41 -39.5q78 -72 78 -74q-2 -14 -4 -16l-4 -4h-7l-6 -6h-4q-8 -6 -26 -6q-25 0 -56 14q-4 2 -16 6 t-33 14q-23 10 -48.5 24.5t-51.5 35.5q-82 61 -92 67q-10 8 -20.5 17.5t-24.5 19.5q-6 8 -14.5 17.5t-18.5 19.5q-2 2 -19 35q-14 23 -14 45z" />
<glyph unicode="&#xed;" horiz-adv-x="481" d="M55 76v90l13 53l38 98l60 103l53 69l37 43l29 13l20 -6l10 6h7l26 -23l12 -6l25 -47l2 -33v-33l-29 -63l-47 -152l-10 -94l-2 -35l20 -6l58 4l78 19l-15 -25v-10l-20 -33l-12 -14l4 -10l-25 -17h-6l-6 -12l-27 -10l-6 -6l-59 -37l-23 -17l-43 -6l-8 -4l-8 6l-41 17 l-49 36l-29 37l-14 33zM260 910l4 8l13 12v4l61 56l29 20l84 62l61 36l60 15l75 10h8l11 -6l2 -8l-8 -2l-7 -17l2 -6l-10 -4l-16 -10v-6l6 -9l-8 -8l4 -16l-8 -6v-6l24 4v-2l-28 -23l-7 -20l-14 -23l-12 -14l-25 -23l-22 -16l-82 -49l-74 -33l-14 -2h-35l-25 8h-16l-12 6v8 l-8 9l-11 28l2 10z" />
<glyph unicode="&#xee;" horiz-adv-x="481" d="M55 76v90l13 53l38 98l60 103l53 69l37 43l29 13l20 -6l10 6h7l26 -23l12 -6l25 -47l2 -33v-33l-29 -63l-47 -152l-10 -94l-2 -35l20 -6l58 4l78 19l-15 -25v-10l-20 -33l-12 -14l4 -10l-25 -17h-6l-6 -12l-27 -10l-6 -6l-59 -37l-23 -17l-43 -6l-8 -4l-8 6l-41 17 l-49 36l-29 37l-14 33zM143 807q0 2 2 4q0 10 7 24.5t32 49.5q10 14 22.5 29.5t26.5 33.5q23 29 50.5 61.5t60.5 69.5q8 6 16 14.5t19 18.5q6 4 12 9t14 13q4 4 19 11q35 0 49 -15q4 -4 10 -7l14 -7q10 -8 21.5 -18.5t25.5 -20.5q6 -12 25 -33l68 -135q16 -31 32 -49v-2 q5 -7 17 -23q0 -10 -13 -41q-12 -6 -20 -6q-23 0 -33 6q-4 4 -26.5 36t-61.5 91q-8 10 -18.5 27.5t-26.5 40.5q-12 16 -27 18q-2 -2 -16 -6q-2 -2 -18.5 -20.5l-49.5 -55.5l-18 -24q-2 -4 -80 -94q-27 -20 -33 -47q-29 -16 -41 -17q-23 4 -28 12q-16 8 -33 52z" />
<glyph unicode="&#xef;" horiz-adv-x="481" d="M55 76v90l13 53l38 98l60 103l53 69l37 43l29 13l20 -6l10 6h7l26 -23l12 -6l25 -47l2 -33v-33l-29 -63l-47 -152l-10 -94l-2 -35l20 -6l58 4l78 19l-15 -25v-10l-20 -33l-12 -14l4 -10l-25 -17h-6l-6 -12l-27 -10l-6 -6l-59 -37l-23 -17l-43 -6l-8 -4l-8 6l-41 17 l-49 36l-29 37l-14 33zM172 997l4 27l17 32l37 29l30 6h4l17 -6l18 -8l17 2l-2 -14l20 -9l29 -26l12 -15l29 -67l2 -14v-25l-15 -25l-14 -16l-2 -4l-31 -4l-35 -4l-36 14l-17 8l-4 4l-49 35l-23 21l-4 10v27zM508 987l23 69l20 15l21 6l6 10l45 -14l18 4l25 -31l28 -24 l19 -50v-55l-27 -28l-10 -7l-20 -6l-54 8l-41 21l-43 39l-2 31z" />
<glyph unicode="&#xf0;" horiz-adv-x="935" d="M33 446l8 37q8 55 51 123q20 25 35.5 41.5t26.5 26.5q23 20 39 33.5t32 17.5l17 4q27 10 41 12q10 0 12 -4q14 4 22.5 6t12.5 2l92 -18q39 -6 80 -27q2 2 10 2q20 -6 49 -22q16 -6 41 -37q14 -6 23.5 -13t17.5 -14q4 0 6 7q0 12 -2 30.5t-4 34.5q-4 6 -7 23.5t-11 46.5 q-4 16 -7.5 30.5t-5.5 24.5q-4 10 -13 53t-24 121l-12 -6l-41 -25l-59 -30l-29 -19l-22 -6l-2 4h-19l-6 -4l-8 17l-4 4l8 22l4 10l29 21l51 31l94 61q0 4 -1 7t-1 7q-10 29 -29 95q-4 25 -10 42t-10 25q-23 37 -16 62q8 12 24 10q8 -6 19.5 -23.5t27.5 -46.5l-2 -6 q6 -6 9 -20.5t5 -14.5q-4 2 2.5 -8t22.5 -31q6 -14 13.5 -27.5t11.5 -29.5l57 33l59 35l129 73l33 15l12 2l3 -2l-23 -19l2 -4l-8 -4l-21 -20v-9l-16 -14l-16 -18l-41 -31l-23 -19l-4 -6l-27 -10v-4l-36 -35l-50 -35q4 -10 6.5 -19t6.5 -20q10 -18 21 -46.5t24 -67.5v-6 q14 -37 29.5 -85.5t27.5 -105.5q18 -86 28.5 -136t12.5 -69l4 -6v-6l12 -47q4 -6 9.5 -23.5t15.5 -46.5q2 -6 3 -14t3 -16q0 -6 8 -23q2 -4 4 -19.5t9 -43.5q2 -10 3 -18.5t1 -14.5v-15q8 -18 8 -86q4 -66 0 -88q-12 -49 -35 -67l-14 -10q-25 -14 -43.5 -21.5t-32.5 -13.5 q-33 -16 -55.5 -24.5t-38.5 -10.5q-23 -10 -107 2q-29 6 -53.5 16.5t-52.5 26.5q-23 4 -62 27.5t-98 68.5q-111 76 -213 250q-10 27 -23.5 60.5t-25.5 60.5zM217 492q2 16 7 4.5t16 -56.5q12 -63 25.5 -103t23.5 -56q72 -102 102 -125q8 -4 17.5 -11.5t19.5 -13.5 q8 -6 12 -10t9 -8q63 -33 96 -49.5l37 -18.5q31 -4 61.5 11.5t36.5 45.5q6 41 8 69t-2 38q2 51 -6 127q-10 23 -19.5 46.5t-23.5 51.5q-4 10 -13.5 26.5t-23.5 35.5q-25 12 -61 36q-16 6 -37 14.5t-47 18.5q-10 4 -22.5 6t-33.5 2h-39q-29 8 -56.5 -2t-49 -25.5t-31.5 -31.5 t-6 -22z" />
<glyph unicode="&#xf1;" horiz-adv-x="800" d="M41 55l10 21l17 82l4 10l30 98l7 25l32 110l29 125l74 207l35 17l45 -2l2 -3l24 7l6 -4l27 -29l-2 -80l80 59l47 15l80 16l108 -41l25 -22l4 -7l27 -34l8 -64l-4 -67l-6 -25l-15 -37l-20 -65l-15 -52l-10 -55l-8 -16l-4 -13l4 -8l4 -20v-23l-12 -33l4 -92l12 -45l45 -110 l13 -21l-17 -4l-14 -12l-12 14l-21 2v-8l-6 -2l-21 6l-26 6l-74 86l-43 137l4 11l-10 26l6 107l-10 6l16 39l-2 6v10l6 6v60l8 41l3 28l6 39v19l-11 24l-18 17l-35 4l-45 -10l-12 -35l-12 -33l-17 -25l-18 -57l-13 -20l-10 -37l-31 -68l-32 -78l-15 -30l-2 -17l-20 -45v-14 l-10 -17l-23 -59l-6 -8l-14 -23l-19 -6v-10l-20 4h-39l-17 23l-6 6l-14 6l-16 20l-7 11l-14 4zM295 870q2 2 2 3t2 4q-2 2 -2 8q0 14 8 45q31 70 51 86q43 39 72 35q6 2 21 2q8 -2 19 -3t28 -6q4 -2 9 -4t9 -4q12 -8 26.5 -17t30.5 -20q10 -10 20.5 -20t22.5 -25q2 -2 7 -10 v-2q8 -18 18 -35l2 -2l12 -4h15q25 4 32 9t17 14q14 16 33.5 39.5t46.5 54.5q37 39 49 39q45 0 43 2q4 0 20 -4q3 -2 11 -6q-4 -10 -13 -23l2 -2q-10 -20 -39 -55q-2 -6 -12 -27l-4 -2v-6q-4 -12 -18 -33v-6q0 -4 2 -6q-4 -8 -9.5 -15.5t-11.5 -17.5q2 2 2 0q-2 0 -2 -4 q-10 -6 -26 -21l-3 -2q-14 -14 -22 -18q-18 -8 -35.5 -10t-46.5 -2q-70 6 -145 47q-4 4 -29 18q-4 4 -10 8.5t-15 8.5q-4 0 -19 8t-17 8q0 -2 -3.5 -3t-8.5 -4t-10 -12.5t-7 -27.5q-10 -25 -25.5 -29t-19.5 -4q-10 0 -17 2h-8q-4 2 -7 2t-7 2h-8q-10 2 -21 21q-4 4 -12 26z " />
<glyph unicode="&#xf2;" horiz-adv-x="966" d="M10 104q0 18 6.5 56.5t6.5 56.5q8 2 18 7t25 14q8 8 8 22q0 6 -6.5 26.5t-4.5 24.5q41 35 76 92q12 25 49 86q33 49 160 177q139 139 168 139q6 0 17.5 -3t17.5 -3q16 0 55 57q4 -2 15.5 -10t27.5 -23l62 -14q25 -12 73 -31q16 0 68 -10q57 -82 72 -143q12 -46 12 -150 q0 -100 -45 -188q-6 -29 -14 -47q-47 -113 -172 -201q-35 -25 -93.5 -57.5t-140.5 -73.5q-4 -2 -57 -8q-57 -68 -164 -68q-51 0 -66 10l-75 64q-12 -2 -48 8q-25 23 -34 72q-10 59 -15 67q10 16 11 25q0 6 -6.5 14t-6.5 12zM180 82q0 -16 18.5 -35.5t34.5 -19.5 q113 0 256 96q33 8 78 33q8 8 23.5 36.5t40.5 75.5q25 45 37 144q10 10 14 12q0 70 25 78v22q-10 2 -23 15q6 10 6 22q0 18 -11 42t-28 24q-29 0 -129 -88q-39 -35 -63.5 -57.5t-34.5 -32.5q-61 -72 -111.5 -131.5t-89.5 -108.5q-8 -8 -26 -62q-16 -55 -17 -65zM416 1247 l2 2q2 33 20 33q55 0 43 4q10 0 19 -2l12 -4q8 -4 14 -6q2 -2 3 -2t3 -2l11 -4q6 -4 10 -11q27 -23 66.5 -57.5t93.5 -81.5q23 -20 43 -38.5t41 -39.5q77 -71 77 -73q-2 -14 -4 -17l-4 -4h-6l-6 -6h-4q-8 -6 -27 -6q-25 0 -55 14q-4 2 -16.5 6t-32.5 15q-23 10 -48.5 24.5 t-52.5 34.5q-82 61 -92 68q-10 8 -20 17t-25 19q-6 8 -14 17.5t-18 19.5q-2 2 -19 35q-14 23 -14 45z" />
<glyph unicode="&#xf3;" horiz-adv-x="966" d="M10 104q0 18 6.5 56.5t6.5 56.5q8 2 18 7t25 14q8 8 8 22q0 6 -6.5 26.5t-4.5 24.5q41 35 76 92q12 25 49 86q33 49 160 177q139 139 168 139q6 0 17.5 -3t17.5 -3q16 0 55 57q4 -2 15.5 -10t27.5 -23l62 -14q25 -12 73 -31q16 0 68 -10q57 -82 72 -143q12 -46 12 -150 q0 -100 -45 -188q-6 -29 -14 -47q-47 -113 -172 -201q-35 -25 -93.5 -57.5t-140.5 -73.5q-4 -2 -57 -8q-57 -68 -164 -68q-51 0 -66 10l-75 64q-12 -2 -48 8q-25 23 -34 72q-10 59 -15 67q10 16 11 25q0 6 -6.5 14t-6.5 12zM180 82q0 -16 18.5 -35.5t34.5 -19.5 q113 0 256 96q33 8 78 33q8 8 23.5 36.5t40.5 75.5q25 45 37 144q10 10 14 12q0 70 25 78v22q-10 2 -23 15q6 10 6 22q0 18 -11 42t-28 24q-29 0 -129 -88q-39 -35 -63.5 -57.5t-34.5 -32.5q-61 -72 -111.5 -131.5t-89.5 -108.5q-8 -8 -26 -62q-16 -55 -17 -65zM481 981l4 8 l13 12v5l61 55l29 20l84 62l61 37l60 14l75 10h9l10 -6l2 -8l-8 -2l-7 -17l3 -6l-11 -4l-16 -10v-6l6 -8l-8 -9l4 -16l-8 -6v-6l24 4v-2l-28 -23l-6 -20l-15 -23l-12 -14l-25 -23l-22 -16l-82 -49l-74 -33l-14 -2h-35l-25 8h-16l-12 6v9l-8 8l-11 28l2 11z" />
<glyph unicode="&#xf4;" horiz-adv-x="966" d="M10 104q0 18 6.5 56.5t6.5 56.5q8 2 18 7t25 14q8 8 8 22q0 6 -6.5 26.5t-4.5 24.5q41 35 76 92q12 25 49 86q33 49 160 177q139 139 168 139q6 0 17.5 -3t17.5 -3q16 0 55 57q4 -2 15.5 -10t27.5 -23l62 -14q25 -12 73 -31q16 0 68 -10q57 -82 72 -143q12 -46 12 -150 q0 -100 -45 -188q-6 -29 -14 -47q-47 -113 -172 -201q-35 -25 -93.5 -57.5t-140.5 -73.5q-4 -2 -57 -8q-57 -68 -164 -68q-51 0 -66 10l-75 64q-12 -2 -48 8q-25 23 -34 72q-10 59 -15 67q10 16 11 25q0 6 -6.5 14t-6.5 12zM180 82q0 -16 18.5 -35.5t34.5 -19.5 q113 0 256 96q33 8 78 33q8 8 23.5 36.5t40.5 75.5q25 45 37 144q10 10 14 12q0 70 25 78v22q-10 2 -23 15q6 10 6 22q0 18 -11 42t-28 24q-29 0 -129 -88q-39 -35 -63.5 -57.5t-34.5 -32.5q-61 -72 -111.5 -131.5t-89.5 -108.5q-8 -8 -26 -62q-16 -55 -17 -65zM385 924 q0 2 2 4q0 10 7 24.5t32 48.5q10 14 22.5 30t26.5 34q23 29 50.5 61.5t60.5 69.5q8 6 16 14.5t19 18.5q6 4 12 9t14 13q4 4 19 11q35 0 49 -15q4 -4 10 -7l14 -7q10 -8 21.5 -18.5t25.5 -20.5q6 -12 25 -33l68 -135q16 -31 32 -49v-2q5 -7 17 -23q0 -10 -13 -41 q-12 -6 -20 -6q-23 0 -33 6q-4 4 -26.5 36t-61.5 91q-8 10 -18.5 27.5t-26.5 40.5q-12 16 -27 18q-2 -2 -16 -6q-2 -2 -18.5 -20.5l-49.5 -55.5l-18 -24q-2 -4 -80 -94q-27 -20 -33 -47q-29 -16 -41 -17q-23 4 -28 12q-16 8 -33 52z" />
<glyph unicode="&#xf5;" horiz-adv-x="966" d="M10 104q0 18 6.5 56.5t6.5 56.5q8 2 18 7t25 14q8 8 8 22q0 6 -6.5 26.5t-4.5 24.5q41 35 76 92q12 25 49 86q33 49 160 177q139 139 168 139q6 0 17.5 -3t17.5 -3q16 0 55 57q4 -2 15.5 -10t27.5 -23l62 -14q25 -12 73 -31q16 0 68 -10q57 -82 72 -143q12 -46 12 -150 q0 -100 -45 -188q-6 -29 -14 -47q-47 -113 -172 -201q-35 -25 -93.5 -57.5t-140.5 -73.5q-4 -2 -57 -8q-57 -68 -164 -68q-51 0 -66 10l-75 64q-12 -2 -48 8q-25 23 -34 72q-10 59 -15 67q10 16 11 25q0 6 -6.5 14t-6.5 12zM180 82q0 -16 18.5 -35.5t34.5 -19.5 q113 0 256 96q33 8 78 33q8 8 23.5 36.5t40.5 75.5q25 45 37 144q10 10 14 12q0 70 25 78v22q-10 2 -23 15q6 10 6 22q0 18 -11 42t-28 24q-29 0 -129 -88q-39 -35 -63.5 -57.5t-34.5 -32.5q-61 -72 -111.5 -131.5t-89.5 -108.5q-8 -8 -26 -62q-16 -55 -17 -65zM367 1006 l6 30l28 62l25 41l41 32l35 25l22 10l19 -2l37 2l22 -4l66 -39l41 -57l4 -14l-2 -5v-51l2 -2l12 -8h14l35 6l17 15l32 38l49 62l43 49l39 25l25 10h16l-12 -35l4 -2v-2l-10 -12l-21 -35l-2 -17l-4 -12l-4 -4v-4l4 -2l-18 -41l2 -8v-2l10 -6l-6 -21l-6 -22l12 6v-6l-8 -7v-4 l-14 -20l-2 -2l-5 -21l-8 -14l-12 -8l-8 -6l-17 -11l-45 -20l-57 -8l-61 2l-50 18l-32 19l-25 24l-16 29l-21 45l-6 18l-18 -10l-29 -39l-14 -22l-2 -6l-15 -9l-2 -6l-18 -4l-10 -8h-19l-8 -6h-19l-8 6l-2 6l-10 10l-14 17l6 6l-6 8v8z" />
<glyph unicode="&#xf6;" horiz-adv-x="966" d="M10 104q0 18 6.5 56.5t6.5 56.5q8 2 18 7t25 14q8 8 8 22q0 6 -6.5 26.5t-4.5 24.5q41 35 76 92q12 25 49 86q33 49 160 177q139 139 168 139q6 0 17.5 -3t17.5 -3q16 0 55 57q4 -2 15.5 -10t27.5 -23l62 -14q25 -12 73 -31q16 0 68 -10q57 -82 72 -143q12 -46 12 -150 q0 -100 -45 -188q-6 -29 -14 -47q-47 -113 -172 -201q-35 -25 -93.5 -57.5t-140.5 -73.5q-4 -2 -57 -8q-57 -68 -164 -68q-51 0 -66 10l-75 64q-12 -2 -48 8q-25 23 -34 72q-10 59 -15 67q10 16 11 25q0 6 -6.5 14t-6.5 12zM180 82q0 -16 18.5 -35.5t34.5 -19.5 q113 0 256 96q33 8 78 33q8 8 23.5 36.5t40.5 75.5q25 45 37 144q10 10 14 12q0 70 25 78v22q-10 2 -23 15q6 10 6 22q0 18 -11 42t-28 24q-29 0 -129 -88q-39 -35 -63.5 -57.5t-34.5 -32.5q-61 -72 -111.5 -131.5t-89.5 -108.5q-8 -8 -26 -62q-16 -55 -17 -65zM414 1067 l4 27l16 32l37 29l31 6h4l16 -6l19 -8l16 2l-2 -14l20 -9l29 -26l12 -15l29 -67l2 -14v-25l-14 -25l-15 -16l-2 -4l-30 -4l-35 -4l-37 14l-16 8l-4 4l-50 35l-22 21l-4 10v26zM750 1057l22 69l21 15l20 6l6 10l45 -14l19 4l24 -31l29 -24l18 -50v-55l-26 -29l-10 -6l-21 -6 l-53 8l-41 21l-43 39l-2 30z" />
<glyph unicode="&#xf7;" horiz-adv-x="0" />
<glyph unicode="&#xf8;" horiz-adv-x="1120" d="M106 360q2 10 2.5 23.5t0.5 28.5q-2 4 4 39q8 31 8 38q0 6 16 50q16 45 17 49q4 10 10 20t10 23q2 8 11.5 27.5t29.5 52.5q39 61 43 75q16 23 32.5 46.5t37.5 52.5q6 8 12 15t14 18q12 8 19 14q4 6 18 24q8 4 16.5 12.5l18.5 18.5q8 2 17.5 10.5t25.5 20.5q4 2 10 6 q4 4 12.5 8t18.5 8q14 4 30.5 9.5t37.5 13.5q4 2 10 3l18 3l12 4h25q12 2 17.5 2t3.5 0l24 -14q6 -6 23 -19q4 -2 10 -6t16 -8q2 -2 4 -6q4 -6 11 -6l2 -2q47 35 104 67q8 16 18.5 39t20.5 49q2 4 23.5 19.5t27.5 15.5h19q25 -6 32 -33q2 -8 13 -38v-23q2 -20 -17 -72 q-2 -12 -45 -67v-10q-2 -14 4 -39q-2 -10 -2 -19.5v-19.5q10 -18 23 -19q6 -10 13 -21.5t16 -21.5q4 -10 10 -21.5t14 -25.5l8 -8l8 -8q4 -10 7.5 -23.5t7.5 -29.5q2 0 6 -5q4 -14 7 -29.5t7 -33.5q2 -2 2 -6q2 -12 6.5 -30.5t8.5 -43.5q2 -10 5 -22.5t7 -38.5q0 -14 -2 -21 q4 -6 0 -31q-2 -27 -2 -29.5t-6 -17.5q-4 -16 -4 -14q-2 -8 -3 -16.5t-4 -18.5q-8 -18 -18 -53q-2 -4 -5 -14.5t-9 -26.5q-6 -4 -10.5 -12.5t-10.5 -26.5q-8 -8 -18 -25v-8q-2 -2 -2 -4t-2 -4q-4 -4 -8.5 -6t-8.5 -6q-10 -14 -25.5 -30.5t-37.5 -37.5q-23 -14 -41 -31 q-20 -18 -76 -47q-76 -68 -162 -67h-19t-20 2l-18 -8l-21 -2l-14 -7l-12 -2h-10l-13 -6l-41 4l-34 9l-23 8l-25 -49l-14 -19q-4 -14 -10 -29.5t-12 -33.5q-4 -8 -13 -29l-4 -4q-8 -39 -31 -35q-20 6 -24 15.5t-6 23.5q4 20 6 45q6 43 6 94q-4 6 18 66q-6 2 -18 10 q-16 10 -35.5 25.5t-48.5 38.5q-8 10 -18.5 22t-20.5 27q-6 10 -13 23.5t-18 27.5q-4 14 -11 30.5t-15 36.5q-2 10 -3 20.5t-5 20.5q-2 37 -7 86zM254 313q0 -113 45 -157q39 -35 68 -45q8 16 15 33.5l15 37.5q16 41 38 93.5t46 117.5q23 47 50.5 103.5t58.5 124.5 q31 57 64.5 123.5t68.5 144.5q-4 4 -9 8t-7 8q-23 -16 -54 -16h-63q-8 0 -78 -45q-10 -16 -23.5 -32.5t-29.5 -35.5q-10 -12 -28.5 -37.5t-41.5 -64.5l-14 -21q-6 -18 -19 -43q-4 -6 -7 -12l-7 -14q-4 -12 -10 -25.5t-13 -30.5l-4 -8q-29 -53 -55 -137q-6 -76 -6 -70z M489 74l41 -2l9 2l16 4q16 0 31.5 1t31.5 3q39 6 95 37q10 4 21 11t22 15q16 10 38.5 27.5t47.5 48.5q2 4 12 21.5t27 50.5q4 10 11 26.5t15 38.5q2 8 4 15.5t7 17.5q4 6 8 13.5t8 15.5q0 8 -2 14q10 51 10 78q0 127 -39 180q-10 16 -23.5 38t-31.5 44q-2 4 -14 17 q-10 -33 -68 -138q-29 -53 -45 -83.5t-19 -39.5q-20 -29 -41.5 -64.5t-44.5 -80.5q-4 -10 -7 -20.5t-7 -20.5q-4 -4 -7 -10t-7 -15q-10 -23 -23.5 -52t-27.5 -64q-8 -18 -16.5 -41t-18.5 -51q-2 -14 -13 -37z" />
<glyph unicode="&#xf9;" horiz-adv-x="688" d="M-16 84q0 57 6 156q2 47 28 114q10 8 21.5 22.5t28.5 35.5q4 16 10 37.5t16 50.5q8 4 41 67q2 8 3 16.5t3 18.5q12 12 37 47q-4 29 39 99q4 10 8 21l8 22q18 39 37 38q20 0 37 -32.5t17 -57.5q0 -8 -9.5 -32.5t-9.5 -32.5q0 -4 -1 -19.5t-3 -44.5q12 -18 14 -49 q-23 -47 -61 -151q-4 -2 -8 -3t-8 -6q8 -18 -2 -49q-8 -20 -21.5 -48t-30.5 -66q-33 -72 -32 -136q0 -2 7 -7t16 -9t17.5 -8t8.5 -6h12q12 12 61 39q47 29 62 49q31 43 57 104l146 342q6 0 17 3t17 3q8 0 41 -28q35 -29 52 -29q12 0 16 4q4 -2 8 -13t8 -24.5t7.5 -25 t3.5 -17.5q0 -18 -19 -121l-20 -116q0 -33 32 -33q-8 0 91 33q10 -41 10 -66q0 -18 -64 -88q-4 -2 -20 -2q-35 0 -109 20q-16 4 -41 37q-8 12 -15 24.5t-15 22.5q-10 4 -21 -12q-98 -184 -158 -237q-4 -4 -21 -11.5t-50 -17.5q-63 -25 -72 -25q-27 0 -98 25q-27 47 -86 102 q-49 43 -49 70zM248 1085l2 2q2 33 20 33q55 0 43 4q10 0 19 -2l12 -4q8 -4 14 -6q2 -2 3 -2t4 -2l10 -4q6 -4 10 -10q27 -23 67 -58t93 -82q23 -20 43 -38.5t41 -38.5q78 -72 78 -74q-2 -14 -5 -17l-4 -4h-6l-6 -6h-4q-8 -6 -27 -6q-25 0 -55 14q-4 2 -16.5 6.5t-32.5 14.5 q-23 10 -48.5 24.5t-51.5 34.5q-82 61 -93 68q-10 8 -20 17t-25 20q-6 8 -14 17t-18 20q-2 2 -19 34q-14 23 -14 45z" />
<glyph unicode="&#xfa;" horiz-adv-x="688" d="M-16 84q0 57 6 156q2 47 28 114q10 8 21.5 22.5t28.5 35.5q4 16 10 37.5t16 50.5q8 4 41 67q2 8 3 16.5t3 18.5q12 12 37 47q-4 29 39 99q4 10 8 21l8 22q18 39 37 38q20 0 37 -32.5t17 -57.5q0 -8 -9.5 -32.5t-9.5 -32.5q0 -4 -1 -19.5t-3 -44.5q12 -18 14 -49 q-23 -47 -61 -151q-4 -2 -8 -3t-8 -6q8 -18 -2 -49q-8 -20 -21.5 -48t-30.5 -66q-33 -72 -32 -136q0 -2 7 -7t16 -9t17.5 -8t8.5 -6h12q12 12 61 39q47 29 62 49q31 43 57 104l146 342q6 0 17 3t17 3q8 0 41 -28q35 -29 52 -29q12 0 16 4q4 -2 8 -13t8 -24.5t7.5 -25 t3.5 -17.5q0 -18 -19 -121l-20 -116q0 -33 32 -33q-8 0 91 33q10 -41 10 -66q0 -18 -64 -88q-4 -2 -20 -2q-35 0 -109 20q-16 4 -41 37q-8 12 -15 24.5t-15 22.5q-10 4 -21 -12q-98 -184 -158 -237q-4 -4 -21 -11.5t-50 -17.5q-63 -25 -72 -25q-27 0 -98 25q-27 47 -86 102 q-49 43 -49 70zM379 1032l4 8l12 13v4l62 55l28 21l84 61l62 37l59 14l76 10h8l10 -6l2 -8l-8 -2l-6 -16l2 -6l-10 -5l-16 -10v-6l6 -8l-9 -8l5 -17l-9 -6v-6l25 4v-2l-29 -23l-6 -20l-14 -23l-12 -14l-25 -22l-23 -17l-82 -49l-73 -33l-15 -2h-34l-25 8h-16l-13 7v8l-8 8 l-10 29l2 10z" />
<glyph unicode="&#xfb;" horiz-adv-x="688" d="M-16 84q0 57 6 156q2 47 28 114q10 8 21.5 22.5t28.5 35.5q4 16 10 37.5t16 50.5q8 4 41 67q2 8 3 16.5t3 18.5q12 12 37 47q-4 29 39 99q4 10 8 21l8 22q18 39 37 38q20 0 37 -32.5t17 -57.5q0 -8 -9.5 -32.5t-9.5 -32.5q0 -4 -1 -19.5t-3 -44.5q12 -18 14 -49 q-23 -47 -61 -151q-4 -2 -8 -3t-8 -6q8 -18 -2 -49q-8 -20 -21.5 -48t-30.5 -66q-33 -72 -32 -136q0 -2 7 -7t16 -9t17.5 -8t8.5 -6h12q12 12 61 39q47 29 62 49q31 43 57 104l146 342q6 0 17 3t17 3q8 0 41 -28q35 -29 52 -29q12 0 16 4q4 -2 8 -13t8 -24.5t7.5 -25 t3.5 -17.5q0 -18 -19 -121l-20 -116q0 -33 32 -33q-8 0 91 33q10 -41 10 -66q0 -18 -64 -88q-4 -2 -20 -2q-35 0 -109 20q-16 4 -41 37q-8 12 -15 24.5t-15 22.5q-10 4 -21 -12q-98 -184 -158 -237q-4 -4 -21 -11.5t-50 -17.5q-63 -25 -72 -25q-27 0 -98 25q-27 47 -86 102 q-49 43 -49 70zM182 928q0 2 2 4q0 10 7.5 24.5t31.5 49.5q10 14 22.5 29.5t26.5 33.5q23 29 50.5 61.5t60.5 69.5q8 6 16.5 14.5l18.5 18.5q6 4 12 9t14 13q4 4 19 11q35 0 49 -15q4 -4 10 -7t15 -7q10 -8 21 -18.5t26 -20.5q6 -12 24 -33l68 -135q16 -31 33 -49v-2 q4 -7 16 -23q0 -10 -12 -41q-12 -6 -21 -6q-23 0 -33 6q-4 4 -26.5 36t-61.5 91q-8 10 -18 27.5t-27 40.5q-12 16 -26 18q-2 -2 -17 -6q-2 -2 -18 -20.5t-49 -54.5q-6 -8 -19 -25q-2 -4 -80 -94q-27 -20 -32 -47q-29 -16 -41 -17q-23 4 -29 13q-16 8 -33 51z" />
<glyph unicode="&#xfc;" horiz-adv-x="688" d="M-16 84q0 57 6 156q2 47 28 114q10 8 21.5 22.5t28.5 35.5q4 16 10 37.5t16 50.5q8 4 41 67q2 8 3 16.5t3 18.5q12 12 37 47q-4 29 39 99q4 10 8 21l8 22q18 39 37 38q20 0 37 -32.5t17 -57.5q0 -8 -9.5 -32.5t-9.5 -32.5q0 -4 -1 -19.5t-3 -44.5q12 -18 14 -49 q-23 -47 -61 -151q-4 -2 -8 -3t-8 -6q8 -18 -2 -49q-8 -20 -21.5 -48t-30.5 -66q-33 -72 -32 -136q0 -2 7 -7t16 -9t17.5 -8t8.5 -6h12q12 12 61 39q47 29 62 49q31 43 57 104l146 342q6 0 17 3t17 3q8 0 41 -28q35 -29 52 -29q12 0 16 4q4 -2 8 -13t8 -24.5t7.5 -25 t3.5 -17.5q0 -18 -19 -121l-20 -116q0 -33 32 -33q-8 0 91 33q10 -41 10 -66q0 -18 -64 -88q-4 -2 -20 -2q-35 0 -109 20q-16 4 -41 37q-8 12 -15 24.5t-15 22.5q-10 4 -21 -12q-98 -184 -158 -237q-4 -4 -21 -11.5t-50 -17.5q-63 -25 -72 -25q-27 0 -98 25q-27 47 -86 102 q-49 43 -49 70zM229 1116l4 27l17 33l37 28l30 6h5l16 -6l18 -8l17 2l-2 -14l20 -8l29 -27l12 -14l29 -68l2 -14v-25l-14 -24l-15 -17l-2 -4l-31 -4l-34 -4l-37 14l-17 8l-4 4l-49 35l-22 21l-5 10v27zM565 1106l23 70l20 14l21 6l6 10l45 -14l18 4l25 -31l29 -24l18 -49 v-56l-27 -28l-10 -7l-20 -6l-54 9l-41 20l-43 39l-2 31z" />
<glyph unicode="&#xfd;" horiz-adv-x="980" d="M8 264q0 4 6 9.5t6 9.5q12 59 7 112q10 4 36 29q-2 6 -3 15.5t1 19.5q29 47 99 147q8 8 28.5 30.5t53.5 61.5q2 4 39 21q35 14 51 14q27 0 50.5 -29.5t23.5 -58.5q0 -20 -19 -39q-14 -16 -21.5 -24.5t-9.5 -10.5q-18 -18 -43 -55v-11t-2 -18q-43 -82 -98 -233 q-2 -10 -12.5 -27.5t-10.5 -33.5q0 -35 21 -35q16 0 94 45q80 47 98 61q16 14 54 47l4 11q4 10 8 14q16 16 49 43l21 20q10 10 22 7q6 25 43 71q23 27 35 43.5t16 24.5q14 20 31 78q16 53 33 71q14 14 76 15q14 -2 20 -3t4 -1q8 -4 27.5 -12.5t54.5 -24.5v-17q0 -6 -8 -20.5 t-8 -24.5q0 -4 -5.5 -41t-15.5 -102q-2 -16 -5 -42t-11 -65q-8 -33 -24.5 -93t-45.5 -150q-8 -16 -20.5 -42t-28.5 -61q-4 -16 -10 -38.5t-17 -55.5q-8 -8 -20 -37q2 -25 -6 -69q-20 -35 -49 -95q-2 -6 -3 -15t-6 -22q-4 -6 -11 -15t-17 -23q2 -4 2 -23q-8 -16 -21.5 -48 t-31.5 -79l-4 -4q-2 0 -6.5 10t-6.5 10q-10 0 -22 -12q-8 -10 -12.5 -14t-6.5 -6q6 -16 6 -23q0 -6 -10 -11t-12 -15q6 -10 6 -19q0 -14 -35 -20q-33 -8 -33 -23q0 -8 23 -18q0 -6 -23 -35q-2 -8 -12 -39q-8 -8 -16 -17.5t-19 -19.5q6 -10 13 -37q-16 -23 -27 -84 q-4 -2 -76 -2q-29 0 -63 43q-14 14 -15 55q0 6 7 17l6 14q6 49 24 150q14 29 34 71.5t42 102.5q4 10 10 10q4 0 12.5 -4t12.5 -4q12 0 14 39q6 8 18.5 34.5t28.5 73.5q23 33 43 99q14 39 23.5 64.5t15.5 37.5l45 147q8 4 21.5 9.5t29.5 15.5v12q-6 2 -28 21q8 8 20 33 q6 23 6 47q0 12 -6 20h-14q-33 -33 -64.5 -60.5t-60.5 -49.5q-137 -104 -178 -105q-8 0 -49 -10q-111 94 -183 217q-10 16 -10 53zM481 981l4 8l13 12v5l61 55l29 20l84 62l61 37l60 14l75 10h9l10 -6l2 -8l-8 -2l-7 -17l3 -6l-11 -4l-16 -10v-6l6 -8l-8 -9l4 -16l-8 -6v-6 l24 4v-2l-28 -23l-6 -20l-15 -23l-12 -14l-25 -23l-22 -16l-82 -49l-74 -33l-14 -2h-35l-25 8h-16l-12 6v9l-8 8l-11 28l2 11z" />
<glyph unicode="&#xfe;" horiz-adv-x="802" d="M49 -16l10 184l17 160l41 213l57 227l78 266l67 180l74 166l37 70l39 39l25 22l26 7l41 -23l6 -22l4 -25l7 -27l-19 -69l-33 -111l-10 -35l10 -10h33l29 -18l2 4l8 -6l2 -19l14 -29v-8l7 -2l16 -67l12 -27l35 -168l-2 -6l6 -14l21 -170l-4 -19l6 -18v-109l-9 -45v-22 l-12 -27v-8l-10 -17l-2 -18l-23 -51l-28 -37l-49 -39l-37 -16l-52 -9h-51l-55 13l-64 39l-36 24l-27 31l-16 -72l-9 -57l-8 -19l-12 -67l-16 -14l-7 -29l-24 -150l-10 -41l-9 -61l-8 -27l-6 -2l-20 -39l-17 -2l-20 6l-15 33l-2 62zM279 408l34 -25l39 -21l29 -10h35l30 17 l15 20l20 43l19 66l2 43l2 65l-4 60l-4 4l-2 55v6l-5 17l3 51l-17 112l-6 23l-2 70l-6 38l-37 -98l-139 -487v-43z" />
<glyph unicode="&#xff;" horiz-adv-x="802" d="M8 264q0 4 6 9.5t6 9.5q12 59 7 112q10 4 36 29q-2 6 -3 15.5t1 19.5q29 47 99 147q8 8 28.5 30.5t53.5 61.5q2 4 39 21q35 14 51 14q27 0 50.5 -29.5t23.5 -58.5q0 -20 -19 -39q-14 -16 -21.5 -24.5t-9.5 -10.5q-18 -18 -43 -55v-11t-2 -18q-43 -82 -98 -233 q-2 -10 -12.5 -27.5t-10.5 -33.5q0 -35 21 -35q16 0 94 45q80 47 98 61q16 14 54 47l4 11q4 10 8 14q16 16 49 43l21 20q10 10 22 7q6 25 43 71q23 27 35 43.5t16 24.5q14 20 31 78q16 53 33 71q14 14 76 15q14 -2 20 -3t4 -1q8 -4 27.5 -12.5t54.5 -24.5v-17q0 -6 -8 -20.5 t-8 -24.5q0 -4 -5.5 -41t-15.5 -102q-2 -16 -5 -42t-11 -65q-8 -33 -24.5 -93t-45.5 -150q-8 -16 -20.5 -42t-28.5 -61q-4 -16 -10 -38.5t-17 -55.5q-8 -8 -20 -37q2 -25 -6 -69q-20 -35 -49 -95q-2 -6 -3 -15t-6 -22q-4 -6 -11 -15t-17 -23q2 -4 2 -23q-8 -16 -21.5 -48 t-31.5 -79l-4 -4q-2 0 -6.5 10t-6.5 10q-10 0 -22 -12q-8 -10 -12.5 -14t-6.5 -6q6 -16 6 -23q0 -6 -10 -11t-12 -15q6 -10 6 -19q0 -14 -35 -20q-33 -8 -33 -23q0 -8 23 -18q0 -6 -23 -35q-2 -8 -12 -39q-8 -8 -16 -17.5t-19 -19.5q6 -10 13 -37q-16 -23 -27 -84 q-4 -2 -76 -2q-29 0 -63 43q-14 14 -15 55q0 6 7 17l6 14q6 49 24 150q14 29 34 71.5t42 102.5q4 10 10 10q4 0 12.5 -4t12.5 -4q12 0 14 39q6 8 18.5 34.5t28.5 73.5q23 33 43 99q14 39 23.5 64.5t15.5 37.5l45 147q8 4 21.5 9.5t29.5 15.5v12q-6 2 -28 21q8 8 20 33 q6 23 6 47q0 12 -6 20h-14q-33 -33 -64.5 -60.5t-60.5 -49.5q-137 -104 -178 -105q-8 0 -49 -10q-111 94 -183 217q-10 16 -10 53zM262 1006l4 26l17 33l36 29l31 6h4l17 -6l18 -9l17 2l-3 -14l21 -8l29 -27l12 -14l29 -68l2 -14v-24l-15 -25l-14 -16l-2 -5l-31 -4l-35 -4 l-37 15l-16 8l-4 4l-49 35l-23 20l-4 10v27zM598 995l23 70l20 14l21 6l6 11l45 -15l18 4l25 -30l28 -25l19 -49v-55l-27 -29l-10 -6l-21 -6l-53 8l-41 20l-43 39l-2 31z" />
<glyph unicode="&#x152;" horiz-adv-x="1662" d="M82 301v2v-2zM82 301h2q-4 0 2 34t6 99l19 74q6 14 11 27.5t12 32t18.5 42t31.5 58.5q18 31 62.5 101.5t118.5 143.5l16 21q8 4 22 18q47 45 105 45l22 15q10 0 13.5 2t13.5 6t31.5 12t66.5 21l4 4h19q2 2 4 2t6 2q8 0 33 -6h20q10 -8 26.5 -18.5t35.5 -26.5 q10 -4 29.5 -34t60.5 -58q6 -8 14 -18.5t21 -16.5l30 -31q4 -8 10.5 -17.5t16.5 -23.5l14 -14q4 -8 7.5 -15.5t7.5 -15.5v-8q6 -6 10 -15.5t12 -23.5q8 23 11 41l-7 12q-10 20 -20 62q6 4 16 14v6l11 10q-2 2 -3 8q4 18 35 58h4l15 14q10 10 27.5 23.5t27.5 29.5q-6 4 -6 31 q45 29 62.5 28t31.5 -1q4 -2 9 -2t10 -2h6q6 0 9 -1t7 -1h4q16 0 46 3t71 3h72q10 -2 19 -2t19 -2h140q10 -2 30 -2q0 4 34 2t78 -7.5t85 -14.5t55 -23v-13q-18 -18 -54 -23t-54 -7q-10 -4 -25.5 -2t-34.5 -9q-2 2 -8 2l-20 -12q-10 -10 -14.5 -9t-16.5 -3q-6 0 -10 2 l-39 -12l-29 -9l-18 -4q-2 2 -8 2q-6 -6 -28 -6t-38 -2h-8q-4 0 -13.5 -4t-11.5 -4q-25 -4 -35 -4t-15 2t-9 1t-16.5 -9.5t-37 -26.5t-71.5 -53q-2 -2 -24.5 -17.5t-43.5 -40.5q-2 -8 -13 -28.5t-23.5 -46t-22.5 -54t-10 -55.5q0 -6 4 -10l65 4q16 2 37 2t47 2q10 0 20.5 -1 t22.5 -1q10 0 22.5 1t24.5 1q14 -4 27.5 -4h42.5l8 -4l56 12q25 0 32 -8v-4q2 -2 2 -39l-22 -14l-17 -6l-6 -7l-28 -6q-6 -6 -29 -14l-29 -12q-6 -6 -39.5 -13.5t-113.5 -21.5q-8 -10 -23.5 -26.5t-33 -32t-34 -30t-26.5 -22.5q-10 -23 -29 -45q-6 -2 -16 -3t-21.5 -3 t-19.5 -7t-8 -16q0 -72 24.5 -100.5t79.5 -32.5l2 -24l11 -8h43l63 8l80 14l37 10l76 19l2 -6q2 -2 2 -7q-2 -6 -2 -12l2 -2v-4q0 -6 2 -10q-8 -8 -11 -12l-2 4q0 -8 2 -13q-8 0 -6 -11t-14 -28v-4q-4 -8 -5 -15t-20 -30v-8q-31 -14 -50 -23.5t-38.5 -14.5t-43 -9t-62.5 -6 h-27q0 -2 -2 -2h-4q-8 0 -39 6q-23 4 -33 3t-20 2t-27.5 11.5t-54.5 30.5l-10 12q-10 12 -20.5 21.5t-20.5 24t-20.5 39t-22.5 63.5q-4 -4 -5 -6t-5 -7v-8q-10 -10 -17.5 -18t-20 -18.5t-34 -27t-62.5 -44.5q-18 -6 -26 -13.5t-26.5 -17.5t-58.5 -22.5t-120 -30.5h-18 q-4 0 -13.5 -3t-13.5 -3q-70 0 -143.5 20.5t-159.5 79.5q-14 10 -26.5 19.5t-25 22.5t-27.5 33.5t-36 53.5q-4 12 -18.5 47t-32.5 125zM254 266.5q-2 -14.5 1 -30t14.5 -38t37.5 -59.5q4 -4 14.5 -15t34 -23.5t64.5 -22.5t104 -10q-6 0 5.5 1t27.5 3t33.5 3t23.5 3 q6 0 22.5 5t41 15.5t53.5 29.5t57 48l50 74q4 4 20 34.5t45 102.5v12q14 45 15 86q0 86 -22 153t-87 132l-49 49q-12 8 -30.5 18.5t-41.5 24.5q-23 -16 -51 -16h-62q-14 0 -40.5 -26.5t-59.5 -57.5q-23 -12 -49.5 -53t-79.5 -134q-4 -14 -19.5 -41.5t-30.5 -64.5t-27.5 -80 t-12.5 -88q0 -20 -2 -34.5zM1559 563h2h-2z" />
<glyph unicode="&#x153;" horiz-adv-x="1605" d="M6 55q4 8 8 14.5t4 10.5q0 6 -6 14t-6 12q0 18 6 56.5t6 56.5q6 2 29 12.5t23 30.5q0 6 -6.5 26.5t-6.5 24.5q20 16 32.5 30.5t25 33t28 45.5t41.5 70q8 12 33 40.5t59.5 63.5t72.5 73t72 68.5t59.5 50t31.5 19.5t16.5 -3t16.5 -3q16 0 55 57q8 -2 43 -33l64 -14 q12 -6 29.5 -13t43.5 -18q55 0 85 -32.5t46 -83.5q16 16 36 38.5t46 49.5l64 34q33 14 39 48h16q6 0 21.5 -14.5t23.5 -16.5q70 -10 105.5 -16.5t37.5 -6.5q35 -8 73 -29.5t70 -49t53.5 -59.5t21.5 -60q0 -61 -25 -106.5t-61.5 -76t-81.5 -49t-84 -29t-69 -13.5t-38 -3 q-154 0 -201 37q-78 -127 -77 -195q0 -16 28 -57q14 -18 23.5 -29.5t20 -16.5t26.5 -7t43 -6q8 -4 27.5 -17.5t64.5 -13.5q70 0 193 57q35 16 65.5 35t54 35t40 27.5t20.5 11.5q6 0 14 -4q-4 -31 -18 -70q-4 -4 -36 -41t-86 -79t-130 -76.5t-166 -34.5q-33 0 -71 20.5 t-74.5 51t-68.5 65.5t-54 61q-14 18 -23 37q-47 -41 -121.5 -85t-187.5 -101q-2 -2 -57 -8q-55 -68 -164 -68q-51 0 -66 10l-74 64h-6q-33 0 -49 21.5t-24.5 47t-11.5 49t-7 29.5zM176 84q0 -16 17.5 -35.5t33.5 -19.5q115 0 258 96q16 4 35 12t43 21q14 18 64 112q4 6 9 30 t12 50.5t14.5 49t15.5 26.5q0 68 22 78v22q-8 4 -20 15q2 4 4 9t2 13q0 18 -12 42t-29 24q-27 0 -129 -88q-59 -53 -103 -98.5t-78 -85.5t-60.5 -75.5t-55.5 -70.5q-2 -2 -9 -20.5t-15.5 -40t-13.5 -41t-5 -25.5zM961 387q41 -12 43 -12q20 0 102 51q51 33 78.5 59.5t41 49 t18.5 41t11 36.5q-25 25 -36 25l-60 -37q-39 -23 -65.5 -47.5t-48 -50t-41 -55t-43.5 -60.5z" />
<glyph unicode="&#x178;" horiz-adv-x="839" d="M94 963l17 30l39 37l18 -10l8 -10l12 14l45 -16l27 -27l68 -84l34 -51l66 -111l23 -51l26 31l33 61l41 58l6 4l14 24l113 137l131 150l55 53l60 53l35 17l22 18l19 15l28 14l2 -19l-28 -49l-13 -28l-41 -62l-14 -28l-293 -435l-10 -24l-35 -58l-14 -16l-19 -35v-6l-8 -6 l-12 -21l-23 -38v-11l-24 -157l-8 -17l-17 -135l2 -18l-16 -101l-6 -12l-2 -25l-9 -28l-12 -31l2 -14l-8 -17l-22 -16l-74 -8l-49 16l-25 53l-12 62v141l8 100l14 66l29 150l6 55l-96 125l-47 84l-39 59l-19 55zM391 1575l4 27l-2 22l8 27l21 32l39 29l33 6h4l14 -6l18 -8 l17 2l-4 -14l20 -9l25 -26l10 -15l20 -67v-14l-2 -25l-18 -25l-16 -16l-2 -4l-31 -4l-35 -4l-35 14l-16 8l-4 4l-45 35l-19 21zM729 1614l31 69l22 15l21 6l8 10l43 -14l18 4l21 -31l27 -24l12 -50l-8 -55l-29 -28l-12 -7l-21 -6l-53 8l-37 21l-39 39l2 31z" />
<glyph unicode="&#x2c6;" horiz-adv-x="796" d="M129 1438q0 2 2 4q0 10 7 24.5t32 49.5q10 14 22.5 29.5t26.5 33.5q23 29 50.5 61.5t60.5 69.5q8 6 16 14.5t19 18.5q6 4 12 9t14 13q4 4 19 11q35 0 49 -15q4 -4 10 -7l14 -7q10 -8 21.5 -18.5t25.5 -20.5q6 -12 25 -33l68 -135q16 -31 32 -49v-2q5 -7 17 -23 q0 -10 -13 -41q-12 -6 -20 -6q-23 0 -33 6q-4 4 -26.5 36t-61.5 91q-8 10 -18.5 27.5t-26.5 40.5q-12 16 -27 18q-2 -2 -16 -6q-2 -2 -18.5 -20.5l-49.5 -55.5l-18 -24q-2 -4 -80 -94q-27 -20 -33 -47q-29 -16 -41 -17q-23 4 -28 12q-16 8 -33 52z" />
<glyph unicode="&#x2dc;" horiz-adv-x="890" d="M172 1495q2 2 2 3t2 3q-2 2 -2 8q0 14 8 45q31 70 51 86q43 39 72 35q6 2 21 2q8 -2 19 -3t28 -5q4 -2 9 -4t9 -4q12 -8 26.5 -17.5t31.5 -19.5q10 -10 20 -20.5t23 -24.5q2 -2 6 -10v-2q8 -18 18 -35l2 -2l12 -4h15q25 4 32 9t17 13q14 16 33.5 40t46.5 54q37 39 49 39 q45 0 43 2q4 0 20 -4q3 -2 11 -6q-4 -10 -13 -22l2 -2q-10 -20 -38 -56q-2 -6 -13 -26l-4 -2v-6q-4 -12 -18 -33v-6q0 -4 2 -7q-4 -8 -9.5 -15t-11.5 -17q2 2 2 0q-2 0 -2 -4q-10 -6 -26 -21l-2 -2q-14 -14 -23 -18q-18 -8 -35.5 -10.5t-46.5 -2.5q-70 6 -145 47 q-4 4 -29 19q-4 4 -10 8t-15 8q-4 0 -19 8.5t-17 8.5q0 -2 -3.5 -3t-8.5 -4.5t-10 -12.5t-7 -27q-10 -25 -25.5 -29t-19.5 -4q-10 0 -16 2h-9q-4 2 -7 2t-7 2h-8q-10 2 -21 20q-4 4 -12 27z" />
<glyph unicode="&#x2000;" horiz-adv-x="888" />
<glyph unicode="&#x2001;" horiz-adv-x="1776" />
<glyph unicode="&#x2002;" horiz-adv-x="888" />
<glyph unicode="&#x2003;" horiz-adv-x="1776" />
<glyph unicode="&#x2004;" horiz-adv-x="592" />
<glyph unicode="&#x2005;" horiz-adv-x="444" />
<glyph unicode="&#x2006;" horiz-adv-x="296" />
<glyph unicode="&#x2007;" horiz-adv-x="296" />
<glyph unicode="&#x2008;" horiz-adv-x="222" />
<glyph unicode="&#x2009;" horiz-adv-x="355" />
<glyph unicode="&#x200a;" horiz-adv-x="98" />
<glyph unicode="&#x2010;" horiz-adv-x="849" d="M82 373l20 37l9 12l39 12l63 6l127 17l74 8l71 4l72 2h160l37 -4l14 -8v-10l-29 -9l-2 -10l-10 -2l-29 -16l-4 -15l-22 -10l-27 -22l-53 -17l-31 -10l-6 -8l-31 10l-4 -8l-51 -27l-74 -18l-47 -11l-57 3l-51 -5l-70 9l-39 -9l-22 15v10l-17 18l-8 7l2 34z" />
<glyph unicode="&#x2011;" horiz-adv-x="849" d="M82 373l20 37l9 12l39 12l63 6l127 17l74 8l71 4l72 2h160l37 -4l14 -8v-10l-29 -9l-2 -10l-10 -2l-29 -16l-4 -15l-22 -10l-27 -22l-53 -17l-31 -10l-6 -8l-31 10l-4 -8l-51 -27l-74 -18l-47 -11l-57 3l-51 -5l-70 9l-39 -9l-22 15v10l-17 18l-8 7l2 34z" />
</font>
</defs>
</svg>
